<svg width="2000" height="250" viewBox="0 0 2000 250" fill="none" xmlns="http://www.w3.org/2000/svg">
<rect width="2000" height="250" rx="48" fill="#F0E81A"/>
<path d="M148.121 63.9112C151.892 65.4726 155.384 67.6248 158.466 70.2816C159.177 70.895 159.867 71.5353 160.534 72.2014C164.086 75.7527 166.905 79.9687 168.827 84.6086C170.75 89.2486 171.74 94.2217 171.74 99.2439C171.74 103.776 170.934 108.269 169.363 112.512H171.74C176.764 112.512 181.739 113.501 186.381 115.423C190.153 116.985 193.644 119.137 196.726 121.794C197.438 122.407 198.127 123.047 198.794 123.714C202.347 127.265 205.165 131.481 207.088 136.121C209.01 140.761 210 145.734 210 150.756C210 155.778 209.01 160.751 207.088 165.391C205.165 170.031 202.347 174.247 198.794 177.799C198.127 178.465 197.438 179.105 196.726 179.718C193.644 182.375 190.152 184.527 186.381 186.089C181.739 188.011 176.764 189 171.74 189H146.753C139.854 189 134.26 183.409 134.26 176.512C134.26 169.615 139.854 164.024 146.753 164.024H171.74L171.74 164.028C173.483 164.028 175.21 163.684 176.821 163.017C178.431 162.35 179.895 161.373 181.128 160.14C182.361 158.908 183.339 157.445 184.006 155.835C184.673 154.225 185.017 152.499 185.017 150.756C185.017 149.013 184.673 147.288 184.006 145.677C183.339 144.067 182.361 142.604 181.128 141.372C179.895 140.139 178.432 139.162 176.821 138.495C175.21 137.828 173.483 137.485 171.74 137.485V137.488H108.493C101.593 137.488 96 131.897 96 125C96 118.103 101.593 112.512 108.493 112.512H133.767C135.413 112.477 137.038 112.135 138.56 111.505C140.171 110.838 141.635 109.861 142.868 108.628C144.101 107.396 145.079 105.933 145.746 104.323C146.413 102.713 146.757 100.987 146.757 99.2439C146.757 97.5011 146.413 95.7753 145.746 94.1652C145.079 92.555 144.101 91.092 142.868 89.8596C141.635 88.6272 140.171 87.6497 138.56 86.9827C136.95 86.3158 135.223 85.9725 133.479 85.9725V85.9756H108.493C101.593 85.9756 96 80.3846 96 73.4878C96 66.591 101.593 61 108.493 61H133.479C138.504 61 143.479 61.9892 148.121 63.9112Z" fill="black"/>
<path d="M96 176.512C96 169.615 101.593 164.024 108.493 164.024H115.521C122.42 164.024 128.014 169.615 128.014 176.512C128.014 183.409 122.42 189 115.521 189H108.493C101.593 189 96 183.409 96 176.512Z" fill="black"/>
<path d="M291.955 107.636V118.545H259.636V107.636H291.955ZM267.034 160V103.852C267.034 100.057 267.773 96.9091 269.25 94.4091C270.75 91.9091 272.795 90.0341 275.386 88.7841C277.977 87.5341 280.92 86.9091 284.216 86.9091C286.443 86.9091 288.477 87.0795 290.318 87.4205C292.182 87.7614 293.568 88.0682 294.477 88.3409L291.886 99.25C291.318 99.0682 290.614 98.8977 289.773 98.7386C288.955 98.5795 288.114 98.5 287.25 98.5C285.114 98.5 283.625 99 282.784 100C281.943 100.977 281.523 102.352 281.523 104.125V160H267.034ZM322.815 161.023C317.429 161.023 312.793 159.932 308.906 157.75C305.043 155.545 302.065 152.432 299.974 148.409C297.884 144.364 296.838 139.58 296.838 134.057C296.838 128.67 297.884 123.943 299.974 119.875C302.065 115.807 305.009 112.636 308.804 110.364C312.622 108.091 317.099 106.955 322.236 106.955C325.69 106.955 328.906 107.511 331.884 108.625C334.884 109.716 337.497 111.364 339.724 113.568C341.974 115.773 343.724 118.545 344.974 121.886C346.224 125.205 346.849 129.091 346.849 133.545V137.534H302.634V128.534H333.179C333.179 126.443 332.724 124.591 331.815 122.977C330.906 121.364 329.645 120.102 328.031 119.193C326.44 118.261 324.588 117.795 322.474 117.795C320.27 117.795 318.315 118.307 316.611 119.33C314.929 120.33 313.611 121.682 312.656 123.386C311.702 125.068 311.213 126.943 311.19 129.011V137.568C311.19 140.159 311.668 142.398 312.622 144.284C313.599 146.17 314.974 147.625 316.747 148.648C318.52 149.67 320.622 150.182 323.054 150.182C324.668 150.182 326.145 149.955 327.486 149.5C328.827 149.045 329.974 148.364 330.929 147.455C331.884 146.545 332.611 145.432 333.111 144.114L346.543 145C345.861 148.227 344.463 151.045 342.349 153.455C340.259 155.841 337.554 157.705 334.236 159.045C330.94 160.364 327.134 161.023 322.815 161.023ZM371.259 160.989C367.918 160.989 364.94 160.409 362.327 159.25C359.713 158.068 357.645 156.33 356.122 154.034C354.622 151.716 353.872 148.83 353.872 145.375C353.872 142.466 354.406 140.023 355.474 138.045C356.543 136.068 357.997 134.477 359.838 133.273C361.679 132.068 363.77 131.159 366.111 130.545C368.474 129.932 370.952 129.5 373.543 129.25C376.588 128.932 379.043 128.636 380.906 128.364C382.77 128.068 384.122 127.636 384.963 127.068C385.804 126.5 386.224 125.659 386.224 124.545V124.341C386.224 122.182 385.543 120.511 384.179 119.33C382.838 118.148 380.929 117.557 378.452 117.557C375.838 117.557 373.759 118.136 372.213 119.295C370.668 120.432 369.645 121.864 369.145 123.591L355.713 122.5C356.395 119.318 357.736 116.568 359.736 114.25C361.736 111.909 364.315 110.114 367.474 108.864C370.656 107.591 374.338 106.955 378.52 106.955C381.429 106.955 384.213 107.295 386.872 107.977C389.554 108.659 391.929 109.716 393.997 111.148C396.088 112.58 397.736 114.42 398.94 116.67C400.145 118.898 400.747 121.568 400.747 124.682V160H386.974V152.739H386.565C385.724 154.375 384.599 155.818 383.19 157.068C381.781 158.295 380.088 159.261 378.111 159.966C376.134 160.648 373.849 160.989 371.259 160.989ZM375.418 150.966C377.554 150.966 379.44 150.545 381.077 149.705C382.713 148.841 383.997 147.682 384.929 146.227C385.861 144.773 386.327 143.125 386.327 141.284V135.727C385.872 136.023 385.247 136.295 384.452 136.545C383.679 136.773 382.804 136.989 381.827 137.193C380.849 137.375 379.872 137.545 378.895 137.705C377.918 137.841 377.031 137.966 376.236 138.08C374.531 138.33 373.043 138.727 371.77 139.273C370.497 139.818 369.509 140.557 368.804 141.489C368.099 142.398 367.747 143.534 367.747 144.898C367.747 146.875 368.463 148.386 369.895 149.432C371.349 150.455 373.19 150.966 375.418 150.966ZM439.866 107.636V118.545H408.332V107.636H439.866ZM415.491 95.0909H430.014V143.909C430.014 145.25 430.219 146.295 430.628 147.045C431.037 147.773 431.605 148.284 432.332 148.58C433.082 148.875 433.946 149.023 434.923 149.023C435.605 149.023 436.287 148.966 436.969 148.852C437.651 148.716 438.173 148.614 438.537 148.545L440.821 159.352C440.094 159.58 439.071 159.841 437.753 160.136C436.435 160.455 434.832 160.648 432.946 160.716C429.446 160.852 426.378 160.386 423.741 159.318C421.128 158.25 419.094 156.591 417.639 154.341C416.185 152.091 415.469 149.25 415.491 145.818V95.0909ZM482.906 137.705V107.636H497.429V160H483.486V150.489H482.94C481.759 153.557 479.793 156.023 477.043 157.886C474.315 159.75 470.986 160.682 467.054 160.682C463.554 160.682 460.474 159.886 457.815 158.295C455.156 156.705 453.077 154.443 451.577 151.511C450.099 148.58 449.349 145.068 449.327 140.977V107.636H463.849V138.386C463.872 141.477 464.702 143.92 466.338 145.716C467.974 147.511 470.168 148.409 472.918 148.409C474.668 148.409 476.304 148.011 477.827 147.216C479.349 146.398 480.577 145.193 481.509 143.602C482.463 142.011 482.929 140.045 482.906 137.705ZM509.045 160V107.636H523.125V116.773H523.67C524.625 113.523 526.227 111.068 528.477 109.409C530.727 107.727 533.318 106.886 536.25 106.886C536.977 106.886 537.761 106.932 538.602 107.023C539.443 107.114 540.182 107.239 540.818 107.398V120.284C540.136 120.08 539.193 119.898 537.989 119.739C536.784 119.58 535.682 119.5 534.682 119.5C532.545 119.5 530.636 119.966 528.955 120.898C527.295 121.807 525.977 123.08 525 124.716C524.045 126.352 523.568 128.239 523.568 130.375V160H509.045ZM569.753 161.023C564.366 161.023 559.73 159.932 555.844 157.75C551.98 155.545 549.003 152.432 546.912 148.409C544.821 144.364 543.776 139.58 543.776 134.057C543.776 128.67 544.821 123.943 546.912 119.875C549.003 115.807 551.946 112.636 555.741 110.364C559.56 108.091 564.037 106.955 569.173 106.955C572.628 106.955 575.844 107.511 578.821 108.625C581.821 109.716 584.435 111.364 586.662 113.568C588.912 115.773 590.662 118.545 591.912 121.886C593.162 125.205 593.787 129.091 593.787 133.545V137.534H549.571V128.534H580.116C580.116 126.443 579.662 124.591 578.753 122.977C577.844 121.364 576.582 120.102 574.969 119.193C573.378 118.261 571.526 117.795 569.412 117.795C567.207 117.795 565.253 118.307 563.548 119.33C561.866 120.33 560.548 121.682 559.594 123.386C558.639 125.068 558.151 126.943 558.128 129.011V137.568C558.128 140.159 558.605 142.398 559.56 144.284C560.537 146.17 561.912 147.625 563.685 148.648C565.457 149.67 567.56 150.182 569.991 150.182C571.605 150.182 573.082 149.955 574.423 149.5C575.764 149.045 576.912 148.364 577.866 147.455C578.821 146.545 579.548 145.432 580.048 144.114L593.48 145C592.798 148.227 591.401 151.045 589.287 153.455C587.196 155.841 584.491 157.705 581.173 159.045C577.878 160.364 574.071 161.023 569.753 161.023ZM635.889 125.568V137.091H604.048V125.568H635.889ZM676.423 107.636V118.545H644.105V107.636H676.423ZM651.503 160V103.852C651.503 100.057 652.241 96.9091 653.719 94.4091C655.219 91.9091 657.264 90.0341 659.855 88.7841C662.446 87.5341 665.389 86.9091 668.685 86.9091C670.912 86.9091 672.946 87.0795 674.787 87.4205C676.651 87.7614 678.037 88.0682 678.946 88.3409L676.355 99.25C675.787 99.0682 675.082 98.8977 674.241 98.7386C673.423 98.5795 672.582 98.5 671.719 98.5C669.582 98.5 668.094 99 667.253 100C666.412 100.977 665.991 102.352 665.991 104.125V160H651.503ZM707.284 161.023C701.898 161.023 697.261 159.932 693.375 157.75C689.511 155.545 686.534 152.432 684.443 148.409C682.352 144.364 681.307 139.58 681.307 134.057C681.307 128.67 682.352 123.943 684.443 119.875C686.534 115.807 689.477 112.636 693.273 110.364C697.091 108.091 701.568 106.955 706.705 106.955C710.159 106.955 713.375 107.511 716.352 108.625C719.352 109.716 721.966 111.364 724.193 113.568C726.443 115.773 728.193 118.545 729.443 121.886C730.693 125.205 731.318 129.091 731.318 133.545V137.534H687.102V128.534H717.648C717.648 126.443 717.193 124.591 716.284 122.977C715.375 121.364 714.114 120.102 712.5 119.193C710.909 118.261 709.057 117.795 706.943 117.795C704.739 117.795 702.784 118.307 701.08 119.33C699.398 120.33 698.08 121.682 697.125 123.386C696.17 125.068 695.682 126.943 695.659 129.011V137.568C695.659 140.159 696.136 142.398 697.091 144.284C698.068 146.17 699.443 147.625 701.216 148.648C702.989 149.67 705.091 150.182 707.523 150.182C709.136 150.182 710.614 149.955 711.955 149.5C713.295 149.045 714.443 148.364 715.398 147.455C716.352 146.545 717.08 145.432 717.58 144.114L731.011 145C730.33 148.227 728.932 151.045 726.818 153.455C724.727 155.841 722.023 157.705 718.705 159.045C715.409 160.364 711.602 161.023 707.284 161.023ZM768.648 107.636V118.545H737.114V107.636H768.648ZM744.273 95.0909H758.795V143.909C758.795 145.25 759 146.295 759.409 147.045C759.818 147.773 760.386 148.284 761.114 148.58C761.864 148.875 762.727 149.023 763.705 149.023C764.386 149.023 765.068 148.966 765.75 148.852C766.432 148.716 766.955 148.614 767.318 148.545L769.602 159.352C768.875 159.58 767.852 159.841 766.534 160.136C765.216 160.455 763.614 160.648 761.727 160.716C758.227 160.852 755.159 160.386 752.523 159.318C749.909 158.25 747.875 156.591 746.42 154.341C744.966 152.091 744.25 149.25 744.273 145.818V95.0909ZM801.205 161.023C795.841 161.023 791.227 159.886 787.364 157.614C783.523 155.318 780.568 152.136 778.5 148.068C776.455 144 775.432 139.318 775.432 134.023C775.432 128.659 776.466 123.955 778.534 119.909C780.625 115.841 783.591 112.67 787.432 110.398C791.273 108.102 795.841 106.955 801.136 106.955C805.705 106.955 809.705 107.784 813.136 109.443C816.568 111.102 819.284 113.432 821.284 116.432C823.284 119.432 824.386 122.955 824.591 127H810.886C810.5 124.386 809.477 122.284 807.818 120.693C806.182 119.08 804.034 118.273 801.375 118.273C799.125 118.273 797.159 118.886 795.477 120.114C793.818 121.318 792.523 123.08 791.591 125.398C790.659 127.716 790.193 130.523 790.193 133.818C790.193 137.159 790.648 140 791.557 142.341C792.489 144.682 793.795 146.466 795.477 147.693C797.159 148.92 799.125 149.534 801.375 149.534C803.034 149.534 804.523 149.193 805.841 148.511C807.182 147.83 808.284 146.841 809.148 145.545C810.034 144.227 810.614 142.648 810.886 140.807H824.591C824.364 144.807 823.273 148.33 821.318 151.375C819.386 154.398 816.716 156.761 813.307 158.466C809.898 160.17 805.864 161.023 801.205 161.023ZM848.412 129.727V160H833.889V90.1818H848.003V116.875H848.616C849.798 113.784 851.707 111.364 854.344 109.614C856.98 107.841 860.287 106.955 864.264 106.955C867.901 106.955 871.071 107.75 873.776 109.341C876.503 110.909 878.616 113.17 880.116 116.125C881.639 119.057 882.389 122.568 882.366 126.659V160H867.844V129.25C867.866 126.023 867.048 123.511 865.389 121.716C863.753 119.92 861.457 119.023 858.503 119.023C856.526 119.023 854.776 119.443 853.253 120.284C851.753 121.125 850.571 122.352 849.707 123.966C848.866 125.557 848.435 127.477 848.412 129.727Z" fill="black"/>
</svg>
