<svg width="2000" height="250" viewBox="0 0 2000 250" fill="none" xmlns="http://www.w3.org/2000/svg">
<rect width="2000" height="250" rx="48" fill="#F0E81A"/>
<path d="M148.121 63.9112C151.892 65.4726 155.384 67.6248 158.466 70.2816C159.177 70.895 159.867 71.5353 160.534 72.2014C164.086 75.7527 166.905 79.9687 168.827 84.6086C170.75 89.2486 171.74 94.2217 171.74 99.2439C171.74 103.776 170.934 108.269 169.363 112.512H171.74C176.764 112.512 181.739 113.501 186.381 115.423C190.153 116.985 193.644 119.137 196.726 121.794C197.438 122.407 198.127 123.047 198.794 123.714C202.347 127.265 205.165 131.481 207.088 136.121C209.01 140.761 210 145.734 210 150.756C210 155.778 209.01 160.751 207.088 165.391C205.165 170.031 202.347 174.247 198.794 177.799C198.127 178.465 197.438 179.105 196.726 179.718C193.644 182.375 190.152 184.527 186.381 186.089C181.739 188.011 176.764 189 171.74 189H146.753C139.854 189 134.26 183.409 134.26 176.512C134.26 169.615 139.854 164.024 146.753 164.024H171.74L171.74 164.028C173.483 164.028 175.21 163.684 176.821 163.017C178.431 162.35 179.895 161.373 181.128 160.14C182.361 158.908 183.339 157.445 184.006 155.835C184.673 154.225 185.017 152.499 185.017 150.756C185.017 149.013 184.673 147.288 184.006 145.677C183.339 144.067 182.361 142.604 181.128 141.372C179.895 140.139 178.432 139.162 176.821 138.495C175.21 137.828 173.483 137.485 171.74 137.485V137.488H108.493C101.593 137.488 96 131.897 96 125C96 118.103 101.593 112.512 108.493 112.512H133.767C135.413 112.477 137.038 112.135 138.56 111.505C140.171 110.838 141.635 109.861 142.868 108.628C144.101 107.396 145.079 105.933 145.746 104.323C146.413 102.713 146.757 100.987 146.757 99.2439C146.757 97.5011 146.413 95.7753 145.746 94.1652C145.079 92.555 144.101 91.092 142.868 89.8596C141.635 88.6272 140.171 87.6497 138.56 86.9827C136.95 86.3158 135.223 85.9725 133.479 85.9725V85.9756H108.493C101.593 85.9756 96 80.3846 96 73.4878C96 66.591 101.593 61 108.493 61H133.479C138.504 61 143.479 61.9892 148.121 63.9112Z" fill="black"/>
<path d="M96 176.512C96 169.615 101.593 164.024 108.493 164.024H115.521C122.42 164.024 128.014 169.615 128.014 176.512C128.014 183.409 122.42 189 115.521 189H108.493C101.593 189 96 183.409 96 176.512Z" fill="black"/>
<path d="M287.455 161.023C282.159 161.023 277.58 159.898 273.716 157.648C269.875 155.375 266.909 152.216 264.818 148.17C262.727 144.102 261.682 139.386 261.682 134.023C261.682 128.614 262.727 123.886 264.818 119.841C266.909 115.773 269.875 112.614 273.716 110.364C277.58 108.091 282.159 106.955 287.455 106.955C292.75 106.955 297.318 108.091 301.159 110.364C305.023 112.614 308 115.773 310.091 119.841C312.182 123.886 313.227 128.614 313.227 134.023C313.227 139.386 312.182 144.102 310.091 148.17C308 152.216 305.023 155.375 301.159 157.648C297.318 159.898 292.75 161.023 287.455 161.023ZM287.523 149.773C289.932 149.773 291.943 149.091 293.557 147.727C295.17 146.341 296.386 144.455 297.205 142.068C298.045 139.682 298.466 136.966 298.466 133.92C298.466 130.875 298.045 128.159 297.205 125.773C296.386 123.386 295.17 121.5 293.557 120.114C291.943 118.727 289.932 118.034 287.523 118.034C285.091 118.034 283.045 118.727 281.386 120.114C279.75 121.5 278.511 123.386 277.67 125.773C276.852 128.159 276.443 130.875 276.443 133.92C276.443 136.966 276.852 139.682 277.67 142.068C278.511 144.455 279.75 146.341 281.386 147.727C283.045 149.091 285.091 149.773 287.523 149.773ZM322.67 179.636V107.636H336.989V116.432H337.636C338.273 115.023 339.193 113.591 340.398 112.136C341.625 110.659 343.216 109.432 345.17 108.455C347.148 107.455 349.602 106.955 352.534 106.955C356.352 106.955 359.875 107.955 363.102 109.955C366.33 111.932 368.909 114.92 370.841 118.92C372.773 122.898 373.739 127.886 373.739 133.886C373.739 139.727 372.795 144.659 370.909 148.682C369.045 152.682 366.5 155.716 363.273 157.784C360.068 159.83 356.477 160.852 352.5 160.852C349.682 160.852 347.284 160.386 345.307 159.455C343.352 158.523 341.75 157.352 340.5 155.943C339.25 154.511 338.295 153.068 337.636 151.614H337.193V179.636H322.67ZM336.886 133.818C336.886 136.932 337.318 139.648 338.182 141.966C339.045 144.284 340.295 146.091 341.932 147.386C343.568 148.659 345.557 149.295 347.898 149.295C350.261 149.295 352.261 148.648 353.898 147.352C355.534 146.034 356.773 144.216 357.614 141.898C358.477 139.557 358.909 136.864 358.909 133.818C358.909 130.795 358.489 128.136 357.648 125.841C356.807 123.545 355.568 121.75 353.932 120.455C352.295 119.159 350.284 118.511 347.898 118.511C345.534 118.511 343.534 119.136 341.898 120.386C340.284 121.636 339.045 123.409 338.182 125.705C337.318 128 336.886 130.705 336.886 133.818ZM407.284 161.023C401.898 161.023 397.261 159.932 393.375 157.75C389.511 155.545 386.534 152.432 384.443 148.409C382.352 144.364 381.307 139.58 381.307 134.057C381.307 128.67 382.352 123.943 384.443 119.875C386.534 115.807 389.477 112.636 393.273 110.364C397.091 108.091 401.568 106.955 406.705 106.955C410.159 106.955 413.375 107.511 416.352 108.625C419.352 109.716 421.966 111.364 424.193 113.568C426.443 115.773 428.193 118.545 429.443 121.886C430.693 125.205 431.318 129.091 431.318 133.545V137.534H387.102V128.534H417.648C417.648 126.443 417.193 124.591 416.284 122.977C415.375 121.364 414.114 120.102 412.5 119.193C410.909 118.261 409.057 117.795 406.943 117.795C404.739 117.795 402.784 118.307 401.08 119.33C399.398 120.33 398.08 121.682 397.125 123.386C396.17 125.068 395.682 126.943 395.659 129.011V137.568C395.659 140.159 396.136 142.398 397.091 144.284C398.068 146.17 399.443 147.625 401.216 148.648C402.989 149.67 405.091 150.182 407.523 150.182C409.136 150.182 410.614 149.955 411.955 149.5C413.295 149.045 414.443 148.364 415.398 147.455C416.352 146.545 417.08 145.432 417.58 144.114L431.011 145C430.33 148.227 428.932 151.045 426.818 153.455C424.727 155.841 422.023 157.705 418.705 159.045C415.409 160.364 411.602 161.023 407.284 161.023ZM455.318 129.727V160H440.795V107.636H454.636V116.875H455.25C456.409 113.83 458.352 111.42 461.08 109.648C463.807 107.852 467.114 106.955 471 106.955C474.636 106.955 477.807 107.75 480.511 109.341C483.216 110.932 485.318 113.205 486.818 116.159C488.318 119.091 489.068 122.591 489.068 126.659V160H474.545V129.25C474.568 126.045 473.75 123.545 472.091 121.75C470.432 119.932 468.148 119.023 465.239 119.023C463.284 119.023 461.557 119.443 460.057 120.284C458.58 121.125 457.42 122.352 456.58 123.966C455.761 125.557 455.341 127.477 455.318 129.727ZM515.446 160.989C512.105 160.989 509.128 160.409 506.514 159.25C503.901 158.068 501.832 156.33 500.31 154.034C498.81 151.716 498.06 148.83 498.06 145.375C498.06 142.466 498.594 140.023 499.662 138.045C500.73 136.068 502.185 134.477 504.026 133.273C505.866 132.068 507.957 131.159 510.298 130.545C512.662 129.932 515.139 129.5 517.73 129.25C520.776 128.932 523.23 128.636 525.094 128.364C526.957 128.068 528.31 127.636 529.151 127.068C529.991 126.5 530.412 125.659 530.412 124.545V124.341C530.412 122.182 529.73 120.511 528.366 119.33C527.026 118.148 525.116 117.557 522.639 117.557C520.026 117.557 517.946 118.136 516.401 119.295C514.855 120.432 513.832 121.864 513.332 123.591L499.901 122.5C500.582 119.318 501.923 116.568 503.923 114.25C505.923 111.909 508.503 110.114 511.662 108.864C514.844 107.591 518.526 106.955 522.707 106.955C525.616 106.955 528.401 107.295 531.06 107.977C533.741 108.659 536.116 109.716 538.185 111.148C540.276 112.58 541.923 114.42 543.128 116.67C544.332 118.898 544.935 121.568 544.935 124.682V160H531.162V152.739H530.753C529.912 154.375 528.787 155.818 527.378 157.068C525.969 158.295 524.276 159.261 522.298 159.966C520.321 160.648 518.037 160.989 515.446 160.989ZM519.605 150.966C521.741 150.966 523.628 150.545 525.264 149.705C526.901 148.841 528.185 147.682 529.116 146.227C530.048 144.773 530.514 143.125 530.514 141.284V135.727C530.06 136.023 529.435 136.295 528.639 136.545C527.866 136.773 526.991 136.989 526.014 137.193C525.037 137.375 524.06 137.545 523.082 137.705C522.105 137.841 521.219 137.966 520.423 138.08C518.719 138.33 517.23 138.727 515.957 139.273C514.685 139.818 513.696 140.557 512.991 141.489C512.287 142.398 511.935 143.534 511.935 144.898C511.935 146.875 512.651 148.386 514.082 149.432C515.537 150.455 517.378 150.966 519.605 150.966ZM556.202 179.636V107.636H570.52V116.432H571.168C571.804 115.023 572.724 113.591 573.929 112.136C575.156 110.659 576.747 109.432 578.702 108.455C580.679 107.455 583.134 106.955 586.065 106.955C589.884 106.955 593.406 107.955 596.634 109.955C599.861 111.932 602.44 114.92 604.372 118.92C606.304 122.898 607.27 127.886 607.27 133.886C607.27 139.727 606.327 144.659 604.44 148.682C602.577 152.682 600.031 155.716 596.804 157.784C593.599 159.83 590.009 160.852 586.031 160.852C583.213 160.852 580.815 160.386 578.838 159.455C576.884 158.523 575.281 157.352 574.031 155.943C572.781 154.511 571.827 153.068 571.168 151.614H570.724V179.636H556.202ZM570.418 133.818C570.418 136.932 570.849 139.648 571.713 141.966C572.577 144.284 573.827 146.091 575.463 147.386C577.099 148.659 579.088 149.295 581.429 149.295C583.793 149.295 585.793 148.648 587.429 147.352C589.065 146.034 590.304 144.216 591.145 141.898C592.009 139.557 592.44 136.864 592.44 133.818C592.44 130.795 592.02 128.136 591.179 125.841C590.338 123.545 589.099 121.75 587.463 120.455C585.827 119.159 583.815 118.511 581.429 118.511C579.065 118.511 577.065 119.136 575.429 120.386C573.815 121.636 572.577 123.409 571.713 125.705C570.849 128 570.418 130.705 570.418 133.818ZM616.952 160V107.636H631.474V160H616.952ZM624.247 100.886C622.088 100.886 620.236 100.17 618.69 98.7386C617.168 97.2841 616.406 95.5455 616.406 93.5227C616.406 91.5227 617.168 89.8068 618.69 88.375C620.236 86.9205 622.088 86.1932 624.247 86.1932C626.406 86.1932 628.247 86.9205 629.77 88.375C631.315 89.8068 632.088 91.5227 632.088 93.5227C632.088 95.5455 631.315 97.2841 629.77 98.7386C628.247 100.17 626.406 100.886 624.247 100.886ZM675.733 125.568V137.091H643.892V125.568H675.733ZM711.972 161.023C706.585 161.023 701.949 159.932 698.062 157.75C694.199 155.545 691.222 152.432 689.131 148.409C687.04 144.364 685.994 139.58 685.994 134.057C685.994 128.67 687.04 123.943 689.131 119.875C691.222 115.807 694.165 112.636 697.96 110.364C701.778 108.091 706.256 106.955 711.392 106.955C714.847 106.955 718.063 107.511 721.04 108.625C724.04 109.716 726.653 111.364 728.881 113.568C731.131 115.773 732.881 118.545 734.131 121.886C735.381 125.205 736.006 129.091 736.006 133.545V137.534H691.79V128.534H722.335C722.335 126.443 721.881 124.591 720.972 122.977C720.063 121.364 718.801 120.102 717.188 119.193C715.597 118.261 713.744 117.795 711.631 117.795C709.426 117.795 707.472 118.307 705.767 119.33C704.085 120.33 702.767 121.682 701.812 123.386C700.858 125.068 700.369 126.943 700.347 129.011V137.568C700.347 140.159 700.824 142.398 701.778 144.284C702.756 146.17 704.131 147.625 705.903 148.648C707.676 149.67 709.778 150.182 712.21 150.182C713.824 150.182 715.301 149.955 716.642 149.5C717.983 149.045 719.131 148.364 720.085 147.455C721.04 146.545 721.767 145.432 722.267 144.114L735.699 145C735.017 148.227 733.619 151.045 731.506 153.455C729.415 155.841 726.71 157.705 723.392 159.045C720.097 160.364 716.29 161.023 711.972 161.023ZM756.682 107.636L766.295 125.943L776.148 107.636H791.045L775.875 133.818L791.455 160H776.625L766.295 141.898L756.136 160H741.136L756.682 133.818L741.682 107.636H756.682ZM799.67 179.636V107.636H813.989V116.432H814.636C815.273 115.023 816.193 113.591 817.398 112.136C818.625 110.659 820.216 109.432 822.17 108.455C824.148 107.455 826.602 106.955 829.534 106.955C833.352 106.955 836.875 107.955 840.102 109.955C843.33 111.932 845.909 114.92 847.841 118.92C849.773 122.898 850.739 127.886 850.739 133.886C850.739 139.727 849.795 144.659 847.909 148.682C846.045 152.682 843.5 155.716 840.273 157.784C837.068 159.83 833.477 160.852 829.5 160.852C826.682 160.852 824.284 160.386 822.307 159.455C820.352 158.523 818.75 157.352 817.5 155.943C816.25 154.511 815.295 153.068 814.636 151.614H814.193V179.636H799.67ZM813.886 133.818C813.886 136.932 814.318 139.648 815.182 141.966C816.045 144.284 817.295 146.091 818.932 147.386C820.568 148.659 822.557 149.295 824.898 149.295C827.261 149.295 829.261 148.648 830.898 147.352C832.534 146.034 833.773 144.216 834.614 141.898C835.477 139.557 835.909 136.864 835.909 133.818C835.909 130.795 835.489 128.136 834.648 125.841C833.807 123.545 832.568 121.75 830.932 120.455C829.295 119.159 827.284 118.511 824.898 118.511C822.534 118.511 820.534 119.136 818.898 120.386C817.284 121.636 816.045 123.409 815.182 125.705C814.318 128 813.886 130.705 813.886 133.818ZM860.42 160V107.636H874.5V116.773H875.045C876 113.523 877.602 111.068 879.852 109.409C882.102 107.727 884.693 106.886 887.625 106.886C888.352 106.886 889.136 106.932 889.977 107.023C890.818 107.114 891.557 107.239 892.193 107.398V120.284C891.511 120.08 890.568 119.898 889.364 119.739C888.159 119.58 887.057 119.5 886.057 119.5C883.92 119.5 882.011 119.966 880.33 120.898C878.67 121.807 877.352 123.08 876.375 124.716C875.42 126.352 874.943 128.239 874.943 130.375V160H860.42ZM921.128 161.023C915.741 161.023 911.105 159.932 907.219 157.75C903.355 155.545 900.378 152.432 898.287 148.409C896.196 144.364 895.151 139.58 895.151 134.057C895.151 128.67 896.196 123.943 898.287 119.875C900.378 115.807 903.321 112.636 907.116 110.364C910.935 108.091 915.412 106.955 920.548 106.955C924.003 106.955 927.219 107.511 930.196 108.625C933.196 109.716 935.81 111.364 938.037 113.568C940.287 115.773 942.037 118.545 943.287 121.886C944.537 125.205 945.162 129.091 945.162 133.545V137.534H900.946V128.534H931.491C931.491 126.443 931.037 124.591 930.128 122.977C929.219 121.364 927.957 120.102 926.344 119.193C924.753 118.261 922.901 117.795 920.787 117.795C918.582 117.795 916.628 118.307 914.923 119.33C913.241 120.33 911.923 121.682 910.969 123.386C910.014 125.068 909.526 126.943 909.503 129.011V137.568C909.503 140.159 909.98 142.398 910.935 144.284C911.912 146.17 913.287 147.625 915.06 148.648C916.832 149.67 918.935 150.182 921.366 150.182C922.98 150.182 924.457 149.955 925.798 149.5C927.139 149.045 928.287 148.364 929.241 147.455C930.196 146.545 930.923 145.432 931.423 144.114L944.855 145C944.173 148.227 942.776 151.045 940.662 153.455C938.571 155.841 935.866 157.705 932.548 159.045C929.253 160.364 925.446 161.023 921.128 161.023ZM998.207 122.568L984.912 123.386C984.685 122.25 984.196 121.227 983.446 120.318C982.696 119.386 981.707 118.648 980.48 118.102C979.276 117.534 977.832 117.25 976.151 117.25C973.901 117.25 972.003 117.727 970.457 118.682C968.912 119.614 968.139 120.864 968.139 122.432C968.139 123.682 968.639 124.739 969.639 125.602C970.639 126.466 972.355 127.159 974.787 127.682L984.264 129.591C989.355 130.636 993.151 132.318 995.651 134.636C998.151 136.955 999.401 140 999.401 143.773C999.401 147.205 998.389 150.216 996.366 152.807C994.366 155.398 991.616 157.42 988.116 158.875C984.639 160.307 980.628 161.023 976.082 161.023C969.151 161.023 963.628 159.58 959.514 156.693C955.423 153.784 953.026 149.83 952.321 144.83L966.605 144.08C967.037 146.193 968.082 147.807 969.741 148.92C971.401 150.011 973.526 150.557 976.116 150.557C978.662 150.557 980.707 150.068 982.253 149.091C983.821 148.091 984.616 146.807 984.639 145.239C984.616 143.92 984.06 142.841 982.969 142C981.878 141.136 980.196 140.477 977.923 140.023L968.855 138.216C963.741 137.193 959.935 135.42 957.435 132.898C954.957 130.375 953.719 127.159 953.719 123.25C953.719 119.886 954.628 116.989 956.446 114.557C958.287 112.125 960.866 110.25 964.185 108.932C967.526 107.614 971.435 106.955 975.912 106.955C982.526 106.955 987.73 108.352 991.526 111.148C995.344 113.943 997.571 117.75 998.207 122.568ZM1052.11 122.568L1038.82 123.386C1038.59 122.25 1038.1 121.227 1037.35 120.318C1036.6 119.386 1035.61 118.648 1034.39 118.102C1033.18 117.534 1031.74 117.25 1030.06 117.25C1027.81 117.25 1025.91 117.727 1024.36 118.682C1022.82 119.614 1022.05 120.864 1022.05 122.432C1022.05 123.682 1022.55 124.739 1023.55 125.602C1024.55 126.466 1026.26 127.159 1028.69 127.682L1038.17 129.591C1043.26 130.636 1047.06 132.318 1049.56 134.636C1052.06 136.955 1053.31 140 1053.31 143.773C1053.31 147.205 1052.3 150.216 1050.27 152.807C1048.27 155.398 1045.52 157.42 1042.02 158.875C1038.55 160.307 1034.53 161.023 1029.99 161.023C1023.06 161.023 1017.53 159.58 1013.42 156.693C1009.33 153.784 1006.93 149.83 1006.23 144.83L1020.51 144.08C1020.94 146.193 1021.99 147.807 1023.65 148.92C1025.31 150.011 1027.43 150.557 1030.02 150.557C1032.57 150.557 1034.61 150.068 1036.16 149.091C1037.73 148.091 1038.52 146.807 1038.55 145.239C1038.52 143.92 1037.97 142.841 1036.88 142C1035.78 141.136 1034.1 140.477 1031.83 140.023L1022.76 138.216C1017.65 137.193 1013.84 135.42 1011.34 132.898C1008.86 130.375 1007.62 127.159 1007.62 123.25C1007.62 119.886 1008.53 116.989 1010.35 114.557C1012.19 112.125 1014.77 110.25 1018.09 108.932C1021.43 107.614 1025.34 106.955 1029.82 106.955C1036.43 106.955 1041.64 108.352 1045.43 111.148C1049.25 113.943 1051.48 117.75 1052.11 122.568Z" fill="black"/>
</svg>
