<svg width="2000" height="250" viewBox="0 0 2000 250" fill="none" xmlns="http://www.w3.org/2000/svg">
<rect width="2000" height="250" rx="48" fill="#FDE200"/>
<path d="M148.121 63.9112C151.892 65.4726 155.384 67.6248 158.466 70.2816C159.177 70.895 159.867 71.5353 160.534 72.2014C164.086 75.7527 166.905 79.9687 168.827 84.6086C170.75 89.2486 171.74 94.2217 171.74 99.2439C171.74 103.776 170.934 108.269 169.363 112.512H171.74C176.764 112.512 181.739 113.501 186.381 115.423C190.153 116.985 193.644 119.137 196.726 121.794C197.438 122.407 198.127 123.047 198.794 123.714C202.347 127.265 205.165 131.481 207.088 136.121C209.01 140.761 210 145.734 210 150.756C210 155.778 209.01 160.751 207.088 165.391C205.165 170.031 202.347 174.247 198.794 177.799C198.127 178.465 197.438 179.105 196.726 179.718C193.644 182.375 190.152 184.527 186.381 186.089C181.739 188.011 176.764 189 171.74 189H146.753C139.854 189 134.26 183.409 134.26 176.512C134.26 169.615 139.854 164.024 146.753 164.024H171.74L171.74 164.028C173.483 164.028 175.21 163.684 176.821 163.017C178.431 162.35 179.895 161.373 181.128 160.14C182.361 158.908 183.339 157.445 184.006 155.835C184.673 154.225 185.017 152.499 185.017 150.756C185.017 149.013 184.673 147.288 184.006 145.677C183.339 144.067 182.361 142.604 181.128 141.372C179.895 140.139 178.432 139.162 176.821 138.495C175.21 137.828 173.483 137.485 171.74 137.485V137.488H108.493C101.593 137.488 96 131.897 96 125C96 118.103 101.593 112.512 108.493 112.512H133.767C135.413 112.477 137.038 112.135 138.56 111.505C140.171 110.838 141.635 109.861 142.868 108.628C144.101 107.396 145.079 105.933 145.746 104.323C146.413 102.713 146.757 100.987 146.757 99.2439C146.757 97.5011 146.413 95.7753 145.746 94.1652C145.079 92.555 144.101 91.092 142.868 89.8596C141.635 88.6272 140.171 87.6497 138.56 86.9827C136.95 86.3158 135.223 85.9725 133.479 85.9725V85.9756H108.493C101.593 85.9756 96 80.3846 96 73.4878C96 66.591 101.593 61 108.493 61H133.479C138.504 61 143.479 61.9892 148.121 63.9112Z" fill="black"/>
<path d="M96 176.512C96 169.615 101.593 164.024 108.493 164.024H115.521C122.42 164.024 128.014 169.615 128.014 176.512C128.014 183.409 122.42 189 115.521 189H108.493C101.593 189 96 183.409 96 176.512Z" fill="black"/>
<path d="M278.318 129.727V160H263.795V90.1818H277.909V116.875H278.523C279.705 113.784 281.614 111.364 284.25 109.614C286.886 107.841 290.193 106.955 294.17 106.955C297.807 106.955 300.977 107.75 303.682 109.341C306.409 110.909 308.523 113.17 310.023 116.125C311.545 119.057 312.295 122.568 312.273 126.659V160H297.75V129.25C297.773 126.023 296.955 123.511 295.295 121.716C293.659 119.92 291.364 119.023 288.409 119.023C286.432 119.023 284.682 119.443 283.159 120.284C281.659 121.125 280.477 122.352 279.614 123.966C278.773 125.557 278.341 127.477 278.318 129.727ZM347.565 161.023C342.179 161.023 337.543 159.932 333.656 157.75C329.793 155.545 326.815 152.432 324.724 148.409C322.634 144.364 321.588 139.58 321.588 134.057C321.588 128.67 322.634 123.943 324.724 119.875C326.815 115.807 329.759 112.636 333.554 110.364C337.372 108.091 341.849 106.955 346.986 106.955C350.44 106.955 353.656 107.511 356.634 108.625C359.634 109.716 362.247 111.364 364.474 113.568C366.724 115.773 368.474 118.545 369.724 121.886C370.974 125.205 371.599 129.091 371.599 133.545V137.534H327.384V128.534H357.929C357.929 126.443 357.474 124.591 356.565 122.977C355.656 121.364 354.395 120.102 352.781 119.193C351.19 118.261 349.338 117.795 347.224 117.795C345.02 117.795 343.065 118.307 341.361 119.33C339.679 120.33 338.361 121.682 337.406 123.386C336.452 125.068 335.963 126.943 335.94 129.011V137.568C335.94 140.159 336.418 142.398 337.372 144.284C338.349 146.17 339.724 147.625 341.497 148.648C343.27 149.67 345.372 150.182 347.804 150.182C349.418 150.182 350.895 149.955 352.236 149.5C353.577 149.045 354.724 148.364 355.679 147.455C356.634 146.545 357.361 145.432 357.861 144.114L371.293 145C370.611 148.227 369.213 151.045 367.099 153.455C365.009 155.841 362.304 157.705 358.986 159.045C355.69 160.364 351.884 161.023 347.565 161.023ZM396.009 160.989C392.668 160.989 389.69 160.409 387.077 159.25C384.463 158.068 382.395 156.33 380.872 154.034C379.372 151.716 378.622 148.83 378.622 145.375C378.622 142.466 379.156 140.023 380.224 138.045C381.293 136.068 382.747 134.477 384.588 133.273C386.429 132.068 388.52 131.159 390.861 130.545C393.224 129.932 395.702 129.5 398.293 129.25C401.338 128.932 403.793 128.636 405.656 128.364C407.52 128.068 408.872 127.636 409.713 127.068C410.554 126.5 410.974 125.659 410.974 124.545V124.341C410.974 122.182 410.293 120.511 408.929 119.33C407.588 118.148 405.679 117.557 403.202 117.557C400.588 117.557 398.509 118.136 396.963 119.295C395.418 120.432 394.395 121.864 393.895 123.591L380.463 122.5C381.145 119.318 382.486 116.568 384.486 114.25C386.486 111.909 389.065 110.114 392.224 108.864C395.406 107.591 399.088 106.955 403.27 106.955C406.179 106.955 408.963 107.295 411.622 107.977C414.304 108.659 416.679 109.716 418.747 111.148C420.838 112.58 422.486 114.42 423.69 116.67C424.895 118.898 425.497 121.568 425.497 124.682V160H411.724V152.739H411.315C410.474 154.375 409.349 155.818 407.94 157.068C406.531 158.295 404.838 159.261 402.861 159.966C400.884 160.648 398.599 160.989 396.009 160.989ZM400.168 150.966C402.304 150.966 404.19 150.545 405.827 149.705C407.463 148.841 408.747 147.682 409.679 146.227C410.611 144.773 411.077 143.125 411.077 141.284V135.727C410.622 136.023 409.997 136.295 409.202 136.545C408.429 136.773 407.554 136.989 406.577 137.193C405.599 137.375 404.622 137.545 403.645 137.705C402.668 137.841 401.781 137.966 400.986 138.08C399.281 138.33 397.793 138.727 396.52 139.273C395.247 139.818 394.259 140.557 393.554 141.489C392.849 142.398 392.497 143.534 392.497 144.898C392.497 146.875 393.213 148.386 394.645 149.432C396.099 150.455 397.94 150.966 400.168 150.966ZM456.06 160.852C452.082 160.852 448.48 159.83 445.253 157.784C442.048 155.716 439.503 152.682 437.616 148.682C435.753 144.659 434.821 139.727 434.821 133.886C434.821 127.886 435.787 122.898 437.719 118.92C439.651 114.92 442.219 111.932 445.423 109.955C448.651 107.955 452.185 106.955 456.026 106.955C458.957 106.955 461.401 107.455 463.355 108.455C465.332 109.432 466.923 110.659 468.128 112.136C469.355 113.591 470.287 115.023 470.923 116.432H471.366V90.1818H485.855V160H471.537V151.614H470.923C470.241 153.068 469.276 154.511 468.026 155.943C466.798 157.352 465.196 158.523 463.219 159.455C461.264 160.386 458.878 160.852 456.06 160.852ZM460.662 149.295C463.003 149.295 464.98 148.659 466.594 147.386C468.23 146.091 469.48 144.284 470.344 141.966C471.23 139.648 471.673 136.932 471.673 133.818C471.673 130.705 471.241 128 470.378 125.705C469.514 123.409 468.264 121.636 466.628 120.386C464.991 119.136 463.003 118.511 460.662 118.511C458.276 118.511 456.264 119.159 454.628 120.455C452.991 121.75 451.753 123.545 450.912 125.841C450.071 128.136 449.651 130.795 449.651 133.818C449.651 136.864 450.071 139.557 450.912 141.898C451.776 144.216 453.014 146.034 454.628 147.352C456.264 148.648 458.276 149.295 460.662 149.295ZM530.42 125.568V137.091H498.58V125.568H530.42ZM542.795 160V107.636H556.636V116.875H557.25C558.341 113.807 560.159 111.386 562.705 109.614C565.25 107.841 568.295 106.955 571.841 106.955C575.432 106.955 578.489 107.852 581.011 109.648C583.534 111.42 585.216 113.83 586.057 116.875H586.602C587.67 113.875 589.602 111.477 592.398 109.682C595.216 107.864 598.545 106.955 602.386 106.955C607.273 106.955 611.239 108.511 614.284 111.625C617.352 114.716 618.886 119.102 618.886 124.784V160H604.398V127.648C604.398 124.739 603.625 122.557 602.08 121.102C600.534 119.648 598.602 118.92 596.284 118.92C593.648 118.92 591.591 119.761 590.114 121.443C588.636 123.102 587.898 125.295 587.898 128.023V160H573.818V127.341C573.818 124.773 573.08 122.727 571.602 121.205C570.148 119.682 568.227 118.92 565.841 118.92C564.227 118.92 562.773 119.33 561.477 120.148C560.205 120.943 559.193 122.068 558.443 123.523C557.693 124.955 557.318 126.636 557.318 128.568V160H542.795ZM654.222 161.023C648.835 161.023 644.199 159.932 640.312 157.75C636.449 155.545 633.472 152.432 631.381 148.409C629.29 144.364 628.244 139.58 628.244 134.057C628.244 128.67 629.29 123.943 631.381 119.875C633.472 115.807 636.415 112.636 640.21 110.364C644.028 108.091 648.506 106.955 653.642 106.955C657.097 106.955 660.313 107.511 663.29 108.625C666.29 109.716 668.903 111.364 671.131 113.568C673.381 115.773 675.131 118.545 676.381 121.886C677.631 125.205 678.256 129.091 678.256 133.545V137.534H634.04V128.534H664.585C664.585 126.443 664.131 124.591 663.222 122.977C662.313 121.364 661.051 120.102 659.438 119.193C657.847 118.261 655.994 117.795 653.881 117.795C651.676 117.795 649.722 118.307 648.017 119.33C646.335 120.33 645.017 121.682 644.062 123.386C643.108 125.068 642.619 126.943 642.597 129.011V137.568C642.597 140.159 643.074 142.398 644.028 144.284C645.006 146.17 646.381 147.625 648.153 148.648C649.926 149.67 652.028 150.182 654.46 150.182C656.074 150.182 657.551 149.955 658.892 149.5C660.233 149.045 661.381 148.364 662.335 147.455C663.29 146.545 664.017 145.432 664.517 144.114L677.949 145C677.267 148.227 675.869 151.045 673.756 153.455C671.665 155.841 668.96 157.705 665.642 159.045C662.347 160.364 658.54 161.023 654.222 161.023ZM715.585 107.636V118.545H684.051V107.636H715.585ZM691.21 95.0909H705.733V143.909C705.733 145.25 705.938 146.295 706.347 147.045C706.756 147.773 707.324 148.284 708.051 148.58C708.801 148.875 709.665 149.023 710.642 149.023C711.324 149.023 712.006 148.966 712.688 148.852C713.369 148.716 713.892 148.614 714.256 148.545L716.54 159.352C715.813 159.58 714.79 159.841 713.472 160.136C712.153 160.455 710.551 160.648 708.665 160.716C705.165 160.852 702.097 160.386 699.46 159.318C696.847 158.25 694.813 156.591 693.358 154.341C691.903 152.091 691.188 149.25 691.21 145.818V95.0909ZM739.977 160.989C736.636 160.989 733.659 160.409 731.045 159.25C728.432 158.068 726.364 156.33 724.841 154.034C723.341 151.716 722.591 148.83 722.591 145.375C722.591 142.466 723.125 140.023 724.193 138.045C725.261 136.068 726.716 134.477 728.557 133.273C730.398 132.068 732.489 131.159 734.83 130.545C737.193 129.932 739.67 129.5 742.261 129.25C745.307 128.932 747.761 128.636 749.625 128.364C751.489 128.068 752.841 127.636 753.682 127.068C754.523 126.5 754.943 125.659 754.943 124.545V124.341C754.943 122.182 754.261 120.511 752.898 119.33C751.557 118.148 749.648 117.557 747.17 117.557C744.557 117.557 742.477 118.136 740.932 119.295C739.386 120.432 738.364 121.864 737.864 123.591L724.432 122.5C725.114 119.318 726.455 116.568 728.455 114.25C730.455 111.909 733.034 110.114 736.193 108.864C739.375 107.591 743.057 106.955 747.239 106.955C750.148 106.955 752.932 107.295 755.591 107.977C758.273 108.659 760.648 109.716 762.716 111.148C764.807 112.58 766.455 114.42 767.659 116.67C768.864 118.898 769.466 121.568 769.466 124.682V160H755.693V152.739H755.284C754.443 154.375 753.318 155.818 751.909 157.068C750.5 158.295 748.807 159.261 746.83 159.966C744.852 160.648 742.568 160.989 739.977 160.989ZM744.136 150.966C746.273 150.966 748.159 150.545 749.795 149.705C751.432 148.841 752.716 147.682 753.648 146.227C754.58 144.773 755.045 143.125 755.045 141.284V135.727C754.591 136.023 753.966 136.295 753.17 136.545C752.398 136.773 751.523 136.989 750.545 137.193C749.568 137.375 748.591 137.545 747.614 137.705C746.636 137.841 745.75 137.966 744.955 138.08C743.25 138.33 741.761 138.727 740.489 139.273C739.216 139.818 738.227 140.557 737.523 141.489C736.818 142.398 736.466 143.534 736.466 144.898C736.466 146.875 737.182 148.386 738.614 149.432C740.068 150.455 741.909 150.966 744.136 150.966ZM800.028 160.852C796.051 160.852 792.449 159.83 789.222 157.784C786.017 155.716 783.472 152.682 781.585 148.682C779.722 144.659 778.79 139.727 778.79 133.886C778.79 127.886 779.756 122.898 781.688 118.92C783.619 114.92 786.188 111.932 789.392 109.955C792.619 107.955 796.153 106.955 799.994 106.955C802.926 106.955 805.369 107.455 807.324 108.455C809.301 109.432 810.892 110.659 812.097 112.136C813.324 113.591 814.256 115.023 814.892 116.432H815.335V90.1818H829.824V160H815.506V151.614H814.892C814.21 153.068 813.244 154.511 811.994 155.943C810.767 157.352 809.165 158.523 807.188 159.455C805.233 160.386 802.847 160.852 800.028 160.852ZM804.631 149.295C806.972 149.295 808.949 148.659 810.562 147.386C812.199 146.091 813.449 144.284 814.312 141.966C815.199 139.648 815.642 136.932 815.642 133.818C815.642 130.705 815.21 128 814.347 125.705C813.483 123.409 812.233 121.636 810.597 120.386C808.96 119.136 806.972 118.511 804.631 118.511C802.244 118.511 800.233 119.159 798.597 120.455C796.96 121.75 795.722 123.545 794.881 125.841C794.04 128.136 793.619 130.795 793.619 133.818C793.619 136.864 794.04 139.557 794.881 141.898C795.744 144.216 796.983 146.034 798.597 147.352C800.233 148.648 802.244 149.295 804.631 149.295ZM856.696 160.989C853.355 160.989 850.378 160.409 847.764 159.25C845.151 158.068 843.082 156.33 841.56 154.034C840.06 151.716 839.31 148.83 839.31 145.375C839.31 142.466 839.844 140.023 840.912 138.045C841.98 136.068 843.435 134.477 845.276 133.273C847.116 132.068 849.207 131.159 851.548 130.545C853.912 129.932 856.389 129.5 858.98 129.25C862.026 128.932 864.48 128.636 866.344 128.364C868.207 128.068 869.56 127.636 870.401 127.068C871.241 126.5 871.662 125.659 871.662 124.545V124.341C871.662 122.182 870.98 120.511 869.616 119.33C868.276 118.148 866.366 117.557 863.889 117.557C861.276 117.557 859.196 118.136 857.651 119.295C856.105 120.432 855.082 121.864 854.582 123.591L841.151 122.5C841.832 119.318 843.173 116.568 845.173 114.25C847.173 111.909 849.753 110.114 852.912 108.864C856.094 107.591 859.776 106.955 863.957 106.955C866.866 106.955 869.651 107.295 872.31 107.977C874.991 108.659 877.366 109.716 879.435 111.148C881.526 112.58 883.173 114.42 884.378 116.67C885.582 118.898 886.185 121.568 886.185 124.682V160H872.412V152.739H872.003C871.162 154.375 870.037 155.818 868.628 157.068C867.219 158.295 865.526 159.261 863.548 159.966C861.571 160.648 859.287 160.989 856.696 160.989ZM860.855 150.966C862.991 150.966 864.878 150.545 866.514 149.705C868.151 148.841 869.435 147.682 870.366 146.227C871.298 144.773 871.764 143.125 871.764 141.284V135.727C871.31 136.023 870.685 136.295 869.889 136.545C869.116 136.773 868.241 136.989 867.264 137.193C866.287 137.375 865.31 137.545 864.332 137.705C863.355 137.841 862.469 137.966 861.673 138.08C859.969 138.33 858.48 138.727 857.207 139.273C855.935 139.818 854.946 140.557 854.241 141.489C853.537 142.398 853.185 143.534 853.185 144.898C853.185 146.875 853.901 148.386 855.332 149.432C856.787 150.455 858.628 150.966 860.855 150.966ZM925.304 107.636V118.545H893.77V107.636H925.304ZM900.929 95.0909H915.452V143.909C915.452 145.25 915.656 146.295 916.065 147.045C916.474 147.773 917.043 148.284 917.77 148.58C918.52 148.875 919.384 149.023 920.361 149.023C921.043 149.023 921.724 148.966 922.406 148.852C923.088 148.716 923.611 148.614 923.974 148.545L926.259 159.352C925.531 159.58 924.509 159.841 923.19 160.136C921.872 160.455 920.27 160.648 918.384 160.716C914.884 160.852 911.815 160.386 909.179 159.318C906.565 158.25 904.531 156.591 903.077 154.341C901.622 152.091 900.906 149.25 900.929 145.818V95.0909ZM949.696 160.989C946.355 160.989 943.378 160.409 940.764 159.25C938.151 158.068 936.082 156.33 934.56 154.034C933.06 151.716 932.31 148.83 932.31 145.375C932.31 142.466 932.844 140.023 933.912 138.045C934.98 136.068 936.435 134.477 938.276 133.273C940.116 132.068 942.207 131.159 944.548 130.545C946.912 129.932 949.389 129.5 951.98 129.25C955.026 128.932 957.48 128.636 959.344 128.364C961.207 128.068 962.56 127.636 963.401 127.068C964.241 126.5 964.662 125.659 964.662 124.545V124.341C964.662 122.182 963.98 120.511 962.616 119.33C961.276 118.148 959.366 117.557 956.889 117.557C954.276 117.557 952.196 118.136 950.651 119.295C949.105 120.432 948.082 121.864 947.582 123.591L934.151 122.5C934.832 119.318 936.173 116.568 938.173 114.25C940.173 111.909 942.753 110.114 945.912 108.864C949.094 107.591 952.776 106.955 956.957 106.955C959.866 106.955 962.651 107.295 965.31 107.977C967.991 108.659 970.366 109.716 972.435 111.148C974.526 112.58 976.173 114.42 977.378 116.67C978.582 118.898 979.185 121.568 979.185 124.682V160H965.412V152.739H965.003C964.162 154.375 963.037 155.818 961.628 157.068C960.219 158.295 958.526 159.261 956.548 159.966C954.571 160.648 952.287 160.989 949.696 160.989ZM953.855 150.966C955.991 150.966 957.878 150.545 959.514 149.705C961.151 148.841 962.435 147.682 963.366 146.227C964.298 144.773 964.764 143.125 964.764 141.284V135.727C964.31 136.023 963.685 136.295 962.889 136.545C962.116 136.773 961.241 136.989 960.264 137.193C959.287 137.375 958.31 137.545 957.332 137.705C956.355 137.841 955.469 137.966 954.673 138.08C952.969 138.33 951.48 138.727 950.207 139.273C948.935 139.818 947.946 140.557 947.241 141.489C946.537 142.398 946.185 143.534 946.185 144.898C946.185 146.875 946.901 148.386 948.332 149.432C949.787 150.455 951.628 150.966 953.855 150.966Z" fill="black"/>
</svg>
