<svg width="2000" height="250" viewBox="0 0 2000 250" fill="none" xmlns="http://www.w3.org/2000/svg">
<rect width="2000" height="250" rx="48" fill="#FDE200"/>
<path d="M148.121 63.9112C151.892 65.4726 155.384 67.6248 158.466 70.2816C159.177 70.895 159.867 71.5353 160.534 72.2014C164.086 75.7527 166.905 79.9687 168.827 84.6086C170.75 89.2486 171.74 94.2217 171.74 99.2439C171.74 103.776 170.934 108.269 169.363 112.512H171.74C176.764 112.512 181.739 113.501 186.381 115.423C190.153 116.985 193.644 119.137 196.726 121.794C197.438 122.407 198.127 123.047 198.794 123.714C202.347 127.265 205.165 131.481 207.088 136.121C209.01 140.761 210 145.734 210 150.756C210 155.778 209.01 160.751 207.088 165.391C205.165 170.031 202.347 174.247 198.794 177.799C198.127 178.465 197.438 179.105 196.726 179.718C193.644 182.375 190.152 184.527 186.381 186.089C181.739 188.011 176.764 189 171.74 189H146.753C139.854 189 134.26 183.409 134.26 176.512C134.26 169.615 139.854 164.024 146.753 164.024H171.74L171.74 164.028C173.483 164.028 175.21 163.684 176.821 163.017C178.431 162.35 179.895 161.373 181.128 160.14C182.361 158.908 183.339 157.445 184.006 155.835C184.673 154.225 185.017 152.499 185.017 150.756C185.017 149.013 184.673 147.288 184.006 145.677C183.339 144.067 182.361 142.604 181.128 141.372C179.895 140.139 178.432 139.162 176.821 138.495C175.21 137.828 173.483 137.485 171.74 137.485V137.488H108.493C101.593 137.488 96 131.897 96 125C96 118.103 101.593 112.512 108.493 112.512H133.767C135.413 112.477 137.038 112.135 138.56 111.505C140.171 110.838 141.635 109.861 142.868 108.628C144.101 107.396 145.079 105.933 145.746 104.323C146.413 102.713 146.757 100.987 146.757 99.2439C146.757 97.5011 146.413 95.7753 145.746 94.1652C145.079 92.555 144.101 91.092 142.868 89.8596C141.635 88.6272 140.171 87.6497 138.56 86.9827C136.95 86.3158 135.223 85.9725 133.479 85.9725V85.9756H108.493C101.593 85.9756 96 80.3846 96 73.4878C96 66.591 101.593 61 108.493 61H133.479C138.504 61 143.479 61.9892 148.121 63.9112Z" fill="black"/>
<path d="M96 176.512C96 169.615 101.593 164.024 108.493 164.024H115.521C122.42 164.024 128.014 169.615 128.014 176.512C128.014 183.409 122.42 189 115.521 189H108.493C101.593 189 96 183.409 96 176.512Z" fill="black"/>
<path d="M312.614 107.636L294.307 160H277.943L259.636 107.636H274.977L285.852 145.102H286.398L297.239 107.636H312.614ZM333.571 160.989C330.23 160.989 327.253 160.409 324.639 159.25C322.026 158.068 319.957 156.33 318.435 154.034C316.935 151.716 316.185 148.83 316.185 145.375C316.185 142.466 316.719 140.023 317.787 138.045C318.855 136.068 320.31 134.477 322.151 133.273C323.991 132.068 326.082 131.159 328.423 130.545C330.787 129.932 333.264 129.5 335.855 129.25C338.901 128.932 341.355 128.636 343.219 128.364C345.082 128.068 346.435 127.636 347.276 127.068C348.116 126.5 348.537 125.659 348.537 124.545V124.341C348.537 122.182 347.855 120.511 346.491 119.33C345.151 118.148 343.241 117.557 340.764 117.557C338.151 117.557 336.071 118.136 334.526 119.295C332.98 120.432 331.957 121.864 331.457 123.591L318.026 122.5C318.707 119.318 320.048 116.568 322.048 114.25C324.048 111.909 326.628 110.114 329.787 108.864C332.969 107.591 336.651 106.955 340.832 106.955C343.741 106.955 346.526 107.295 349.185 107.977C351.866 108.659 354.241 109.716 356.31 111.148C358.401 112.58 360.048 114.42 361.253 116.67C362.457 118.898 363.06 121.568 363.06 124.682V160H349.287V152.739H348.878C348.037 154.375 346.912 155.818 345.503 157.068C344.094 158.295 342.401 159.261 340.423 159.966C338.446 160.648 336.162 160.989 333.571 160.989ZM337.73 150.966C339.866 150.966 341.753 150.545 343.389 149.705C345.026 148.841 346.31 147.682 347.241 146.227C348.173 144.773 348.639 143.125 348.639 141.284V135.727C348.185 136.023 347.56 136.295 346.764 136.545C345.991 136.773 345.116 136.989 344.139 137.193C343.162 137.375 342.185 137.545 341.207 137.705C340.23 137.841 339.344 137.966 338.548 138.08C336.844 138.33 335.355 138.727 334.082 139.273C332.81 139.818 331.821 140.557 331.116 141.489C330.412 142.398 330.06 143.534 330.06 144.898C330.06 146.875 330.776 148.386 332.207 149.432C333.662 150.455 335.503 150.966 337.73 150.966ZM388.849 90.1818V160H374.327V90.1818H388.849ZM400.483 160V107.636H415.006V160H400.483ZM407.778 100.886C405.619 100.886 403.767 100.17 402.222 98.7386C400.699 97.2841 399.938 95.5455 399.938 93.5227C399.938 91.5227 400.699 89.8068 402.222 88.375C403.767 86.9205 405.619 86.1932 407.778 86.1932C409.938 86.1932 411.778 86.9205 413.301 88.375C414.847 89.8068 415.619 91.5227 415.619 93.5227C415.619 95.5455 414.847 97.2841 413.301 98.7386C411.778 100.17 409.938 100.886 407.778 100.886ZM445.935 160.852C441.957 160.852 438.355 159.83 435.128 157.784C431.923 155.716 429.378 152.682 427.491 148.682C425.628 144.659 424.696 139.727 424.696 133.886C424.696 127.886 425.662 122.898 427.594 118.92C429.526 114.92 432.094 111.932 435.298 109.955C438.526 107.955 442.06 106.955 445.901 106.955C448.832 106.955 451.276 107.455 453.23 108.455C455.207 109.432 456.798 110.659 458.003 112.136C459.23 113.591 460.162 115.023 460.798 116.432H461.241V90.1818H475.73V160H461.412V151.614H460.798C460.116 153.068 459.151 154.511 457.901 155.943C456.673 157.352 455.071 158.523 453.094 159.455C451.139 160.386 448.753 160.852 445.935 160.852ZM450.537 149.295C452.878 149.295 454.855 148.659 456.469 147.386C458.105 146.091 459.355 144.284 460.219 141.966C461.105 139.648 461.548 136.932 461.548 133.818C461.548 130.705 461.116 128 460.253 125.705C459.389 123.409 458.139 121.636 456.503 120.386C454.866 119.136 452.878 118.511 450.537 118.511C448.151 118.511 446.139 119.159 444.503 120.455C442.866 121.75 441.628 123.545 440.787 125.841C439.946 128.136 439.526 130.795 439.526 133.818C439.526 136.864 439.946 139.557 440.787 141.898C441.651 144.216 442.889 146.034 444.503 147.352C446.139 148.648 448.151 149.295 450.537 149.295ZM502.602 160.989C499.261 160.989 496.284 160.409 493.67 159.25C491.057 158.068 488.989 156.33 487.466 154.034C485.966 151.716 485.216 148.83 485.216 145.375C485.216 142.466 485.75 140.023 486.818 138.045C487.886 136.068 489.341 134.477 491.182 133.273C493.023 132.068 495.114 131.159 497.455 130.545C499.818 129.932 502.295 129.5 504.886 129.25C507.932 128.932 510.386 128.636 512.25 128.364C514.114 128.068 515.466 127.636 516.307 127.068C517.148 126.5 517.568 125.659 517.568 124.545V124.341C517.568 122.182 516.886 120.511 515.523 119.33C514.182 118.148 512.273 117.557 509.795 117.557C507.182 117.557 505.102 118.136 503.557 119.295C502.011 120.432 500.989 121.864 500.489 123.591L487.057 122.5C487.739 119.318 489.08 116.568 491.08 114.25C493.08 111.909 495.659 110.114 498.818 108.864C502 107.591 505.682 106.955 509.864 106.955C512.773 106.955 515.557 107.295 518.216 107.977C520.898 108.659 523.273 109.716 525.341 111.148C527.432 112.58 529.08 114.42 530.284 116.67C531.489 118.898 532.091 121.568 532.091 124.682V160H518.318V152.739H517.909C517.068 154.375 515.943 155.818 514.534 157.068C513.125 158.295 511.432 159.261 509.455 159.966C507.477 160.648 505.193 160.989 502.602 160.989ZM506.761 150.966C508.898 150.966 510.784 150.545 512.42 149.705C514.057 148.841 515.341 147.682 516.273 146.227C517.205 144.773 517.67 143.125 517.67 141.284V135.727C517.216 136.023 516.591 136.295 515.795 136.545C515.023 136.773 514.148 136.989 513.17 137.193C512.193 137.375 511.216 137.545 510.239 137.705C509.261 137.841 508.375 137.966 507.58 138.08C505.875 138.33 504.386 138.727 503.114 139.273C501.841 139.818 500.852 140.557 500.148 141.489C499.443 142.398 499.091 143.534 499.091 144.898C499.091 146.875 499.807 148.386 501.239 149.432C502.693 150.455 504.534 150.966 506.761 150.966ZM571.21 107.636V118.545H539.676V107.636H571.21ZM546.835 95.0909H561.358V143.909C561.358 145.25 561.563 146.295 561.972 147.045C562.381 147.773 562.949 148.284 563.676 148.58C564.426 148.875 565.29 149.023 566.267 149.023C566.949 149.023 567.631 148.966 568.312 148.852C568.994 148.716 569.517 148.614 569.881 148.545L572.165 159.352C571.438 159.58 570.415 159.841 569.097 160.136C567.778 160.455 566.176 160.648 564.29 160.716C560.79 160.852 557.722 160.386 555.085 159.318C552.472 158.25 550.438 156.591 548.983 154.341C547.528 152.091 546.813 149.25 546.835 145.818V95.0909ZM603.972 161.023C598.585 161.023 593.949 159.932 590.062 157.75C586.199 155.545 583.222 152.432 581.131 148.409C579.04 144.364 577.994 139.58 577.994 134.057C577.994 128.67 579.04 123.943 581.131 119.875C583.222 115.807 586.165 112.636 589.96 110.364C593.778 108.091 598.256 106.955 603.392 106.955C606.847 106.955 610.063 107.511 613.04 108.625C616.04 109.716 618.653 111.364 620.881 113.568C623.131 115.773 624.881 118.545 626.131 121.886C627.381 125.205 628.006 129.091 628.006 133.545V137.534H583.79V128.534H614.335C614.335 126.443 613.881 124.591 612.972 122.977C612.063 121.364 610.801 120.102 609.188 119.193C607.597 118.261 605.744 117.795 603.631 117.795C601.426 117.795 599.472 118.307 597.767 119.33C596.085 120.33 594.767 121.682 593.812 123.386C592.858 125.068 592.369 126.943 592.347 129.011V137.568C592.347 140.159 592.824 142.398 593.778 144.284C594.756 146.17 596.131 147.625 597.903 148.648C599.676 149.67 601.778 150.182 604.21 150.182C605.824 150.182 607.301 149.955 608.642 149.5C609.983 149.045 611.131 148.364 612.085 147.455C613.04 146.545 613.767 145.432 614.267 144.114L627.699 145C627.017 148.227 625.619 151.045 623.506 153.455C621.415 155.841 618.71 157.705 615.392 159.045C612.097 160.364 608.29 161.023 603.972 161.023ZM652.006 129.727V160H637.483V107.636H651.324V116.875H651.938C653.097 113.83 655.04 111.42 657.767 109.648C660.494 107.852 663.801 106.955 667.688 106.955C671.324 106.955 674.494 107.75 677.199 109.341C679.903 110.932 682.006 113.205 683.506 116.159C685.006 119.091 685.756 122.591 685.756 126.659V160H671.233V129.25C671.256 126.045 670.438 123.545 668.778 121.75C667.119 119.932 664.835 119.023 661.926 119.023C659.972 119.023 658.244 119.443 656.744 120.284C655.267 121.125 654.108 122.352 653.267 123.966C652.449 125.557 652.028 127.477 652.006 129.727ZM744.145 107.636L725.838 160H709.474L691.168 107.636H706.509L717.384 145.102H717.929L728.77 107.636H744.145Z" fill="black"/>
</svg>
