<svg width="2000" height="250" viewBox="0 0 2000 250" fill="none" xmlns="http://www.w3.org/2000/svg">
<rect width="2000" height="250" rx="48" fill="#FDE200"/>
<path d="M148.121 63.9112C151.892 65.4726 155.384 67.6248 158.466 70.2816C159.177 70.895 159.867 71.5353 160.534 72.2014C164.086 75.7527 166.905 79.9687 168.827 84.6086C170.75 89.2486 171.74 94.2217 171.74 99.2439C171.74 103.776 170.934 108.269 169.363 112.512H171.74C176.764 112.512 181.739 113.501 186.381 115.423C190.153 116.985 193.644 119.137 196.726 121.794C197.438 122.407 198.127 123.047 198.794 123.714C202.347 127.265 205.165 131.481 207.088 136.121C209.01 140.761 210 145.734 210 150.756C210 155.778 209.01 160.751 207.088 165.391C205.165 170.031 202.347 174.247 198.794 177.799C198.127 178.465 197.438 179.105 196.726 179.718C193.644 182.375 190.152 184.527 186.381 186.089C181.739 188.011 176.764 189 171.74 189H146.753C139.854 189 134.26 183.409 134.26 176.512C134.26 169.615 139.854 164.024 146.753 164.024H171.74L171.74 164.028C173.483 164.028 175.21 163.684 176.821 163.017C178.431 162.35 179.895 161.373 181.128 160.14C182.361 158.908 183.339 157.445 184.006 155.835C184.673 154.225 185.017 152.499 185.017 150.756C185.017 149.013 184.673 147.288 184.006 145.677C183.339 144.067 182.361 142.604 181.128 141.372C179.895 140.139 178.432 139.162 176.821 138.495C175.21 137.828 173.483 137.485 171.74 137.485V137.488H108.493C101.593 137.488 96 131.897 96 125C96 118.103 101.593 112.512 108.493 112.512H133.767C135.413 112.477 137.038 112.135 138.56 111.505C140.171 110.838 141.635 109.861 142.868 108.628C144.101 107.396 145.079 105.933 145.746 104.323C146.413 102.713 146.757 100.987 146.757 99.2439C146.757 97.5011 146.413 95.7753 145.746 94.1652C145.079 92.555 144.101 91.092 142.868 89.8596C141.635 88.6272 140.171 87.6497 138.56 86.9827C136.95 86.3158 135.223 85.9725 133.479 85.9725V85.9756H108.493C101.593 85.9756 96 80.3846 96 73.4878C96 66.591 101.593 61 108.493 61H133.479C138.504 61 143.479 61.9892 148.121 63.9112Z" fill="black"/>
<path d="M96 176.512C96 169.615 101.593 164.024 108.493 164.024H115.521C122.42 164.024 128.014 169.615 128.014 176.512C128.014 183.409 122.42 189 115.521 189H108.493C101.593 189 96 183.409 96 176.512Z" fill="black"/>
<path d="M275.932 107.636L285.545 125.943L295.398 107.636H310.295L295.125 133.818L310.705 160H295.875L285.545 141.898L275.386 160H260.386L275.932 133.818L260.932 107.636H275.932ZM318.92 160V107.636H332.761V116.875H333.375C334.466 113.807 336.284 111.386 338.83 109.614C341.375 107.841 344.42 106.955 347.966 106.955C351.557 106.955 354.614 107.852 357.136 109.648C359.659 111.42 361.341 113.83 362.182 116.875H362.727C363.795 113.875 365.727 111.477 368.523 109.682C371.341 107.864 374.67 106.955 378.511 106.955C383.398 106.955 387.364 108.511 390.409 111.625C393.477 114.716 395.011 119.102 395.011 124.784V160H380.523V127.648C380.523 124.739 379.75 122.557 378.205 121.102C376.659 119.648 374.727 118.92 372.409 118.92C369.773 118.92 367.716 119.761 366.239 121.443C364.761 123.102 364.023 125.295 364.023 128.023V160H349.943V127.341C349.943 124.773 349.205 122.727 347.727 121.205C346.273 119.682 344.352 118.92 341.966 118.92C340.352 118.92 338.898 119.33 337.602 120.148C336.33 120.943 335.318 122.068 334.568 123.523C333.818 124.955 333.443 126.636 333.443 128.568V160H318.92ZM421.006 90.1818V160H406.483V90.1818H421.006ZM465.264 125.568V137.091H433.423V125.568H465.264ZM505.491 107.636V118.545H473.957V107.636H505.491ZM481.116 95.0909H495.639V143.909C495.639 145.25 495.844 146.295 496.253 147.045C496.662 147.773 497.23 148.284 497.957 148.58C498.707 148.875 499.571 149.023 500.548 149.023C501.23 149.023 501.912 148.966 502.594 148.852C503.276 148.716 503.798 148.614 504.162 148.545L506.446 159.352C505.719 159.58 504.696 159.841 503.378 160.136C502.06 160.455 500.457 160.648 498.571 160.716C495.071 160.852 492.003 160.386 489.366 159.318C486.753 158.25 484.719 156.591 483.264 154.341C481.81 152.091 481.094 149.25 481.116 145.818V95.0909ZM538.048 161.023C532.753 161.023 528.173 159.898 524.31 157.648C520.469 155.375 517.503 152.216 515.412 148.17C513.321 144.102 512.276 139.386 512.276 134.023C512.276 128.614 513.321 123.886 515.412 119.841C517.503 115.773 520.469 112.614 524.31 110.364C528.173 108.091 532.753 106.955 538.048 106.955C543.344 106.955 547.912 108.091 551.753 110.364C555.616 112.614 558.594 115.773 560.685 119.841C562.776 123.886 563.821 128.614 563.821 134.023C563.821 139.386 562.776 144.102 560.685 148.17C558.594 152.216 555.616 155.375 551.753 157.648C547.912 159.898 543.344 161.023 538.048 161.023ZM538.116 149.773C540.526 149.773 542.537 149.091 544.151 147.727C545.764 146.341 546.98 144.455 547.798 142.068C548.639 139.682 549.06 136.966 549.06 133.92C549.06 130.875 548.639 128.159 547.798 125.773C546.98 123.386 545.764 121.5 544.151 120.114C542.537 118.727 540.526 118.034 538.116 118.034C535.685 118.034 533.639 118.727 531.98 120.114C530.344 121.5 529.105 123.386 528.264 125.773C527.446 128.159 527.037 130.875 527.037 133.92C527.037 136.966 527.446 139.682 528.264 142.068C529.105 144.455 530.344 146.341 531.98 147.727C533.639 149.091 535.685 149.773 538.116 149.773ZM586.423 144.932L586.457 127.511H588.571L605.344 107.636H622.014L599.48 133.955H596.037L586.423 144.932ZM573.264 160V90.1818H587.787V160H573.264ZM605.991 160L590.582 137.193L600.264 126.932L623.003 160H605.991ZM650.847 161.023C645.46 161.023 640.824 159.932 636.938 157.75C633.074 155.545 630.097 152.432 628.006 148.409C625.915 144.364 624.869 139.58 624.869 134.057C624.869 128.67 625.915 123.943 628.006 119.875C630.097 115.807 633.04 112.636 636.835 110.364C640.653 108.091 645.131 106.955 650.267 106.955C653.722 106.955 656.938 107.511 659.915 108.625C662.915 109.716 665.528 111.364 667.756 113.568C670.006 115.773 671.756 118.545 673.006 121.886C674.256 125.205 674.881 129.091 674.881 133.545V137.534H630.665V128.534H661.21C661.21 126.443 660.756 124.591 659.847 122.977C658.938 121.364 657.676 120.102 656.062 119.193C654.472 118.261 652.619 117.795 650.506 117.795C648.301 117.795 646.347 118.307 644.642 119.33C642.96 120.33 641.642 121.682 640.688 123.386C639.733 125.068 639.244 126.943 639.222 129.011V137.568C639.222 140.159 639.699 142.398 640.653 144.284C641.631 146.17 643.006 147.625 644.778 148.648C646.551 149.67 648.653 150.182 651.085 150.182C652.699 150.182 654.176 149.955 655.517 149.5C656.858 149.045 658.006 148.364 658.96 147.455C659.915 146.545 660.642 145.432 661.142 144.114L674.574 145C673.892 148.227 672.494 151.045 670.381 153.455C668.29 155.841 665.585 157.705 662.267 159.045C658.972 160.364 655.165 161.023 650.847 161.023ZM698.881 129.727V160H684.358V107.636H698.199V116.875H698.812C699.972 113.83 701.915 111.42 704.642 109.648C707.369 107.852 710.676 106.955 714.562 106.955C718.199 106.955 721.369 107.75 724.074 109.341C726.778 110.932 728.881 113.205 730.381 116.159C731.881 119.091 732.631 122.591 732.631 126.659V160H718.108V129.25C718.131 126.045 717.313 123.545 715.653 121.75C713.994 119.932 711.71 119.023 708.801 119.023C706.847 119.023 705.119 119.443 703.619 120.284C702.142 121.125 700.983 122.352 700.142 123.966C699.324 125.557 698.903 127.477 698.881 129.727ZM744.077 160V107.636H758.599V160H744.077ZM751.372 100.886C749.213 100.886 747.361 100.17 745.815 98.7386C744.293 97.2841 743.531 95.5455 743.531 93.5227C743.531 91.5227 744.293 89.8068 745.815 88.375C747.361 86.9205 749.213 86.1932 751.372 86.1932C753.531 86.1932 755.372 86.9205 756.895 88.375C758.44 89.8068 759.213 91.5227 759.213 93.5227C759.213 95.5455 758.44 97.2841 756.895 98.7386C755.372 100.17 753.531 100.886 751.372 100.886ZM769.96 160V151.341L795.597 119.602V119.227H770.847V107.636H813.085V117.08L789.017 148.034V148.409H813.972V160H769.96ZM847.44 161.023C842.054 161.023 837.418 159.932 833.531 157.75C829.668 155.545 826.69 152.432 824.599 148.409C822.509 144.364 821.463 139.58 821.463 134.057C821.463 128.67 822.509 123.943 824.599 119.875C826.69 115.807 829.634 112.636 833.429 110.364C837.247 108.091 841.724 106.955 846.861 106.955C850.315 106.955 853.531 107.511 856.509 108.625C859.509 109.716 862.122 111.364 864.349 113.568C866.599 115.773 868.349 118.545 869.599 121.886C870.849 125.205 871.474 129.091 871.474 133.545V137.534H827.259V128.534H857.804C857.804 126.443 857.349 124.591 856.44 122.977C855.531 121.364 854.27 120.102 852.656 119.193C851.065 118.261 849.213 117.795 847.099 117.795C844.895 117.795 842.94 118.307 841.236 119.33C839.554 120.33 838.236 121.682 837.281 123.386C836.327 125.068 835.838 126.943 835.815 129.011V137.568C835.815 140.159 836.293 142.398 837.247 144.284C838.224 146.17 839.599 147.625 841.372 148.648C843.145 149.67 845.247 150.182 847.679 150.182C849.293 150.182 850.77 149.955 852.111 149.5C853.452 149.045 854.599 148.364 855.554 147.455C856.509 146.545 857.236 145.432 857.736 144.114L871.168 145C870.486 148.227 869.088 151.045 866.974 153.455C864.884 155.841 862.179 157.705 858.861 159.045C855.565 160.364 851.759 161.023 847.44 161.023ZM880.952 160V107.636H895.031V116.773H895.577C896.531 113.523 898.134 111.068 900.384 109.409C902.634 107.727 905.224 106.886 908.156 106.886C908.884 106.886 909.668 106.932 910.509 107.023C911.349 107.114 912.088 107.239 912.724 107.398V120.284C912.043 120.08 911.099 119.898 909.895 119.739C908.69 119.58 907.588 119.5 906.588 119.5C904.452 119.5 902.543 119.966 900.861 120.898C899.202 121.807 897.884 123.08 896.906 124.716C895.952 126.352 895.474 128.239 895.474 130.375V160H880.952Z" fill="black"/>
</svg>
