<svg width="2000" height="250" viewBox="0 0 2000 250" fill="none" xmlns="http://www.w3.org/2000/svg">
<rect width="2000" height="250" rx="48" fill="#FDE200"/>
<path d="M148.121 63.9112C151.892 65.4726 155.384 67.6248 158.466 70.2816C159.177 70.895 159.867 71.5353 160.534 72.2014C164.086 75.7527 166.905 79.9687 168.827 84.6086C170.75 89.2486 171.74 94.2217 171.74 99.2439C171.74 103.776 170.934 108.269 169.363 112.512H171.74C176.764 112.512 181.739 113.501 186.381 115.423C190.153 116.985 193.644 119.137 196.726 121.794C197.438 122.407 198.127 123.047 198.794 123.714C202.347 127.265 205.165 131.481 207.088 136.121C209.01 140.761 210 145.734 210 150.756C210 155.778 209.01 160.751 207.088 165.391C205.165 170.031 202.347 174.247 198.794 177.799C198.127 178.465 197.438 179.105 196.726 179.718C193.644 182.375 190.152 184.527 186.381 186.089C181.739 188.011 176.764 189 171.74 189H146.753C139.854 189 134.26 183.409 134.26 176.512C134.26 169.615 139.854 164.024 146.753 164.024H171.74L171.74 164.028C173.483 164.028 175.21 163.684 176.821 163.017C178.431 162.35 179.895 161.373 181.128 160.14C182.361 158.908 183.339 157.445 184.006 155.835C184.673 154.225 185.017 152.499 185.017 150.756C185.017 149.013 184.673 147.288 184.006 145.677C183.339 144.067 182.361 142.604 181.128 141.372C179.895 140.139 178.432 139.162 176.821 138.495C175.21 137.828 173.483 137.485 171.74 137.485V137.488H108.493C101.593 137.488 96 131.897 96 125C96 118.103 101.593 112.512 108.493 112.512H133.767C135.413 112.477 137.038 112.135 138.56 111.505C140.171 110.838 141.635 109.861 142.868 108.628C144.101 107.396 145.079 105.933 145.746 104.323C146.413 102.713 146.757 100.987 146.757 99.2439C146.757 97.5011 146.413 95.7753 145.746 94.1652C145.079 92.555 144.101 91.092 142.868 89.8596C141.635 88.6272 140.171 87.6497 138.56 86.9827C136.95 86.3158 135.223 85.9725 133.479 85.9725V85.9756H108.493C101.593 85.9756 96 80.3846 96 73.4878C96 66.591 101.593 61 108.493 61H133.479C138.504 61 143.479 61.9892 148.121 63.9112Z" fill="black"/>
<path d="M96 176.512C96 169.615 101.593 164.024 108.493 164.024H115.521C122.42 164.024 128.014 169.615 128.014 176.512C128.014 183.409 122.42 189 115.521 189H108.493C101.593 189 96 183.409 96 176.512Z" fill="black"/>
<path d="M287.659 161.023C282.273 161.023 277.636 159.932 273.75 157.75C269.886 155.545 266.909 152.432 264.818 148.409C262.727 144.364 261.682 139.58 261.682 134.057C261.682 128.67 262.727 123.943 264.818 119.875C266.909 115.807 269.852 112.636 273.648 110.364C277.466 108.091 281.943 106.955 287.08 106.955C290.534 106.955 293.75 107.511 296.727 108.625C299.727 109.716 302.341 111.364 304.568 113.568C306.818 115.773 308.568 118.545 309.818 121.886C311.068 125.205 311.693 129.091 311.693 133.545V137.534H267.477V128.534H298.023C298.023 126.443 297.568 124.591 296.659 122.977C295.75 121.364 294.489 120.102 292.875 119.193C291.284 118.261 289.432 117.795 287.318 117.795C285.114 117.795 283.159 118.307 281.455 119.33C279.773 120.33 278.455 121.682 277.5 123.386C276.545 125.068 276.057 126.943 276.034 129.011V137.568C276.034 140.159 276.511 142.398 277.466 144.284C278.443 146.17 279.818 147.625 281.591 148.648C283.364 149.67 285.466 150.182 287.898 150.182C289.511 150.182 290.989 149.955 292.33 149.5C293.67 149.045 294.818 148.364 295.773 147.455C296.727 146.545 297.455 145.432 297.955 144.114L311.386 145C310.705 148.227 309.307 151.045 307.193 153.455C305.102 155.841 302.398 157.705 299.08 159.045C295.784 160.364 291.977 161.023 287.659 161.023ZM321.17 179.636V107.636H335.489V116.432H336.136C336.773 115.023 337.693 113.591 338.898 112.136C340.125 110.659 341.716 109.432 343.67 108.455C345.648 107.455 348.102 106.955 351.034 106.955C354.852 106.955 358.375 107.955 361.602 109.955C364.83 111.932 367.409 114.92 369.341 118.92C371.273 122.898 372.239 127.886 372.239 133.886C372.239 139.727 371.295 144.659 369.409 148.682C367.545 152.682 365 155.716 361.773 157.784C358.568 159.83 354.977 160.852 351 160.852C348.182 160.852 345.784 160.386 343.807 159.455C341.852 158.523 340.25 157.352 339 155.943C337.75 154.511 336.795 153.068 336.136 151.614H335.693V179.636H321.17ZM335.386 133.818C335.386 136.932 335.818 139.648 336.682 141.966C337.545 144.284 338.795 146.091 340.432 147.386C342.068 148.659 344.057 149.295 346.398 149.295C348.761 149.295 350.761 148.648 352.398 147.352C354.034 146.034 355.273 144.216 356.114 141.898C356.977 139.557 357.409 136.864 357.409 133.818C357.409 130.795 356.989 128.136 356.148 125.841C355.307 123.545 354.068 121.75 352.432 120.455C350.795 119.159 348.784 118.511 346.398 118.511C344.034 118.511 342.034 119.136 340.398 120.386C338.784 121.636 337.545 123.409 336.682 125.705C335.818 128 335.386 130.705 335.386 133.818ZM381.92 160V107.636H396V116.773H396.545C397.5 113.523 399.102 111.068 401.352 109.409C403.602 107.727 406.193 106.886 409.125 106.886C409.852 106.886 410.636 106.932 411.477 107.023C412.318 107.114 413.057 107.239 413.693 107.398V120.284C413.011 120.08 412.068 119.898 410.864 119.739C409.659 119.58 408.557 119.5 407.557 119.5C405.42 119.5 403.511 119.966 401.83 120.898C400.17 121.807 398.852 123.08 397.875 124.716C396.92 126.352 396.443 128.239 396.443 130.375V160H381.92ZM442.628 161.023C437.241 161.023 432.605 159.932 428.719 157.75C424.855 155.545 421.878 152.432 419.787 148.409C417.696 144.364 416.651 139.58 416.651 134.057C416.651 128.67 417.696 123.943 419.787 119.875C421.878 115.807 424.821 112.636 428.616 110.364C432.435 108.091 436.912 106.955 442.048 106.955C445.503 106.955 448.719 107.511 451.696 108.625C454.696 109.716 457.31 111.364 459.537 113.568C461.787 115.773 463.537 118.545 464.787 121.886C466.037 125.205 466.662 129.091 466.662 133.545V137.534H422.446V128.534H452.991C452.991 126.443 452.537 124.591 451.628 122.977C450.719 121.364 449.457 120.102 447.844 119.193C446.253 118.261 444.401 117.795 442.287 117.795C440.082 117.795 438.128 118.307 436.423 119.33C434.741 120.33 433.423 121.682 432.469 123.386C431.514 125.068 431.026 126.943 431.003 129.011V137.568C431.003 140.159 431.48 142.398 432.435 144.284C433.412 146.17 434.787 147.625 436.56 148.648C438.332 149.67 440.435 150.182 442.866 150.182C444.48 150.182 445.957 149.955 447.298 149.5C448.639 149.045 449.787 148.364 450.741 147.455C451.696 146.545 452.423 145.432 452.923 144.114L466.355 145C465.673 148.227 464.276 151.045 462.162 153.455C460.071 155.841 457.366 157.705 454.048 159.045C450.753 160.364 446.946 161.023 442.628 161.023ZM490.662 90.1818V160H476.139V90.1818H490.662ZM534.92 125.568V137.091H503.08V125.568H534.92ZM570.955 161.023C565.591 161.023 560.977 159.886 557.114 157.614C553.273 155.318 550.318 152.136 548.25 148.068C546.205 144 545.182 139.318 545.182 134.023C545.182 128.659 546.216 123.955 548.284 119.909C550.375 115.841 553.341 112.67 557.182 110.398C561.023 108.102 565.591 106.955 570.886 106.955C575.455 106.955 579.455 107.784 582.886 109.443C586.318 111.102 589.034 113.432 591.034 116.432C593.034 119.432 594.136 122.955 594.341 127H580.636C580.25 124.386 579.227 122.284 577.568 120.693C575.932 119.08 573.784 118.273 571.125 118.273C568.875 118.273 566.909 118.886 565.227 120.114C563.568 121.318 562.273 123.08 561.341 125.398C560.409 127.716 559.943 130.523 559.943 133.818C559.943 137.159 560.398 140 561.307 142.341C562.239 144.682 563.545 146.466 565.227 147.693C566.909 148.92 568.875 149.534 571.125 149.534C572.784 149.534 574.273 149.193 575.591 148.511C576.932 147.83 578.034 146.841 578.898 145.545C579.784 144.227 580.364 142.648 580.636 140.807H594.341C594.114 144.807 593.023 148.33 591.068 151.375C589.136 154.398 586.466 156.761 583.057 158.466C579.648 160.17 575.614 161.023 570.955 161.023ZM618.162 90.1818V160H603.639V90.1818H618.162ZM629.795 160V107.636H644.318V160H629.795ZM637.091 100.886C634.932 100.886 633.08 100.17 631.534 98.7386C630.011 97.2841 629.25 95.5455 629.25 93.5227C629.25 91.5227 630.011 89.8068 631.534 88.375C633.08 86.9205 634.932 86.1932 637.091 86.1932C639.25 86.1932 641.091 86.9205 642.614 88.375C644.159 89.8068 644.932 91.5227 644.932 93.5227C644.932 95.5455 644.159 97.2841 642.614 98.7386C641.091 100.17 639.25 100.886 637.091 100.886ZM679.815 161.023C674.429 161.023 669.793 159.932 665.906 157.75C662.043 155.545 659.065 152.432 656.974 148.409C654.884 144.364 653.838 139.58 653.838 134.057C653.838 128.67 654.884 123.943 656.974 119.875C659.065 115.807 662.009 112.636 665.804 110.364C669.622 108.091 674.099 106.955 679.236 106.955C682.69 106.955 685.906 107.511 688.884 108.625C691.884 109.716 694.497 111.364 696.724 113.568C698.974 115.773 700.724 118.545 701.974 121.886C703.224 125.205 703.849 129.091 703.849 133.545V137.534H659.634V128.534H690.179C690.179 126.443 689.724 124.591 688.815 122.977C687.906 121.364 686.645 120.102 685.031 119.193C683.44 118.261 681.588 117.795 679.474 117.795C677.27 117.795 675.315 118.307 673.611 119.33C671.929 120.33 670.611 121.682 669.656 123.386C668.702 125.068 668.213 126.943 668.19 129.011V137.568C668.19 140.159 668.668 142.398 669.622 144.284C670.599 146.17 671.974 147.625 673.747 148.648C675.52 149.67 677.622 150.182 680.054 150.182C681.668 150.182 683.145 149.955 684.486 149.5C685.827 149.045 686.974 148.364 687.929 147.455C688.884 146.545 689.611 145.432 690.111 144.114L703.543 145C702.861 148.227 701.463 151.045 699.349 153.455C697.259 155.841 694.554 157.705 691.236 159.045C687.94 160.364 684.134 161.023 679.815 161.023ZM727.849 129.727V160H713.327V107.636H727.168V116.875H727.781C728.94 113.83 730.884 111.42 733.611 109.648C736.338 107.852 739.645 106.955 743.531 106.955C747.168 106.955 750.338 107.75 753.043 109.341C755.747 110.932 757.849 113.205 759.349 116.159C760.849 119.091 761.599 122.591 761.599 126.659V160H747.077V129.25C747.099 126.045 746.281 123.545 744.622 121.75C742.963 119.932 740.679 119.023 737.77 119.023C735.815 119.023 734.088 119.443 732.588 120.284C731.111 121.125 729.952 122.352 729.111 123.966C728.293 125.557 727.872 127.477 727.849 129.727ZM800.898 107.636V118.545H769.364V107.636H800.898ZM776.523 95.0909H791.045V143.909C791.045 145.25 791.25 146.295 791.659 147.045C792.068 147.773 792.636 148.284 793.364 148.58C794.114 148.875 794.977 149.023 795.955 149.023C796.636 149.023 797.318 148.966 798 148.852C798.682 148.716 799.205 148.614 799.568 148.545L801.852 159.352C801.125 159.58 800.102 159.841 798.784 160.136C797.466 160.455 795.864 160.648 793.977 160.716C790.477 160.852 787.409 160.386 784.773 159.318C782.159 158.25 780.125 156.591 778.67 154.341C777.216 152.091 776.5 149.25 776.523 145.818V95.0909Z" fill="black"/>
</svg>
