<svg width="2000" height="250" viewBox="0 0 2000 250" fill="none" xmlns="http://www.w3.org/2000/svg">
<rect width="2000" height="250" rx="48" fill="#FDE200"/>
<path d="M148.121 63.9112C151.892 65.4726 155.384 67.6248 158.466 70.2816C159.177 70.895 159.867 71.5353 160.534 72.2014C164.086 75.7527 166.905 79.9687 168.827 84.6086C170.75 89.2486 171.74 94.2217 171.74 99.2439C171.74 103.776 170.934 108.269 169.363 112.512H171.74C176.764 112.512 181.739 113.501 186.381 115.423C190.153 116.985 193.644 119.137 196.726 121.794C197.438 122.407 198.127 123.047 198.794 123.714C202.347 127.265 205.165 131.481 207.088 136.121C209.01 140.761 210 145.734 210 150.756C210 155.778 209.01 160.751 207.088 165.391C205.165 170.031 202.347 174.247 198.794 177.799C198.127 178.465 197.438 179.105 196.726 179.718C193.644 182.375 190.152 184.527 186.381 186.089C181.739 188.011 176.764 189 171.74 189H146.753C139.854 189 134.26 183.409 134.26 176.512C134.26 169.615 139.854 164.024 146.753 164.024H171.74L171.74 164.028C173.483 164.028 175.21 163.684 176.821 163.017C178.431 162.35 179.895 161.373 181.128 160.14C182.361 158.908 183.339 157.445 184.006 155.835C184.673 154.225 185.017 152.499 185.017 150.756C185.017 149.013 184.673 147.288 184.006 145.677C183.339 144.067 182.361 142.604 181.128 141.372C179.895 140.139 178.432 139.162 176.821 138.495C175.21 137.828 173.483 137.485 171.74 137.485V137.488H108.493C101.593 137.488 96 131.897 96 125C96 118.103 101.593 112.512 108.493 112.512H133.767C135.413 112.477 137.038 112.135 138.56 111.505C140.171 110.838 141.635 109.861 142.868 108.628C144.101 107.396 145.079 105.933 145.746 104.323C146.413 102.713 146.757 100.987 146.757 99.2439C146.757 97.5011 146.413 95.7753 145.746 94.1652C145.079 92.555 144.101 91.092 142.868 89.8596C141.635 88.6272 140.171 87.6497 138.56 86.9827C136.95 86.3158 135.223 85.9725 133.479 85.9725V85.9756H108.493C101.593 85.9756 96 80.3846 96 73.4878C96 66.591 101.593 61 108.493 61H133.479C138.504 61 143.479 61.9892 148.121 63.9112Z" fill="black"/>
<path d="M96 176.512C96 169.615 101.593 164.024 108.493 164.024H115.521C122.42 164.024 128.014 169.615 128.014 176.512C128.014 183.409 122.42 189 115.521 189H108.493C101.593 189 96 183.409 96 176.512Z" fill="black"/>
<path d="M307.364 122.568L294.068 123.386C293.841 122.25 293.352 121.227 292.602 120.318C291.852 119.386 290.864 118.648 289.636 118.102C288.432 117.534 286.989 117.25 285.307 117.25C283.057 117.25 281.159 117.727 279.614 118.682C278.068 119.614 277.295 120.864 277.295 122.432C277.295 123.682 277.795 124.739 278.795 125.602C279.795 126.466 281.511 127.159 283.943 127.682L293.42 129.591C298.511 130.636 302.307 132.318 304.807 134.636C307.307 136.955 308.557 140 308.557 143.773C308.557 147.205 307.545 150.216 305.523 152.807C303.523 155.398 300.773 157.42 297.273 158.875C293.795 160.307 289.784 161.023 285.239 161.023C278.307 161.023 272.784 159.58 268.67 156.693C264.58 153.784 262.182 149.83 261.477 144.83L275.761 144.08C276.193 146.193 277.239 147.807 278.898 148.92C280.557 150.011 282.682 150.557 285.273 150.557C287.818 150.557 289.864 150.068 291.409 149.091C292.977 148.091 293.773 146.807 293.795 145.239C293.773 143.92 293.216 142.841 292.125 142C291.034 141.136 289.352 140.477 287.08 140.023L278.011 138.216C272.898 137.193 269.091 135.42 266.591 132.898C264.114 130.375 262.875 127.159 262.875 123.25C262.875 119.886 263.784 116.989 265.602 114.557C267.443 112.125 270.023 110.25 273.341 108.932C276.682 107.614 280.591 106.955 285.068 106.955C291.682 106.955 296.886 108.352 300.682 111.148C304.5 113.943 306.727 117.75 307.364 122.568ZM345.554 107.636V118.545H314.02V107.636H345.554ZM321.179 95.0909H335.702V143.909C335.702 145.25 335.906 146.295 336.315 147.045C336.724 147.773 337.293 148.284 338.02 148.58C338.77 148.875 339.634 149.023 340.611 149.023C341.293 149.023 341.974 148.966 342.656 148.852C343.338 148.716 343.861 148.614 344.224 148.545L346.509 159.352C345.781 159.58 344.759 159.841 343.44 160.136C342.122 160.455 340.52 160.648 338.634 160.716C335.134 160.852 332.065 160.386 329.429 159.318C326.815 158.25 324.781 156.591 323.327 154.341C321.872 152.091 321.156 149.25 321.179 145.818V95.0909ZM363.98 179.636C362.139 179.636 360.412 179.489 358.798 179.193C357.207 178.92 355.889 178.568 354.844 178.136L358.116 167.295C359.821 167.818 361.355 168.102 362.719 168.148C364.105 168.193 365.298 167.875 366.298 167.193C367.321 166.511 368.151 165.352 368.787 163.716L369.639 161.5L350.855 107.636H366.128L376.969 146.091H377.514L388.457 107.636H403.832L383.48 165.659C382.503 168.477 381.173 170.932 379.491 173.023C377.832 175.136 375.73 176.761 373.185 177.898C370.639 179.057 367.571 179.636 363.98 179.636ZM425.787 90.1818V160H411.264V90.1818H425.787ZM461.284 161.023C455.898 161.023 451.261 159.932 447.375 157.75C443.511 155.545 440.534 152.432 438.443 148.409C436.352 144.364 435.307 139.58 435.307 134.057C435.307 128.67 436.352 123.943 438.443 119.875C440.534 115.807 443.477 112.636 447.273 110.364C451.091 108.091 455.568 106.955 460.705 106.955C464.159 106.955 467.375 107.511 470.352 108.625C473.352 109.716 475.966 111.364 478.193 113.568C480.443 115.773 482.193 118.545 483.443 121.886C484.693 125.205 485.318 129.091 485.318 133.545V137.534H441.102V128.534H471.648C471.648 126.443 471.193 124.591 470.284 122.977C469.375 121.364 468.114 120.102 466.5 119.193C464.909 118.261 463.057 117.795 460.943 117.795C458.739 117.795 456.784 118.307 455.08 119.33C453.398 120.33 452.08 121.682 451.125 123.386C450.17 125.068 449.682 126.943 449.659 129.011V137.568C449.659 140.159 450.136 142.398 451.091 144.284C452.068 146.17 453.443 147.625 455.216 148.648C456.989 149.67 459.091 150.182 461.523 150.182C463.136 150.182 464.614 149.955 465.955 149.5C467.295 149.045 468.443 148.364 469.398 147.455C470.352 146.545 471.08 145.432 471.58 144.114L485.011 145C484.33 148.227 482.932 151.045 480.818 153.455C478.727 155.841 476.023 157.705 472.705 159.045C469.409 160.364 465.602 161.023 461.284 161.023ZM527.42 125.568V137.091H495.58V125.568H527.42ZM563.386 180.727C558.682 180.727 554.648 180.08 551.284 178.784C547.943 177.511 545.284 175.773 543.307 173.568C541.33 171.364 540.045 168.886 539.455 166.136L552.886 164.33C553.295 165.375 553.943 166.352 554.83 167.261C555.716 168.17 556.886 168.898 558.341 169.443C559.818 170.011 561.614 170.295 563.727 170.295C566.886 170.295 569.489 169.523 571.534 167.977C573.602 166.455 574.636 163.898 574.636 160.307V150.727H574.023C573.386 152.182 572.432 153.557 571.159 154.852C569.886 156.148 568.25 157.205 566.25 158.023C564.25 158.841 561.864 159.25 559.091 159.25C555.159 159.25 551.58 158.341 548.352 156.523C545.148 154.682 542.591 151.875 540.682 148.102C538.795 144.307 537.852 139.511 537.852 133.716C537.852 127.784 538.818 122.83 540.75 118.852C542.682 114.875 545.25 111.898 548.455 109.92C551.682 107.943 555.216 106.955 559.057 106.955C561.989 106.955 564.443 107.455 566.42 108.455C568.398 109.432 569.989 110.659 571.193 112.136C572.42 113.591 573.364 115.023 574.023 116.432H574.568V107.636H588.989V160.511C588.989 164.966 587.898 168.693 585.716 171.693C583.534 174.693 580.511 176.943 576.648 178.443C572.807 179.966 568.386 180.727 563.386 180.727ZM563.693 148.341C566.034 148.341 568.011 147.761 569.625 146.602C571.261 145.42 572.511 143.739 573.375 141.557C574.261 139.352 574.705 136.716 574.705 133.648C574.705 130.58 574.273 127.92 573.409 125.67C572.545 123.398 571.295 121.636 569.659 120.386C568.023 119.136 566.034 118.511 563.693 118.511C561.307 118.511 559.295 119.159 557.659 120.455C556.023 121.727 554.784 123.5 553.943 125.773C553.102 128.045 552.682 130.67 552.682 133.648C552.682 136.67 553.102 139.284 553.943 141.489C554.807 143.67 556.045 145.364 557.659 146.568C559.295 147.75 561.307 148.341 563.693 148.341ZM634.125 137.705V107.636H648.648V160H634.705V150.489H634.159C632.977 153.557 631.011 156.023 628.261 157.886C625.534 159.75 622.205 160.682 618.273 160.682C614.773 160.682 611.693 159.886 609.034 158.295C606.375 156.705 604.295 154.443 602.795 151.511C601.318 148.58 600.568 145.068 600.545 140.977V107.636H615.068V138.386C615.091 141.477 615.92 143.92 617.557 145.716C619.193 147.511 621.386 148.409 624.136 148.409C625.886 148.409 627.523 148.011 629.045 147.216C630.568 146.398 631.795 145.193 632.727 143.602C633.682 142.011 634.148 140.045 634.125 137.705ZM660.264 160V107.636H674.787V160H660.264ZM667.56 100.886C665.401 100.886 663.548 100.17 662.003 98.7386C660.48 97.2841 659.719 95.5455 659.719 93.5227C659.719 91.5227 660.48 89.8068 662.003 88.375C663.548 86.9205 665.401 86.1932 667.56 86.1932C669.719 86.1932 671.56 86.9205 673.082 88.375C674.628 89.8068 675.401 91.5227 675.401 93.5227C675.401 95.5455 674.628 97.2841 673.082 98.7386C671.56 100.17 669.719 100.886 667.56 100.886ZM705.716 160.852C701.739 160.852 698.136 159.83 694.909 157.784C691.705 155.716 689.159 152.682 687.273 148.682C685.409 144.659 684.477 139.727 684.477 133.886C684.477 127.886 685.443 122.898 687.375 118.92C689.307 114.92 691.875 111.932 695.08 109.955C698.307 107.955 701.841 106.955 705.682 106.955C708.614 106.955 711.057 107.455 713.011 108.455C714.989 109.432 716.58 110.659 717.784 112.136C719.011 113.591 719.943 115.023 720.58 116.432H721.023V90.1818H735.511V160H721.193V151.614H720.58C719.898 153.068 718.932 154.511 717.682 155.943C716.455 157.352 714.852 158.523 712.875 159.455C710.92 160.386 708.534 160.852 705.716 160.852ZM710.318 149.295C712.659 149.295 714.636 148.659 716.25 147.386C717.886 146.091 719.136 144.284 720 141.966C720.886 139.648 721.33 136.932 721.33 133.818C721.33 130.705 720.898 128 720.034 125.705C719.17 123.409 717.92 121.636 716.284 120.386C714.648 119.136 712.659 118.511 710.318 118.511C707.932 118.511 705.92 119.159 704.284 120.455C702.648 121.75 701.409 123.545 700.568 125.841C699.727 128.136 699.307 130.795 699.307 133.818C699.307 136.864 699.727 139.557 700.568 141.898C701.432 144.216 702.67 146.034 704.284 147.352C705.92 148.648 707.932 149.295 710.318 149.295ZM771.315 161.023C765.929 161.023 761.293 159.932 757.406 157.75C753.543 155.545 750.565 152.432 748.474 148.409C746.384 144.364 745.338 139.58 745.338 134.057C745.338 128.67 746.384 123.943 748.474 119.875C750.565 115.807 753.509 112.636 757.304 110.364C761.122 108.091 765.599 106.955 770.736 106.955C774.19 106.955 777.406 107.511 780.384 108.625C783.384 109.716 785.997 111.364 788.224 113.568C790.474 115.773 792.224 118.545 793.474 121.886C794.724 125.205 795.349 129.091 795.349 133.545V137.534H751.134V128.534H781.679C781.679 126.443 781.224 124.591 780.315 122.977C779.406 121.364 778.145 120.102 776.531 119.193C774.94 118.261 773.088 117.795 770.974 117.795C768.77 117.795 766.815 118.307 765.111 119.33C763.429 120.33 762.111 121.682 761.156 123.386C760.202 125.068 759.713 126.943 759.69 129.011V137.568C759.69 140.159 760.168 142.398 761.122 144.284C762.099 146.17 763.474 147.625 765.247 148.648C767.02 149.67 769.122 150.182 771.554 150.182C773.168 150.182 774.645 149.955 775.986 149.5C777.327 149.045 778.474 148.364 779.429 147.455C780.384 146.545 781.111 145.432 781.611 144.114L795.043 145C794.361 148.227 792.963 151.045 790.849 153.455C788.759 155.841 786.054 157.705 782.736 159.045C779.44 160.364 775.634 161.023 771.315 161.023Z" fill="black"/>
</svg>
