<svg width="2000" height="250" viewBox="0 0 2000 250" fill="none" xmlns="http://www.w3.org/2000/svg">
<rect width="2000" height="250" rx="48" fill="#FDE200"/>
<path d="M148.121 63.9112C151.892 65.4726 155.384 67.6248 158.466 70.2816C159.177 70.895 159.867 71.5353 160.534 72.2014C164.086 75.7527 166.905 79.9687 168.827 84.6086C170.75 89.2486 171.74 94.2217 171.74 99.2439C171.74 103.776 170.934 108.269 169.363 112.512H171.74C176.764 112.512 181.739 113.501 186.381 115.423C190.153 116.985 193.644 119.137 196.726 121.794C197.438 122.407 198.127 123.047 198.794 123.714C202.347 127.265 205.165 131.481 207.088 136.121C209.01 140.761 210 145.734 210 150.756C210 155.778 209.01 160.751 207.088 165.391C205.165 170.031 202.347 174.247 198.794 177.799C198.127 178.465 197.438 179.105 196.726 179.718C193.644 182.375 190.152 184.527 186.381 186.089C181.739 188.011 176.764 189 171.74 189H146.753C139.854 189 134.26 183.409 134.26 176.512C134.26 169.615 139.854 164.024 146.753 164.024H171.74L171.74 164.028C173.483 164.028 175.21 163.684 176.821 163.017C178.431 162.35 179.895 161.373 181.128 160.14C182.361 158.908 183.339 157.445 184.006 155.835C184.673 154.225 185.017 152.499 185.017 150.756C185.017 149.013 184.673 147.288 184.006 145.677C183.339 144.067 182.361 142.604 181.128 141.372C179.895 140.139 178.432 139.162 176.821 138.495C175.21 137.828 173.483 137.485 171.74 137.485V137.488H108.493C101.593 137.488 96 131.897 96 125C96 118.103 101.593 112.512 108.493 112.512H133.767C135.413 112.477 137.038 112.135 138.56 111.505C140.171 110.838 141.635 109.861 142.868 108.628C144.101 107.396 145.079 105.933 145.746 104.323C146.413 102.713 146.757 100.987 146.757 99.2439C146.757 97.5011 146.413 95.7753 145.746 94.1652C145.079 92.555 144.101 91.092 142.868 89.8596C141.635 88.6272 140.171 87.6497 138.56 86.9827C136.95 86.3158 135.223 85.9725 133.479 85.9725V85.9756H108.493C101.593 85.9756 96 80.3846 96 73.4878C96 66.591 101.593 61 108.493 61H133.479C138.504 61 143.479 61.9892 148.121 63.9112Z" fill="black"/>
<path d="M96 176.512C96 169.615 101.593 164.024 108.493 164.024H115.521C122.42 164.024 128.014 169.615 128.014 176.512C128.014 183.409 122.42 189 115.521 189H108.493C101.593 189 96 183.409 96 176.512Z" fill="black"/>
<path d="M263.795 160V107.636H277.875V116.773H278.42C279.375 113.523 280.977 111.068 283.227 109.409C285.477 107.727 288.068 106.886 291 106.886C291.727 106.886 292.511 106.932 293.352 107.023C294.193 107.114 294.932 107.239 295.568 107.398V120.284C294.886 120.08 293.943 119.898 292.739 119.739C291.534 119.58 290.432 119.5 289.432 119.5C287.295 119.5 285.386 119.966 283.705 120.898C282.045 121.807 280.727 123.08 279.75 124.716C278.795 126.352 278.318 128.239 278.318 130.375V160H263.795ZM324.298 161.023C319.003 161.023 314.423 159.898 310.56 157.648C306.719 155.375 303.753 152.216 301.662 148.17C299.571 144.102 298.526 139.386 298.526 134.023C298.526 128.614 299.571 123.886 301.662 119.841C303.753 115.773 306.719 112.614 310.56 110.364C314.423 108.091 319.003 106.955 324.298 106.955C329.594 106.955 334.162 108.091 338.003 110.364C341.866 112.614 344.844 115.773 346.935 119.841C349.026 123.886 350.071 128.614 350.071 134.023C350.071 139.386 349.026 144.102 346.935 148.17C344.844 152.216 341.866 155.375 338.003 157.648C334.162 159.898 329.594 161.023 324.298 161.023ZM324.366 149.773C326.776 149.773 328.787 149.091 330.401 147.727C332.014 146.341 333.23 144.455 334.048 142.068C334.889 139.682 335.31 136.966 335.31 133.92C335.31 130.875 334.889 128.159 334.048 125.773C333.23 123.386 332.014 121.5 330.401 120.114C328.787 118.727 326.776 118.034 324.366 118.034C321.935 118.034 319.889 118.727 318.23 120.114C316.594 121.5 315.355 123.386 314.514 125.773C313.696 128.159 313.287 130.875 313.287 133.92C313.287 136.966 313.696 139.682 314.514 142.068C315.355 144.455 316.594 146.341 318.23 147.727C319.889 149.091 321.935 149.773 324.366 149.773ZM369.776 107.636L379.389 125.943L389.241 107.636H404.139L388.969 133.818L404.548 160H389.719L379.389 141.898L369.23 160H354.23L369.776 133.818L354.776 107.636H369.776ZM412.764 160V107.636H426.605V116.875H427.219C428.31 113.807 430.128 111.386 432.673 109.614C435.219 107.841 438.264 106.955 441.81 106.955C445.401 106.955 448.457 107.852 450.98 109.648C453.503 111.42 455.185 113.83 456.026 116.875H456.571C457.639 113.875 459.571 111.477 462.366 109.682C465.185 107.864 468.514 106.955 472.355 106.955C477.241 106.955 481.207 108.511 484.253 111.625C487.321 114.716 488.855 119.102 488.855 124.784V160H474.366V127.648C474.366 124.739 473.594 122.557 472.048 121.102C470.503 119.648 468.571 118.92 466.253 118.92C463.616 118.92 461.56 119.761 460.082 121.443C458.605 123.102 457.866 125.295 457.866 128.023V160H443.787V127.341C443.787 124.773 443.048 122.727 441.571 121.205C440.116 119.682 438.196 118.92 435.81 118.92C434.196 118.92 432.741 119.33 431.446 120.148C430.173 120.943 429.162 122.068 428.412 123.523C427.662 124.955 427.287 126.636 427.287 128.568V160H412.764ZM514.849 90.1818V160H500.327V90.1818H514.849ZM554.335 107.636V118.545H522.801V107.636H554.335ZM529.96 95.0909H544.483V143.909C544.483 145.25 544.688 146.295 545.097 147.045C545.506 147.773 546.074 148.284 546.801 148.58C547.551 148.875 548.415 149.023 549.392 149.023C550.074 149.023 550.756 148.966 551.438 148.852C552.119 148.716 552.642 148.614 553.006 148.545L555.29 159.352C554.563 159.58 553.54 159.841 552.222 160.136C550.903 160.455 549.301 160.648 547.415 160.716C543.915 160.852 540.847 160.386 538.21 159.318C535.597 158.25 533.563 156.591 532.108 154.341C530.653 152.091 529.938 149.25 529.96 145.818V95.0909ZM563.795 160V107.636H577.875V116.773H578.42C579.375 113.523 580.977 111.068 583.227 109.409C585.477 107.727 588.068 106.886 591 106.886C591.727 106.886 592.511 106.932 593.352 107.023C594.193 107.114 594.932 107.239 595.568 107.398V120.284C594.886 120.08 593.943 119.898 592.739 119.739C591.534 119.58 590.432 119.5 589.432 119.5C587.295 119.5 585.386 119.966 583.705 120.898C582.045 121.807 580.727 123.08 579.75 124.716C578.795 126.352 578.318 128.239 578.318 130.375V160H563.795ZM624.503 161.023C619.116 161.023 614.48 159.932 610.594 157.75C606.73 155.545 603.753 152.432 601.662 148.409C599.571 144.364 598.526 139.58 598.526 134.057C598.526 128.67 599.571 123.943 601.662 119.875C603.753 115.807 606.696 112.636 610.491 110.364C614.31 108.091 618.787 106.955 623.923 106.955C627.378 106.955 630.594 107.511 633.571 108.625C636.571 109.716 639.185 111.364 641.412 113.568C643.662 115.773 645.412 118.545 646.662 121.886C647.912 125.205 648.537 129.091 648.537 133.545V137.534H604.321V128.534H634.866C634.866 126.443 634.412 124.591 633.503 122.977C632.594 121.364 631.332 120.102 629.719 119.193C628.128 118.261 626.276 117.795 624.162 117.795C621.957 117.795 620.003 118.307 618.298 119.33C616.616 120.33 615.298 121.682 614.344 123.386C613.389 125.068 612.901 126.943 612.878 129.011V137.568C612.878 140.159 613.355 142.398 614.31 144.284C615.287 146.17 616.662 147.625 618.435 148.648C620.207 149.67 622.31 150.182 624.741 150.182C626.355 150.182 627.832 149.955 629.173 149.5C630.514 149.045 631.662 148.364 632.616 147.455C633.571 146.545 634.298 145.432 634.798 144.114L648.23 145C647.548 148.227 646.151 151.045 644.037 153.455C641.946 155.841 639.241 157.705 635.923 159.045C632.628 160.364 628.821 161.023 624.503 161.023ZM681.878 161.023C676.491 161.023 671.855 159.932 667.969 157.75C664.105 155.545 661.128 152.432 659.037 148.409C656.946 144.364 655.901 139.58 655.901 134.057C655.901 128.67 656.946 123.943 659.037 119.875C661.128 115.807 664.071 112.636 667.866 110.364C671.685 108.091 676.162 106.955 681.298 106.955C684.753 106.955 687.969 107.511 690.946 108.625C693.946 109.716 696.56 111.364 698.787 113.568C701.037 115.773 702.787 118.545 704.037 121.886C705.287 125.205 705.912 129.091 705.912 133.545V137.534H661.696V128.534H692.241C692.241 126.443 691.787 124.591 690.878 122.977C689.969 121.364 688.707 120.102 687.094 119.193C685.503 118.261 683.651 117.795 681.537 117.795C679.332 117.795 677.378 118.307 675.673 119.33C673.991 120.33 672.673 121.682 671.719 123.386C670.764 125.068 670.276 126.943 670.253 129.011V137.568C670.253 140.159 670.73 142.398 671.685 144.284C672.662 146.17 674.037 147.625 675.81 148.648C677.582 149.67 679.685 150.182 682.116 150.182C683.73 150.182 685.207 149.955 686.548 149.5C687.889 149.045 689.037 148.364 689.991 147.455C690.946 146.545 691.673 145.432 692.173 144.114L705.605 145C704.923 148.227 703.526 151.045 701.412 153.455C699.321 155.841 696.616 157.705 693.298 159.045C690.003 160.364 686.196 161.023 681.878 161.023Z" fill="black"/>
</svg>
