<svg width="2000" height="250" viewBox="0 0 2000 250" fill="none" xmlns="http://www.w3.org/2000/svg">
<rect width="2000" height="250" rx="48" fill="#F0E81A"/>
<path d="M148.121 63.9112C151.892 65.4726 155.384 67.6248 158.466 70.2816C159.177 70.895 159.867 71.5353 160.534 72.2014C164.086 75.7527 166.905 79.9687 168.827 84.6086C170.75 89.2486 171.74 94.2217 171.74 99.2439C171.74 103.776 170.934 108.269 169.363 112.512H171.74C176.764 112.512 181.739 113.501 186.381 115.423C190.153 116.985 193.644 119.137 196.726 121.794C197.438 122.407 198.127 123.047 198.794 123.714C202.347 127.265 205.165 131.481 207.088 136.121C209.01 140.761 210 145.734 210 150.756C210 155.778 209.01 160.751 207.088 165.391C205.165 170.031 202.347 174.247 198.794 177.799C198.127 178.465 197.438 179.105 196.726 179.718C193.644 182.375 190.152 184.527 186.381 186.089C181.739 188.011 176.764 189 171.74 189H146.753C139.854 189 134.26 183.409 134.26 176.512C134.26 169.615 139.854 164.024 146.753 164.024H171.74L171.74 164.028C173.483 164.028 175.21 163.684 176.821 163.017C178.431 162.35 179.895 161.373 181.128 160.14C182.361 158.908 183.339 157.445 184.006 155.835C184.673 154.225 185.017 152.499 185.017 150.756C185.017 149.013 184.673 147.288 184.006 145.677C183.339 144.067 182.361 142.604 181.128 141.372C179.895 140.139 178.432 139.162 176.821 138.495C175.21 137.828 173.483 137.485 171.74 137.485V137.488H108.493C101.593 137.488 96 131.897 96 125C96 118.103 101.593 112.512 108.493 112.512H133.767C135.413 112.477 137.038 112.135 138.56 111.505C140.171 110.838 141.635 109.861 142.868 108.628C144.101 107.396 145.079 105.933 145.746 104.323C146.413 102.713 146.757 100.987 146.757 99.2439C146.757 97.5011 146.413 95.7753 145.746 94.1652C145.079 92.555 144.101 91.092 142.868 89.8596C141.635 88.6272 140.171 87.6497 138.56 86.9827C136.95 86.3158 135.223 85.9725 133.479 85.9725V85.9756H108.493C101.593 85.9756 96 80.3846 96 73.4878C96 66.591 101.593 61 108.493 61H133.479C138.504 61 143.479 61.9892 148.121 63.9112Z" fill="black"/>
<path d="M96 176.512C96 169.615 101.593 164.024 108.493 164.024H115.521C122.42 164.024 128.014 169.615 128.014 176.512C128.014 183.409 122.42 189 115.521 189H108.493C101.593 189 96 183.409 96 176.512Z" fill="black"/>
<path d="M291.955 107.636V118.545H259.636V107.636H291.955ZM267.034 160V103.852C267.034 100.057 267.773 96.9091 269.25 94.4091C270.75 91.9091 272.795 90.0341 275.386 88.7841C277.977 87.5341 280.92 86.9091 284.216 86.9091C286.443 86.9091 288.477 87.0795 290.318 87.4205C292.182 87.7614 293.568 88.0682 294.477 88.3409L291.886 99.25C291.318 99.0682 290.614 98.8977 289.773 98.7386C288.955 98.5795 288.114 98.5 287.25 98.5C285.114 98.5 283.625 99 282.784 100C281.943 100.977 281.523 102.352 281.523 104.125V160H267.034ZM322.815 161.023C317.429 161.023 312.793 159.932 308.906 157.75C305.043 155.545 302.065 152.432 299.974 148.409C297.884 144.364 296.838 139.58 296.838 134.057C296.838 128.67 297.884 123.943 299.974 119.875C302.065 115.807 305.009 112.636 308.804 110.364C312.622 108.091 317.099 106.955 322.236 106.955C325.69 106.955 328.906 107.511 331.884 108.625C334.884 109.716 337.497 111.364 339.724 113.568C341.974 115.773 343.724 118.545 344.974 121.886C346.224 125.205 346.849 129.091 346.849 133.545V137.534H302.634V128.534H333.179C333.179 126.443 332.724 124.591 331.815 122.977C330.906 121.364 329.645 120.102 328.031 119.193C326.44 118.261 324.588 117.795 322.474 117.795C320.27 117.795 318.315 118.307 316.611 119.33C314.929 120.33 313.611 121.682 312.656 123.386C311.702 125.068 311.213 126.943 311.19 129.011V137.568C311.19 140.159 311.668 142.398 312.622 144.284C313.599 146.17 314.974 147.625 316.747 148.648C318.52 149.67 320.622 150.182 323.054 150.182C324.668 150.182 326.145 149.955 327.486 149.5C328.827 149.045 329.974 148.364 330.929 147.455C331.884 146.545 332.611 145.432 333.111 144.114L346.543 145C345.861 148.227 344.463 151.045 342.349 153.455C340.259 155.841 337.554 157.705 334.236 159.045C330.94 160.364 327.134 161.023 322.815 161.023ZM371.259 160.989C367.918 160.989 364.94 160.409 362.327 159.25C359.713 158.068 357.645 156.33 356.122 154.034C354.622 151.716 353.872 148.83 353.872 145.375C353.872 142.466 354.406 140.023 355.474 138.045C356.543 136.068 357.997 134.477 359.838 133.273C361.679 132.068 363.77 131.159 366.111 130.545C368.474 129.932 370.952 129.5 373.543 129.25C376.588 128.932 379.043 128.636 380.906 128.364C382.77 128.068 384.122 127.636 384.963 127.068C385.804 126.5 386.224 125.659 386.224 124.545V124.341C386.224 122.182 385.543 120.511 384.179 119.33C382.838 118.148 380.929 117.557 378.452 117.557C375.838 117.557 373.759 118.136 372.213 119.295C370.668 120.432 369.645 121.864 369.145 123.591L355.713 122.5C356.395 119.318 357.736 116.568 359.736 114.25C361.736 111.909 364.315 110.114 367.474 108.864C370.656 107.591 374.338 106.955 378.52 106.955C381.429 106.955 384.213 107.295 386.872 107.977C389.554 108.659 391.929 109.716 393.997 111.148C396.088 112.58 397.736 114.42 398.94 116.67C400.145 118.898 400.747 121.568 400.747 124.682V160H386.974V152.739H386.565C385.724 154.375 384.599 155.818 383.19 157.068C381.781 158.295 380.088 159.261 378.111 159.966C376.134 160.648 373.849 160.989 371.259 160.989ZM375.418 150.966C377.554 150.966 379.44 150.545 381.077 149.705C382.713 148.841 383.997 147.682 384.929 146.227C385.861 144.773 386.327 143.125 386.327 141.284V135.727C385.872 136.023 385.247 136.295 384.452 136.545C383.679 136.773 382.804 136.989 381.827 137.193C380.849 137.375 379.872 137.545 378.895 137.705C377.918 137.841 377.031 137.966 376.236 138.08C374.531 138.33 373.043 138.727 371.77 139.273C370.497 139.818 369.509 140.557 368.804 141.489C368.099 142.398 367.747 143.534 367.747 144.898C367.747 146.875 368.463 148.386 369.895 149.432C371.349 150.455 373.19 150.966 375.418 150.966ZM439.866 107.636V118.545H408.332V107.636H439.866ZM415.491 95.0909H430.014V143.909C430.014 145.25 430.219 146.295 430.628 147.045C431.037 147.773 431.605 148.284 432.332 148.58C433.082 148.875 433.946 149.023 434.923 149.023C435.605 149.023 436.287 148.966 436.969 148.852C437.651 148.716 438.173 148.614 438.537 148.545L440.821 159.352C440.094 159.58 439.071 159.841 437.753 160.136C436.435 160.455 434.832 160.648 432.946 160.716C429.446 160.852 426.378 160.386 423.741 159.318C421.128 158.25 419.094 156.591 417.639 154.341C416.185 152.091 415.469 149.25 415.491 145.818V95.0909ZM482.906 137.705V107.636H497.429V160H483.486V150.489H482.94C481.759 153.557 479.793 156.023 477.043 157.886C474.315 159.75 470.986 160.682 467.054 160.682C463.554 160.682 460.474 159.886 457.815 158.295C455.156 156.705 453.077 154.443 451.577 151.511C450.099 148.58 449.349 145.068 449.327 140.977V107.636H463.849V138.386C463.872 141.477 464.702 143.92 466.338 145.716C467.974 147.511 470.168 148.409 472.918 148.409C474.668 148.409 476.304 148.011 477.827 147.216C479.349 146.398 480.577 145.193 481.509 143.602C482.463 142.011 482.929 140.045 482.906 137.705ZM509.045 160V107.636H523.125V116.773H523.67C524.625 113.523 526.227 111.068 528.477 109.409C530.727 107.727 533.318 106.886 536.25 106.886C536.977 106.886 537.761 106.932 538.602 107.023C539.443 107.114 540.182 107.239 540.818 107.398V120.284C540.136 120.08 539.193 119.898 537.989 119.739C536.784 119.58 535.682 119.5 534.682 119.5C532.545 119.5 530.636 119.966 528.955 120.898C527.295 121.807 525.977 123.08 525 124.716C524.045 126.352 523.568 128.239 523.568 130.375V160H509.045ZM569.753 161.023C564.366 161.023 559.73 159.932 555.844 157.75C551.98 155.545 549.003 152.432 546.912 148.409C544.821 144.364 543.776 139.58 543.776 134.057C543.776 128.67 544.821 123.943 546.912 119.875C549.003 115.807 551.946 112.636 555.741 110.364C559.56 108.091 564.037 106.955 569.173 106.955C572.628 106.955 575.844 107.511 578.821 108.625C581.821 109.716 584.435 111.364 586.662 113.568C588.912 115.773 590.662 118.545 591.912 121.886C593.162 125.205 593.787 129.091 593.787 133.545V137.534H549.571V128.534H580.116C580.116 126.443 579.662 124.591 578.753 122.977C577.844 121.364 576.582 120.102 574.969 119.193C573.378 118.261 571.526 117.795 569.412 117.795C567.207 117.795 565.253 118.307 563.548 119.33C561.866 120.33 560.548 121.682 559.594 123.386C558.639 125.068 558.151 126.943 558.128 129.011V137.568C558.128 140.159 558.605 142.398 559.56 144.284C560.537 146.17 561.912 147.625 563.685 148.648C565.457 149.67 567.56 150.182 569.991 150.182C571.605 150.182 573.082 149.955 574.423 149.5C575.764 149.045 576.912 148.364 577.866 147.455C578.821 146.545 579.548 145.432 580.048 144.114L593.48 145C592.798 148.227 591.401 151.045 589.287 153.455C587.196 155.841 584.491 157.705 581.173 159.045C577.878 160.364 574.071 161.023 569.753 161.023ZM635.889 125.568V137.091H604.048V125.568H635.889ZM691.832 122.568L678.537 123.386C678.31 122.25 677.821 121.227 677.071 120.318C676.321 119.386 675.332 118.648 674.105 118.102C672.901 117.534 671.457 117.25 669.776 117.25C667.526 117.25 665.628 117.727 664.082 118.682C662.537 119.614 661.764 120.864 661.764 122.432C661.764 123.682 662.264 124.739 663.264 125.602C664.264 126.466 665.98 127.159 668.412 127.682L677.889 129.591C682.98 130.636 686.776 132.318 689.276 134.636C691.776 136.955 693.026 140 693.026 143.773C693.026 147.205 692.014 150.216 689.991 152.807C687.991 155.398 685.241 157.42 681.741 158.875C678.264 160.307 674.253 161.023 669.707 161.023C662.776 161.023 657.253 159.58 653.139 156.693C649.048 153.784 646.651 149.83 645.946 144.83L660.23 144.08C660.662 146.193 661.707 147.807 663.366 148.92C665.026 150.011 667.151 150.557 669.741 150.557C672.287 150.557 674.332 150.068 675.878 149.091C677.446 148.091 678.241 146.807 678.264 145.239C678.241 143.92 677.685 142.841 676.594 142C675.503 141.136 673.821 140.477 671.548 140.023L662.48 138.216C657.366 137.193 653.56 135.42 651.06 132.898C648.582 130.375 647.344 127.159 647.344 123.25C647.344 119.886 648.253 116.989 650.071 114.557C651.912 112.125 654.491 110.25 657.81 108.932C661.151 107.614 665.06 106.955 669.537 106.955C676.151 106.955 681.355 108.352 685.151 111.148C688.969 113.943 691.196 117.75 691.832 122.568ZM730.023 107.636V118.545H698.489V107.636H730.023ZM705.648 95.0909H720.17V143.909C720.17 145.25 720.375 146.295 720.784 147.045C721.193 147.773 721.761 148.284 722.489 148.58C723.239 148.875 724.102 149.023 725.08 149.023C725.761 149.023 726.443 148.966 727.125 148.852C727.807 148.716 728.33 148.614 728.693 148.545L730.977 159.352C730.25 159.58 729.227 159.841 727.909 160.136C726.591 160.455 724.989 160.648 723.102 160.716C719.602 160.852 716.534 160.386 713.898 159.318C711.284 158.25 709.25 156.591 707.795 154.341C706.341 152.091 705.625 149.25 705.648 145.818V95.0909ZM754.415 160.989C751.074 160.989 748.097 160.409 745.483 159.25C742.869 158.068 740.801 156.33 739.278 154.034C737.778 151.716 737.028 148.83 737.028 145.375C737.028 142.466 737.563 140.023 738.631 138.045C739.699 136.068 741.153 134.477 742.994 133.273C744.835 132.068 746.926 131.159 749.267 130.545C751.631 129.932 754.108 129.5 756.699 129.25C759.744 128.932 762.199 128.636 764.062 128.364C765.926 128.068 767.278 127.636 768.119 127.068C768.96 126.5 769.381 125.659 769.381 124.545V124.341C769.381 122.182 768.699 120.511 767.335 119.33C765.994 118.148 764.085 117.557 761.608 117.557C758.994 117.557 756.915 118.136 755.369 119.295C753.824 120.432 752.801 121.864 752.301 123.591L738.869 122.5C739.551 119.318 740.892 116.568 742.892 114.25C744.892 111.909 747.472 110.114 750.631 108.864C753.813 107.591 757.494 106.955 761.676 106.955C764.585 106.955 767.369 107.295 770.028 107.977C772.71 108.659 775.085 109.716 777.153 111.148C779.244 112.58 780.892 114.42 782.097 116.67C783.301 118.898 783.903 121.568 783.903 124.682V160H770.131V152.739H769.722C768.881 154.375 767.756 155.818 766.347 157.068C764.938 158.295 763.244 159.261 761.267 159.966C759.29 160.648 757.006 160.989 754.415 160.989ZM758.574 150.966C760.71 150.966 762.597 150.545 764.233 149.705C765.869 148.841 767.153 147.682 768.085 146.227C769.017 144.773 769.483 143.125 769.483 141.284V135.727C769.028 136.023 768.403 136.295 767.608 136.545C766.835 136.773 765.96 136.989 764.983 137.193C764.006 137.375 763.028 137.545 762.051 137.705C761.074 137.841 760.188 137.966 759.392 138.08C757.688 138.33 756.199 138.727 754.926 139.273C753.653 139.818 752.665 140.557 751.96 141.489C751.256 142.398 750.903 143.534 750.903 144.898C750.903 146.875 751.619 148.386 753.051 149.432C754.506 150.455 756.347 150.966 758.574 150.966ZM823.023 107.636V118.545H791.489V107.636H823.023ZM798.648 95.0909H813.17V143.909C813.17 145.25 813.375 146.295 813.784 147.045C814.193 147.773 814.761 148.284 815.489 148.58C816.239 148.875 817.102 149.023 818.08 149.023C818.761 149.023 819.443 148.966 820.125 148.852C820.807 148.716 821.33 148.614 821.693 148.545L823.977 159.352C823.25 159.58 822.227 159.841 820.909 160.136C819.591 160.455 817.989 160.648 816.102 160.716C812.602 160.852 809.534 160.386 806.898 159.318C804.284 158.25 802.25 156.591 800.795 154.341C799.341 152.091 798.625 149.25 798.648 145.818V95.0909ZM855.784 161.023C850.398 161.023 845.761 159.932 841.875 157.75C838.011 155.545 835.034 152.432 832.943 148.409C830.852 144.364 829.807 139.58 829.807 134.057C829.807 128.67 830.852 123.943 832.943 119.875C835.034 115.807 837.977 112.636 841.773 110.364C845.591 108.091 850.068 106.955 855.205 106.955C858.659 106.955 861.875 107.511 864.852 108.625C867.852 109.716 870.466 111.364 872.693 113.568C874.943 115.773 876.693 118.545 877.943 121.886C879.193 125.205 879.818 129.091 879.818 133.545V137.534H835.602V128.534H866.148C866.148 126.443 865.693 124.591 864.784 122.977C863.875 121.364 862.614 120.102 861 119.193C859.409 118.261 857.557 117.795 855.443 117.795C853.239 117.795 851.284 118.307 849.58 119.33C847.898 120.33 846.58 121.682 845.625 123.386C844.67 125.068 844.182 126.943 844.159 129.011V137.568C844.159 140.159 844.636 142.398 845.591 144.284C846.568 146.17 847.943 147.625 849.716 148.648C851.489 149.67 853.591 150.182 856.023 150.182C857.636 150.182 859.114 149.955 860.455 149.5C861.795 149.045 862.943 148.364 863.898 147.455C864.852 146.545 865.58 145.432 866.08 144.114L879.511 145C878.83 148.227 877.432 151.045 875.318 153.455C873.227 155.841 870.523 157.705 867.205 159.045C863.909 160.364 860.102 161.023 855.784 161.023Z" fill="black"/>
</svg>
