<svg width="2000" height="250" viewBox="0 0 2000 250" fill="none" xmlns="http://www.w3.org/2000/svg">
<rect width="2000" height="250" rx="48" fill="#FDE200"/>
<path d="M148.121 63.9112C151.892 65.4726 155.384 67.6248 158.466 70.2816C159.177 70.895 159.867 71.5353 160.534 72.2014C164.086 75.7527 166.905 79.9687 168.827 84.6086C170.75 89.2486 171.74 94.2217 171.74 99.2439C171.74 103.776 170.934 108.269 169.363 112.512H171.74C176.764 112.512 181.739 113.501 186.381 115.423C190.153 116.985 193.644 119.137 196.726 121.794C197.438 122.407 198.127 123.047 198.794 123.714C202.347 127.265 205.165 131.481 207.088 136.121C209.01 140.761 210 145.734 210 150.756C210 155.778 209.01 160.751 207.088 165.391C205.165 170.031 202.347 174.247 198.794 177.799C198.127 178.465 197.438 179.105 196.726 179.718C193.644 182.375 190.152 184.527 186.381 186.089C181.739 188.011 176.764 189 171.74 189H146.753C139.854 189 134.26 183.409 134.26 176.512C134.26 169.615 139.854 164.024 146.753 164.024H171.74L171.74 164.028C173.483 164.028 175.21 163.684 176.821 163.017C178.431 162.35 179.895 161.373 181.128 160.14C182.361 158.908 183.339 157.445 184.006 155.835C184.673 154.225 185.017 152.499 185.017 150.756C185.017 149.013 184.673 147.288 184.006 145.677C183.339 144.067 182.361 142.604 181.128 141.372C179.895 140.139 178.432 139.162 176.821 138.495C175.21 137.828 173.483 137.485 171.74 137.485V137.488H108.493C101.593 137.488 96 131.897 96 125C96 118.103 101.593 112.512 108.493 112.512H133.767C135.413 112.477 137.038 112.135 138.56 111.505C140.171 110.838 141.635 109.861 142.868 108.628C144.101 107.396 145.079 105.933 145.746 104.323C146.413 102.713 146.757 100.987 146.757 99.2439C146.757 97.5011 146.413 95.7753 145.746 94.1652C145.079 92.555 144.101 91.092 142.868 89.8596C141.635 88.6272 140.171 87.6497 138.56 86.9827C136.95 86.3158 135.223 85.9725 133.479 85.9725V85.9756H108.493C101.593 85.9756 96 80.3846 96 73.4878C96 66.591 101.593 61 108.493 61H133.479C138.504 61 143.479 61.9892 148.121 63.9112Z" fill="black"/>
<path d="M96 176.512C96 169.615 101.593 164.024 108.493 164.024H115.521C122.42 164.024 128.014 169.615 128.014 176.512C128.014 183.409 122.42 189 115.521 189H108.493C101.593 189 96 183.409 96 176.512Z" fill="black"/>
<path d="M291.955 107.636V118.545H259.636V107.636H291.955ZM267.034 160V103.852C267.034 100.057 267.773 96.9091 269.25 94.4091C270.75 91.9091 272.795 90.0341 275.386 88.7841C277.977 87.5341 280.92 86.9091 284.216 86.9091C286.443 86.9091 288.477 87.0795 290.318 87.4205C292.182 87.7614 293.568 88.0682 294.477 88.3409L291.886 99.25C291.318 99.0682 290.614 98.8977 289.773 98.7386C288.955 98.5795 288.114 98.5 287.25 98.5C285.114 98.5 283.625 99 282.784 100C281.943 100.977 281.523 102.352 281.523 104.125V160H267.034ZM300.827 160V107.636H315.349V160H300.827ZM308.122 100.886C305.963 100.886 304.111 100.17 302.565 98.7386C301.043 97.2841 300.281 95.5455 300.281 93.5227C300.281 91.5227 301.043 89.8068 302.565 88.375C304.111 86.9205 305.963 86.1932 308.122 86.1932C310.281 86.1932 312.122 86.9205 313.645 88.375C315.19 89.8068 315.963 91.5227 315.963 93.5227C315.963 95.5455 315.19 97.2841 313.645 98.7386C312.122 100.17 310.281 100.886 308.122 100.886ZM350.574 180.727C345.869 180.727 341.835 180.08 338.472 178.784C335.131 177.511 332.472 175.773 330.494 173.568C328.517 171.364 327.233 168.886 326.642 166.136L340.074 164.33C340.483 165.375 341.131 166.352 342.017 167.261C342.903 168.17 344.074 168.898 345.528 169.443C347.006 170.011 348.801 170.295 350.915 170.295C354.074 170.295 356.676 169.523 358.722 167.977C360.79 166.455 361.824 163.898 361.824 160.307V150.727H361.21C360.574 152.182 359.619 153.557 358.347 154.852C357.074 156.148 355.438 157.205 353.438 158.023C351.438 158.841 349.051 159.25 346.278 159.25C342.347 159.25 338.767 158.341 335.54 156.523C332.335 154.682 329.778 151.875 327.869 148.102C325.983 144.307 325.04 139.511 325.04 133.716C325.04 127.784 326.006 122.83 327.938 118.852C329.869 114.875 332.438 111.898 335.642 109.92C338.869 107.943 342.403 106.955 346.244 106.955C349.176 106.955 351.631 107.455 353.608 108.455C355.585 109.432 357.176 110.659 358.381 112.136C359.608 113.591 360.551 115.023 361.21 116.432H361.756V107.636H376.176V160.511C376.176 164.966 375.085 168.693 372.903 171.693C370.722 174.693 367.699 176.943 363.835 178.443C359.994 179.966 355.574 180.727 350.574 180.727ZM350.881 148.341C353.222 148.341 355.199 147.761 356.812 146.602C358.449 145.42 359.699 143.739 360.562 141.557C361.449 139.352 361.892 136.716 361.892 133.648C361.892 130.58 361.46 127.92 360.597 125.67C359.733 123.398 358.483 121.636 356.847 120.386C355.21 119.136 353.222 118.511 350.881 118.511C348.494 118.511 346.483 119.159 344.847 120.455C343.21 121.727 341.972 123.5 341.131 125.773C340.29 128.045 339.869 130.67 339.869 133.648C339.869 136.67 340.29 139.284 341.131 141.489C341.994 143.67 343.233 145.364 344.847 146.568C346.483 147.75 348.494 148.341 350.881 148.341ZM387.733 160V107.636H401.574V116.875H402.188C403.278 113.807 405.097 111.386 407.642 109.614C410.188 107.841 413.233 106.955 416.778 106.955C420.369 106.955 423.426 107.852 425.949 109.648C428.472 111.42 430.153 113.83 430.994 116.875H431.54C432.608 113.875 434.54 111.477 437.335 109.682C440.153 107.864 443.483 106.955 447.324 106.955C452.21 106.955 456.176 108.511 459.222 111.625C462.29 114.716 463.824 119.102 463.824 124.784V160H449.335V127.648C449.335 124.739 448.563 122.557 447.017 121.102C445.472 119.648 443.54 118.92 441.222 118.92C438.585 118.92 436.528 119.761 435.051 121.443C433.574 123.102 432.835 125.295 432.835 128.023V160H418.756V127.341C418.756 124.773 418.017 122.727 416.54 121.205C415.085 119.682 413.165 118.92 410.778 118.92C409.165 118.92 407.71 119.33 406.415 120.148C405.142 120.943 404.131 122.068 403.381 123.523C402.631 124.955 402.256 126.636 402.256 128.568V160H387.733ZM490.227 160.989C486.886 160.989 483.909 160.409 481.295 159.25C478.682 158.068 476.614 156.33 475.091 154.034C473.591 151.716 472.841 148.83 472.841 145.375C472.841 142.466 473.375 140.023 474.443 138.045C475.511 136.068 476.966 134.477 478.807 133.273C480.648 132.068 482.739 131.159 485.08 130.545C487.443 129.932 489.92 129.5 492.511 129.25C495.557 128.932 498.011 128.636 499.875 128.364C501.739 128.068 503.091 127.636 503.932 127.068C504.773 126.5 505.193 125.659 505.193 124.545V124.341C505.193 122.182 504.511 120.511 503.148 119.33C501.807 118.148 499.898 117.557 497.42 117.557C494.807 117.557 492.727 118.136 491.182 119.295C489.636 120.432 488.614 121.864 488.114 123.591L474.682 122.5C475.364 119.318 476.705 116.568 478.705 114.25C480.705 111.909 483.284 110.114 486.443 108.864C489.625 107.591 493.307 106.955 497.489 106.955C500.398 106.955 503.182 107.295 505.841 107.977C508.523 108.659 510.898 109.716 512.966 111.148C515.057 112.58 516.705 114.42 517.909 116.67C519.114 118.898 519.716 121.568 519.716 124.682V160H505.943V152.739H505.534C504.693 154.375 503.568 155.818 502.159 157.068C500.75 158.295 499.057 159.261 497.08 159.966C495.102 160.648 492.818 160.989 490.227 160.989ZM494.386 150.966C496.523 150.966 498.409 150.545 500.045 149.705C501.682 148.841 502.966 147.682 503.898 146.227C504.83 144.773 505.295 143.125 505.295 141.284V135.727C504.841 136.023 504.216 136.295 503.42 136.545C502.648 136.773 501.773 136.989 500.795 137.193C499.818 137.375 498.841 137.545 497.864 137.705C496.886 137.841 496 137.966 495.205 138.08C493.5 138.33 492.011 138.727 490.739 139.273C489.466 139.818 488.477 140.557 487.773 141.489C487.068 142.398 486.716 143.534 486.716 144.898C486.716 146.875 487.432 148.386 488.864 149.432C490.318 150.455 492.159 150.966 494.386 150.966ZM563.608 125.568V137.091H531.767V125.568H563.608ZM599.642 161.023C594.278 161.023 589.665 159.886 585.801 157.614C581.96 155.318 579.006 152.136 576.938 148.068C574.892 144 573.869 139.318 573.869 134.023C573.869 128.659 574.903 123.955 576.972 119.909C579.063 115.841 582.028 112.67 585.869 110.398C589.71 108.102 594.278 106.955 599.574 106.955C604.142 106.955 608.142 107.784 611.574 109.443C615.006 111.102 617.722 113.432 619.722 116.432C621.722 119.432 622.824 122.955 623.028 127H609.324C608.938 124.386 607.915 122.284 606.256 120.693C604.619 119.08 602.472 118.273 599.812 118.273C597.562 118.273 595.597 118.886 593.915 120.114C592.256 121.318 590.96 123.08 590.028 125.398C589.097 127.716 588.631 130.523 588.631 133.818C588.631 137.159 589.085 140 589.994 142.341C590.926 144.682 592.233 146.466 593.915 147.693C595.597 148.92 597.562 149.534 599.812 149.534C601.472 149.534 602.96 149.193 604.278 148.511C605.619 147.83 606.722 146.841 607.585 145.545C608.472 144.227 609.051 142.648 609.324 140.807H623.028C622.801 144.807 621.71 148.33 619.756 151.375C617.824 154.398 615.153 156.761 611.744 158.466C608.335 160.17 604.301 161.023 599.642 161.023ZM655.986 161.023C650.69 161.023 646.111 159.898 642.247 157.648C638.406 155.375 635.44 152.216 633.349 148.17C631.259 144.102 630.213 139.386 630.213 134.023C630.213 128.614 631.259 123.886 633.349 119.841C635.44 115.773 638.406 112.614 642.247 110.364C646.111 108.091 650.69 106.955 655.986 106.955C661.281 106.955 665.849 108.091 669.69 110.364C673.554 112.614 676.531 115.773 678.622 119.841C680.713 123.886 681.759 128.614 681.759 134.023C681.759 139.386 680.713 144.102 678.622 148.17C676.531 152.216 673.554 155.375 669.69 157.648C665.849 159.898 661.281 161.023 655.986 161.023ZM656.054 149.773C658.463 149.773 660.474 149.091 662.088 147.727C663.702 146.341 664.918 144.455 665.736 142.068C666.577 139.682 666.997 136.966 666.997 133.92C666.997 130.875 666.577 128.159 665.736 125.773C664.918 123.386 663.702 121.5 662.088 120.114C660.474 118.727 658.463 118.034 656.054 118.034C653.622 118.034 651.577 118.727 649.918 120.114C648.281 121.5 647.043 123.386 646.202 125.773C645.384 128.159 644.974 130.875 644.974 133.92C644.974 136.966 645.384 139.682 646.202 142.068C647.043 144.455 648.281 146.341 649.918 147.727C651.577 149.091 653.622 149.773 656.054 149.773ZM705.724 129.727V160H691.202V107.636H705.043V116.875H705.656C706.815 113.83 708.759 111.42 711.486 109.648C714.213 107.852 717.52 106.955 721.406 106.955C725.043 106.955 728.213 107.75 730.918 109.341C733.622 110.932 735.724 113.205 737.224 116.159C738.724 119.091 739.474 122.591 739.474 126.659V160H724.952V129.25C724.974 126.045 724.156 123.545 722.497 121.75C720.838 119.932 718.554 119.023 715.645 119.023C713.69 119.023 711.963 119.443 710.463 120.284C708.986 121.125 707.827 122.352 706.986 123.966C706.168 125.557 705.747 127.477 705.724 129.727ZM765.443 129.727V160H750.92V107.636H764.761V116.875H765.375C766.534 113.83 768.477 111.42 771.205 109.648C773.932 107.852 777.239 106.955 781.125 106.955C784.761 106.955 787.932 107.75 790.636 109.341C793.341 110.932 795.443 113.205 796.943 116.159C798.443 119.091 799.193 122.591 799.193 126.659V160H784.67V129.25C784.693 126.045 783.875 123.545 782.216 121.75C780.557 119.932 778.273 119.023 775.364 119.023C773.409 119.023 771.682 119.443 770.182 120.284C768.705 121.125 767.545 122.352 766.705 123.966C765.886 125.557 765.466 127.477 765.443 129.727ZM834.503 161.023C829.116 161.023 824.48 159.932 820.594 157.75C816.73 155.545 813.753 152.432 811.662 148.409C809.571 144.364 808.526 139.58 808.526 134.057C808.526 128.67 809.571 123.943 811.662 119.875C813.753 115.807 816.696 112.636 820.491 110.364C824.31 108.091 828.787 106.955 833.923 106.955C837.378 106.955 840.594 107.511 843.571 108.625C846.571 109.716 849.185 111.364 851.412 113.568C853.662 115.773 855.412 118.545 856.662 121.886C857.912 125.205 858.537 129.091 858.537 133.545V137.534H814.321V128.534H844.866C844.866 126.443 844.412 124.591 843.503 122.977C842.594 121.364 841.332 120.102 839.719 119.193C838.128 118.261 836.276 117.795 834.162 117.795C831.957 117.795 830.003 118.307 828.298 119.33C826.616 120.33 825.298 121.682 824.344 123.386C823.389 125.068 822.901 126.943 822.878 129.011V137.568C822.878 140.159 823.355 142.398 824.31 144.284C825.287 146.17 826.662 147.625 828.435 148.648C830.207 149.67 832.31 150.182 834.741 150.182C836.355 150.182 837.832 149.955 839.173 149.5C840.514 149.045 841.662 148.364 842.616 147.455C843.571 146.545 844.298 145.432 844.798 144.114L858.23 145C857.548 148.227 856.151 151.045 854.037 153.455C851.946 155.841 849.241 157.705 845.923 159.045C842.628 160.364 838.821 161.023 834.503 161.023ZM891.673 161.023C886.31 161.023 881.696 159.886 877.832 157.614C873.991 155.318 871.037 152.136 868.969 148.068C866.923 144 865.901 139.318 865.901 134.023C865.901 128.659 866.935 123.955 869.003 119.909C871.094 115.841 874.06 112.67 877.901 110.398C881.741 108.102 886.31 106.955 891.605 106.955C896.173 106.955 900.173 107.784 903.605 109.443C907.037 111.102 909.753 113.432 911.753 116.432C913.753 119.432 914.855 122.955 915.06 127H901.355C900.969 124.386 899.946 122.284 898.287 120.693C896.651 119.08 894.503 118.273 891.844 118.273C889.594 118.273 887.628 118.886 885.946 120.114C884.287 121.318 882.991 123.08 882.06 125.398C881.128 127.716 880.662 130.523 880.662 133.818C880.662 137.159 881.116 140 882.026 142.341C882.957 144.682 884.264 146.466 885.946 147.693C887.628 148.92 889.594 149.534 891.844 149.534C893.503 149.534 894.991 149.193 896.31 148.511C897.651 147.83 898.753 146.841 899.616 145.545C900.503 144.227 901.082 142.648 901.355 140.807H915.06C914.832 144.807 913.741 148.33 911.787 151.375C909.855 154.398 907.185 156.761 903.776 158.466C900.366 160.17 896.332 161.023 891.673 161.023ZM952.21 107.636V118.545H920.676V107.636H952.21ZM927.835 95.0909H942.358V143.909C942.358 145.25 942.563 146.295 942.972 147.045C943.381 147.773 943.949 148.284 944.676 148.58C945.426 148.875 946.29 149.023 947.267 149.023C947.949 149.023 948.631 148.966 949.312 148.852C949.994 148.716 950.517 148.614 950.881 148.545L953.165 159.352C952.438 159.58 951.415 159.841 950.097 160.136C948.778 160.455 947.176 160.648 945.29 160.716C941.79 160.852 938.722 160.386 936.085 159.318C933.472 158.25 931.438 156.591 929.983 154.341C928.528 152.091 927.813 149.25 927.835 145.818V95.0909Z" fill="black"/>
</svg>
