<svg width="2000" height="250" viewBox="0 0 2000 250" fill="none" xmlns="http://www.w3.org/2000/svg">
<rect width="2000" height="250" rx="48" fill="#FDE200"/>
<path d="M148.121 63.9112C151.892 65.4726 155.384 67.6248 158.466 70.2816C159.177 70.895 159.867 71.5353 160.534 72.2014C164.086 75.7527 166.905 79.9687 168.827 84.6086C170.75 89.2486 171.74 94.2217 171.74 99.2439C171.74 103.776 170.934 108.269 169.363 112.512H171.74C176.764 112.512 181.739 113.501 186.381 115.423C190.153 116.985 193.644 119.137 196.726 121.794C197.438 122.407 198.127 123.047 198.794 123.714C202.347 127.265 205.165 131.481 207.088 136.121C209.01 140.761 210 145.734 210 150.756C210 155.778 209.01 160.751 207.088 165.391C205.165 170.031 202.347 174.247 198.794 177.799C198.127 178.465 197.438 179.105 196.726 179.718C193.644 182.375 190.152 184.527 186.381 186.089C181.739 188.011 176.764 189 171.74 189H146.753C139.854 189 134.26 183.409 134.26 176.512C134.26 169.615 139.854 164.024 146.753 164.024H171.74L171.74 164.028C173.483 164.028 175.21 163.684 176.821 163.017C178.431 162.35 179.895 161.373 181.128 160.14C182.361 158.908 183.339 157.445 184.006 155.835C184.673 154.225 185.017 152.499 185.017 150.756C185.017 149.013 184.673 147.288 184.006 145.677C183.339 144.067 182.361 142.604 181.128 141.372C179.895 140.139 178.432 139.162 176.821 138.495C175.21 137.828 173.483 137.485 171.74 137.485V137.488H108.493C101.593 137.488 96 131.897 96 125C96 118.103 101.593 112.512 108.493 112.512H133.767C135.413 112.477 137.038 112.135 138.56 111.505C140.171 110.838 141.635 109.861 142.868 108.628C144.101 107.396 145.079 105.933 145.746 104.323C146.413 102.713 146.757 100.987 146.757 99.2439C146.757 97.5011 146.413 95.7753 145.746 94.1652C145.079 92.555 144.101 91.092 142.868 89.8596C141.635 88.6272 140.171 87.6497 138.56 86.9827C136.95 86.3158 135.223 85.9725 133.479 85.9725V85.9756H108.493C101.593 85.9756 96 80.3846 96 73.4878C96 66.591 101.593 61 108.493 61H133.479C138.504 61 143.479 61.9892 148.121 63.9112Z" fill="black"/>
<path d="M96 176.512C96 169.615 101.593 164.024 108.493 164.024H115.521C122.42 164.024 128.014 169.615 128.014 176.512C128.014 183.409 122.42 189 115.521 189H108.493C101.593 189 96 183.409 96 176.512Z" fill="black"/>
<path d="M263.795 160V107.636H278.318V160H263.795ZM271.091 100.886C268.932 100.886 267.08 100.17 265.534 98.7386C264.011 97.2841 263.25 95.5455 263.25 93.5227C263.25 91.5227 264.011 89.8068 265.534 88.375C267.08 86.9205 268.932 86.1932 271.091 86.1932C273.25 86.1932 275.091 86.9205 276.614 88.375C278.159 89.8068 278.932 91.5227 278.932 93.5227C278.932 95.5455 278.159 97.2841 276.614 98.7386C275.091 100.17 273.25 100.886 271.091 100.886ZM304.474 129.727V160H289.952V107.636H303.793V116.875H304.406C305.565 113.83 307.509 111.42 310.236 109.648C312.963 107.852 316.27 106.955 320.156 106.955C323.793 106.955 326.963 107.75 329.668 109.341C332.372 110.932 334.474 113.205 335.974 116.159C337.474 119.091 338.224 122.591 338.224 126.659V160H323.702V129.25C323.724 126.045 322.906 123.545 321.247 121.75C319.588 119.932 317.304 119.023 314.395 119.023C312.44 119.023 310.713 119.443 309.213 120.284C307.736 121.125 306.577 122.352 305.736 123.966C304.918 125.557 304.497 127.477 304.474 129.727ZM349.943 160V90.1818H364.466V116.432H364.909C365.545 115.023 366.466 113.591 367.67 112.136C368.898 110.659 370.489 109.432 372.443 108.455C374.42 107.455 376.875 106.955 379.807 106.955C383.625 106.955 387.148 107.955 390.375 109.955C393.602 111.932 396.182 114.92 398.114 118.92C400.045 122.898 401.011 127.886 401.011 133.886C401.011 139.727 400.068 144.659 398.182 148.682C396.318 152.682 393.773 155.716 390.545 157.784C387.341 159.83 383.75 160.852 379.773 160.852C376.955 160.852 374.557 160.386 372.58 159.455C370.625 158.523 369.023 157.352 367.773 155.943C366.523 154.511 365.568 153.068 364.909 151.614H364.261V160H349.943ZM364.159 133.818C364.159 136.932 364.591 139.648 365.455 141.966C366.318 144.284 367.568 146.091 369.205 147.386C370.841 148.659 372.83 149.295 375.17 149.295C377.534 149.295 379.534 148.648 381.17 147.352C382.807 146.034 384.045 144.216 384.886 141.898C385.75 139.557 386.182 136.864 386.182 133.818C386.182 130.795 385.761 128.136 384.92 125.841C384.08 123.545 382.841 121.75 381.205 120.455C379.568 119.159 377.557 118.511 375.17 118.511C372.807 118.511 370.807 119.136 369.17 120.386C367.557 121.636 366.318 123.409 365.455 125.705C364.591 128 364.159 130.705 364.159 133.818ZM434.565 161.023C429.179 161.023 424.543 159.932 420.656 157.75C416.793 155.545 413.815 152.432 411.724 148.409C409.634 144.364 408.588 139.58 408.588 134.057C408.588 128.67 409.634 123.943 411.724 119.875C413.815 115.807 416.759 112.636 420.554 110.364C424.372 108.091 428.849 106.955 433.986 106.955C437.44 106.955 440.656 107.511 443.634 108.625C446.634 109.716 449.247 111.364 451.474 113.568C453.724 115.773 455.474 118.545 456.724 121.886C457.974 125.205 458.599 129.091 458.599 133.545V137.534H414.384V128.534H444.929C444.929 126.443 444.474 124.591 443.565 122.977C442.656 121.364 441.395 120.102 439.781 119.193C438.19 118.261 436.338 117.795 434.224 117.795C432.02 117.795 430.065 118.307 428.361 119.33C426.679 120.33 425.361 121.682 424.406 123.386C423.452 125.068 422.963 126.943 422.94 129.011V137.568C422.94 140.159 423.418 142.398 424.372 144.284C425.349 146.17 426.724 147.625 428.497 148.648C430.27 149.67 432.372 150.182 434.804 150.182C436.418 150.182 437.895 149.955 439.236 149.5C440.577 149.045 441.724 148.364 442.679 147.455C443.634 146.545 444.361 145.432 444.861 144.114L458.293 145C457.611 148.227 456.213 151.045 454.099 153.455C452.009 155.841 449.304 157.705 445.986 159.045C442.69 160.364 438.884 161.023 434.565 161.023ZM495.929 107.636V118.545H464.395V107.636H495.929ZM471.554 95.0909H486.077V143.909C486.077 145.25 486.281 146.295 486.69 147.045C487.099 147.773 487.668 148.284 488.395 148.58C489.145 148.875 490.009 149.023 490.986 149.023C491.668 149.023 492.349 148.966 493.031 148.852C493.713 148.716 494.236 148.614 494.599 148.545L496.884 159.352C496.156 159.58 495.134 159.841 493.815 160.136C492.497 160.455 490.895 160.648 489.009 160.716C485.509 160.852 482.44 160.386 479.804 159.318C477.19 158.25 475.156 156.591 473.702 154.341C472.247 152.091 471.531 149.25 471.554 145.818V95.0909ZM520.321 160.989C516.98 160.989 514.003 160.409 511.389 159.25C508.776 158.068 506.707 156.33 505.185 154.034C503.685 151.716 502.935 148.83 502.935 145.375C502.935 142.466 503.469 140.023 504.537 138.045C505.605 136.068 507.06 134.477 508.901 133.273C510.741 132.068 512.832 131.159 515.173 130.545C517.537 129.932 520.014 129.5 522.605 129.25C525.651 128.932 528.105 128.636 529.969 128.364C531.832 128.068 533.185 127.636 534.026 127.068C534.866 126.5 535.287 125.659 535.287 124.545V124.341C535.287 122.182 534.605 120.511 533.241 119.33C531.901 118.148 529.991 117.557 527.514 117.557C524.901 117.557 522.821 118.136 521.276 119.295C519.73 120.432 518.707 121.864 518.207 123.591L504.776 122.5C505.457 119.318 506.798 116.568 508.798 114.25C510.798 111.909 513.378 110.114 516.537 108.864C519.719 107.591 523.401 106.955 527.582 106.955C530.491 106.955 533.276 107.295 535.935 107.977C538.616 108.659 540.991 109.716 543.06 111.148C545.151 112.58 546.798 114.42 548.003 116.67C549.207 118.898 549.81 121.568 549.81 124.682V160H536.037V152.739H535.628C534.787 154.375 533.662 155.818 532.253 157.068C530.844 158.295 529.151 159.261 527.173 159.966C525.196 160.648 522.912 160.989 520.321 160.989ZM524.48 150.966C526.616 150.966 528.503 150.545 530.139 149.705C531.776 148.841 533.06 147.682 533.991 146.227C534.923 144.773 535.389 143.125 535.389 141.284V135.727C534.935 136.023 534.31 136.295 533.514 136.545C532.741 136.773 531.866 136.989 530.889 137.193C529.912 137.375 528.935 137.545 527.957 137.705C526.98 137.841 526.094 137.966 525.298 138.08C523.594 138.33 522.105 138.727 520.832 139.273C519.56 139.818 518.571 140.557 517.866 141.489C517.162 142.398 516.81 143.534 516.81 144.898C516.81 146.875 517.526 148.386 518.957 149.432C520.412 150.455 522.253 150.966 524.48 150.966ZM569.565 160.886C567.315 160.886 565.384 160.091 563.77 158.5C562.179 156.886 561.384 154.955 561.384 152.705C561.384 150.477 562.179 148.568 563.77 146.977C565.384 145.386 567.315 144.591 569.565 144.591C571.747 144.591 573.656 145.386 575.293 146.977C576.929 148.568 577.747 150.477 577.747 152.705C577.747 154.205 577.361 155.58 576.588 156.83C575.838 158.057 574.849 159.045 573.622 159.795C572.395 160.523 571.043 160.886 569.565 160.886ZM613.261 180.727C608.557 180.727 604.523 180.08 601.159 178.784C597.818 177.511 595.159 175.773 593.182 173.568C591.205 171.364 589.92 168.886 589.33 166.136L602.761 164.33C603.17 165.375 603.818 166.352 604.705 167.261C605.591 168.17 606.761 168.898 608.216 169.443C609.693 170.011 611.489 170.295 613.602 170.295C616.761 170.295 619.364 169.523 621.409 167.977C623.477 166.455 624.511 163.898 624.511 160.307V150.727H623.898C623.261 152.182 622.307 153.557 621.034 154.852C619.761 156.148 618.125 157.205 616.125 158.023C614.125 158.841 611.739 159.25 608.966 159.25C605.034 159.25 601.455 158.341 598.227 156.523C595.023 154.682 592.466 151.875 590.557 148.102C588.67 144.307 587.727 139.511 587.727 133.716C587.727 127.784 588.693 122.83 590.625 118.852C592.557 114.875 595.125 111.898 598.33 109.92C601.557 107.943 605.091 106.955 608.932 106.955C611.864 106.955 614.318 107.455 616.295 108.455C618.273 109.432 619.864 110.659 621.068 112.136C622.295 113.591 623.239 115.023 623.898 116.432H624.443V107.636H638.864V160.511C638.864 164.966 637.773 168.693 635.591 171.693C633.409 174.693 630.386 176.943 626.523 178.443C622.682 179.966 618.261 180.727 613.261 180.727ZM613.568 148.341C615.909 148.341 617.886 147.761 619.5 146.602C621.136 145.42 622.386 143.739 623.25 141.557C624.136 139.352 624.58 136.716 624.58 133.648C624.58 130.58 624.148 127.92 623.284 125.67C622.42 123.398 621.17 121.636 619.534 120.386C617.898 119.136 615.909 118.511 613.568 118.511C611.182 118.511 609.17 119.159 607.534 120.455C605.898 121.727 604.659 123.5 603.818 125.773C602.977 128.045 602.557 130.67 602.557 133.648C602.557 136.67 602.977 139.284 603.818 141.489C604.682 143.67 605.92 145.364 607.534 146.568C609.17 147.75 611.182 148.341 613.568 148.341ZM650.42 160V107.636H664.5V116.773H665.045C666 113.523 667.602 111.068 669.852 109.409C672.102 107.727 674.693 106.886 677.625 106.886C678.352 106.886 679.136 106.932 679.977 107.023C680.818 107.114 681.557 107.239 682.193 107.398V120.284C681.511 120.08 680.568 119.898 679.364 119.739C678.159 119.58 677.057 119.5 676.057 119.5C673.92 119.5 672.011 119.966 670.33 120.898C668.67 121.807 667.352 123.08 666.375 124.716C665.42 126.352 664.943 128.239 664.943 130.375V160H650.42ZM710.923 161.023C705.628 161.023 701.048 159.898 697.185 157.648C693.344 155.375 690.378 152.216 688.287 148.17C686.196 144.102 685.151 139.386 685.151 134.023C685.151 128.614 686.196 123.886 688.287 119.841C690.378 115.773 693.344 112.614 697.185 110.364C701.048 108.091 705.628 106.955 710.923 106.955C716.219 106.955 720.787 108.091 724.628 110.364C728.491 112.614 731.469 115.773 733.56 119.841C735.651 123.886 736.696 128.614 736.696 134.023C736.696 139.386 735.651 144.102 733.56 148.17C731.469 152.216 728.491 155.375 724.628 157.648C720.787 159.898 716.219 161.023 710.923 161.023ZM710.991 149.773C713.401 149.773 715.412 149.091 717.026 147.727C718.639 146.341 719.855 144.455 720.673 142.068C721.514 139.682 721.935 136.966 721.935 133.92C721.935 130.875 721.514 128.159 720.673 125.773C719.855 123.386 718.639 121.5 717.026 120.114C715.412 118.727 713.401 118.034 710.991 118.034C708.56 118.034 706.514 118.727 704.855 120.114C703.219 121.5 701.98 123.386 701.139 125.773C700.321 128.159 699.912 130.875 699.912 133.92C699.912 136.966 700.321 139.682 701.139 142.068C701.98 144.455 703.219 146.341 704.855 147.727C706.514 149.091 708.56 149.773 710.991 149.773ZM779.719 137.705V107.636H794.241V160H780.298V150.489H779.753C778.571 153.557 776.605 156.023 773.855 157.886C771.128 159.75 767.798 160.682 763.866 160.682C760.366 160.682 757.287 159.886 754.628 158.295C751.969 156.705 749.889 154.443 748.389 151.511C746.912 148.58 746.162 145.068 746.139 140.977V107.636H760.662V138.386C760.685 141.477 761.514 143.92 763.151 145.716C764.787 147.511 766.98 148.409 769.73 148.409C771.48 148.409 773.116 148.011 774.639 147.216C776.162 146.398 777.389 145.193 778.321 143.602C779.276 142.011 779.741 140.045 779.719 137.705ZM805.858 179.636V107.636H820.176V116.432H820.824C821.46 115.023 822.381 113.591 823.585 112.136C824.813 110.659 826.403 109.432 828.358 108.455C830.335 107.455 832.79 106.955 835.722 106.955C839.54 106.955 843.063 107.955 846.29 109.955C849.517 111.932 852.097 114.92 854.028 118.92C855.96 122.898 856.926 127.886 856.926 133.886C856.926 139.727 855.983 144.659 854.097 148.682C852.233 152.682 849.688 155.716 846.46 157.784C843.256 159.83 839.665 160.852 835.688 160.852C832.869 160.852 830.472 160.386 828.494 159.455C826.54 158.523 824.938 157.352 823.688 155.943C822.438 154.511 821.483 153.068 820.824 151.614H820.381V179.636H805.858ZM820.074 133.818C820.074 136.932 820.506 139.648 821.369 141.966C822.233 144.284 823.483 146.091 825.119 147.386C826.756 148.659 828.744 149.295 831.085 149.295C833.449 149.295 835.449 148.648 837.085 147.352C838.722 146.034 839.96 144.216 840.801 141.898C841.665 139.557 842.097 136.864 842.097 133.818C842.097 130.795 841.676 128.136 840.835 125.841C839.994 123.545 838.756 121.75 837.119 120.455C835.483 119.159 833.472 118.511 831.085 118.511C828.722 118.511 826.722 119.136 825.085 120.386C823.472 121.636 822.233 123.409 821.369 125.705C820.506 128 820.074 130.705 820.074 133.818Z" fill="black"/>
</svg>
