<svg width="2000" height="250" viewBox="0 0 2000 250" fill="none" xmlns="http://www.w3.org/2000/svg">
<rect width="2000" height="250" rx="48" fill="#FDE200"/>
<path d="M148.121 63.9112C151.892 65.4726 155.384 67.6248 158.466 70.2816C159.177 70.895 159.867 71.5353 160.534 72.2014C164.086 75.7527 166.905 79.9687 168.827 84.6086C170.75 89.2486 171.74 94.2217 171.74 99.2439C171.74 103.776 170.934 108.269 169.363 112.512H171.74C176.764 112.512 181.739 113.501 186.381 115.423C190.153 116.985 193.644 119.137 196.726 121.794C197.438 122.407 198.127 123.047 198.794 123.714C202.347 127.265 205.165 131.481 207.088 136.121C209.01 140.761 210 145.734 210 150.756C210 155.778 209.01 160.751 207.088 165.391C205.165 170.031 202.347 174.247 198.794 177.799C198.127 178.465 197.438 179.105 196.726 179.718C193.644 182.375 190.152 184.527 186.381 186.089C181.739 188.011 176.764 189 171.74 189H146.753C139.854 189 134.26 183.409 134.26 176.512C134.26 169.615 139.854 164.024 146.753 164.024H171.74L171.74 164.028C173.483 164.028 175.21 163.684 176.821 163.017C178.431 162.35 179.895 161.373 181.128 160.14C182.361 158.908 183.339 157.445 184.006 155.835C184.673 154.225 185.017 152.499 185.017 150.756C185.017 149.013 184.673 147.288 184.006 145.677C183.339 144.067 182.361 142.604 181.128 141.372C179.895 140.139 178.432 139.162 176.821 138.495C175.21 137.828 173.483 137.485 171.74 137.485V137.488H108.493C101.593 137.488 96 131.897 96 125C96 118.103 101.593 112.512 108.493 112.512H133.767C135.413 112.477 137.038 112.135 138.56 111.505C140.171 110.838 141.635 109.861 142.868 108.628C144.101 107.396 145.079 105.933 145.746 104.323C146.413 102.713 146.757 100.987 146.757 99.2439C146.757 97.5011 146.413 95.7753 145.746 94.1652C145.079 92.555 144.101 91.092 142.868 89.8596C141.635 88.6272 140.171 87.6497 138.56 86.9827C136.95 86.3158 135.223 85.9725 133.479 85.9725V85.9756H108.493C101.593 85.9756 96 80.3846 96 73.4878C96 66.591 101.593 61 108.493 61H133.479C138.504 61 143.479 61.9892 148.121 63.9112Z" fill="black"/>
<path d="M96 176.512C96 169.615 101.593 164.024 108.493 164.024H115.521C122.42 164.024 128.014 169.615 128.014 176.512C128.014 183.409 122.42 189 115.521 189H108.493C101.593 189 96 183.409 96 176.512Z" fill="black"/>
<path d="M325.67 114.625H310.739C310.466 112.693 309.909 110.977 309.068 109.477C308.227 107.955 307.148 106.659 305.83 105.591C304.511 104.523 302.989 103.705 301.261 103.136C299.557 102.568 297.705 102.284 295.705 102.284C292.091 102.284 288.943 103.182 286.261 104.977C283.58 106.75 281.5 109.341 280.023 112.75C278.545 116.136 277.807 120.25 277.807 125.091C277.807 130.068 278.545 134.25 280.023 137.636C281.523 141.023 283.614 143.58 286.295 145.307C288.977 147.034 292.08 147.898 295.602 147.898C297.58 147.898 299.409 147.636 301.091 147.114C302.795 146.591 304.307 145.83 305.625 144.83C306.943 143.807 308.034 142.568 308.898 141.114C309.784 139.659 310.398 138 310.739 136.136L325.67 136.205C325.284 139.409 324.318 142.5 322.773 145.477C321.25 148.432 319.193 151.08 316.602 153.42C314.034 155.739 310.966 157.58 307.398 158.943C303.852 160.284 299.841 160.955 295.364 160.955C289.136 160.955 283.568 159.545 278.659 156.727C273.773 153.909 269.909 149.83 267.068 144.489C264.25 139.148 262.841 132.682 262.841 125.091C262.841 117.477 264.273 111 267.136 105.659C270 100.318 273.886 96.25 278.795 93.4545C283.705 90.6364 289.227 89.2273 295.364 89.2273C299.409 89.2273 303.159 89.7955 306.614 90.9318C310.091 92.0682 313.17 93.7273 315.852 95.9091C318.534 98.0682 320.716 100.716 322.398 103.852C324.102 106.989 325.193 110.58 325.67 114.625ZM359.642 161.023C354.347 161.023 349.767 159.898 345.903 157.648C342.063 155.375 339.097 152.216 337.006 148.17C334.915 144.102 333.869 139.386 333.869 134.023C333.869 128.614 334.915 123.886 337.006 119.841C339.097 115.773 342.063 112.614 345.903 110.364C349.767 108.091 354.347 106.955 359.642 106.955C364.938 106.955 369.506 108.091 373.347 110.364C377.21 112.614 380.188 115.773 382.278 119.841C384.369 123.886 385.415 128.614 385.415 134.023C385.415 139.386 384.369 144.102 382.278 148.17C380.188 152.216 377.21 155.375 373.347 157.648C369.506 159.898 364.938 161.023 359.642 161.023ZM359.71 149.773C362.119 149.773 364.131 149.091 365.744 147.727C367.358 146.341 368.574 144.455 369.392 142.068C370.233 139.682 370.653 136.966 370.653 133.92C370.653 130.875 370.233 128.159 369.392 125.773C368.574 123.386 367.358 121.5 365.744 120.114C364.131 118.727 362.119 118.034 359.71 118.034C357.278 118.034 355.233 118.727 353.574 120.114C351.938 121.5 350.699 123.386 349.858 125.773C349.04 128.159 348.631 130.875 348.631 133.92C348.631 136.966 349.04 139.682 349.858 142.068C350.699 144.455 351.938 146.341 353.574 147.727C355.233 149.091 357.278 149.773 359.71 149.773ZM394.858 160V107.636H408.699V116.875H409.312C410.403 113.807 412.222 111.386 414.767 109.614C417.312 107.841 420.358 106.955 423.903 106.955C427.494 106.955 430.551 107.852 433.074 109.648C435.597 111.42 437.278 113.83 438.119 116.875H438.665C439.733 113.875 441.665 111.477 444.46 109.682C447.278 107.864 450.608 106.955 454.449 106.955C459.335 106.955 463.301 108.511 466.347 111.625C469.415 114.716 470.949 119.102 470.949 124.784V160H456.46V127.648C456.46 124.739 455.688 122.557 454.142 121.102C452.597 119.648 450.665 118.92 448.347 118.92C445.71 118.92 443.653 119.761 442.176 121.443C440.699 123.102 439.96 125.295 439.96 128.023V160H425.881V127.341C425.881 124.773 425.142 122.727 423.665 121.205C422.21 119.682 420.29 118.92 417.903 118.92C416.29 118.92 414.835 119.33 413.54 120.148C412.267 120.943 411.256 122.068 410.506 123.523C409.756 124.955 409.381 126.636 409.381 128.568V160H394.858ZM482.42 160V107.636H496.261V116.875H496.875C497.966 113.807 499.784 111.386 502.33 109.614C504.875 107.841 507.92 106.955 511.466 106.955C515.057 106.955 518.114 107.852 520.636 109.648C523.159 111.42 524.841 113.83 525.682 116.875H526.227C527.295 113.875 529.227 111.477 532.023 109.682C534.841 107.864 538.17 106.955 542.011 106.955C546.898 106.955 550.864 108.511 553.909 111.625C556.977 114.716 558.511 119.102 558.511 124.784V160H544.023V127.648C544.023 124.739 543.25 122.557 541.705 121.102C540.159 119.648 538.227 118.92 535.909 118.92C533.273 118.92 531.216 119.761 529.739 121.443C528.261 123.102 527.523 125.295 527.523 128.023V160H513.443V127.341C513.443 124.773 512.705 122.727 511.227 121.205C509.773 119.682 507.852 118.92 505.466 118.92C503.852 118.92 502.398 119.33 501.102 120.148C499.83 120.943 498.818 122.068 498.068 123.523C497.318 124.955 496.943 126.636 496.943 128.568V160H482.42ZM603.562 137.705V107.636H618.085V160H604.142V150.489H603.597C602.415 153.557 600.449 156.023 597.699 157.886C594.972 159.75 591.642 160.682 587.71 160.682C584.21 160.682 581.131 159.886 578.472 158.295C575.813 156.705 573.733 154.443 572.233 151.511C570.756 148.58 570.006 145.068 569.983 140.977V107.636H584.506V138.386C584.528 141.477 585.358 143.92 586.994 145.716C588.631 147.511 590.824 148.409 593.574 148.409C595.324 148.409 596.96 148.011 598.483 147.216C600.006 146.398 601.233 145.193 602.165 143.602C603.119 142.011 603.585 140.045 603.562 137.705ZM644.224 129.727V160H629.702V107.636H643.543V116.875H644.156C645.315 113.83 647.259 111.42 649.986 109.648C652.713 107.852 656.02 106.955 659.906 106.955C663.543 106.955 666.713 107.75 669.418 109.341C672.122 110.932 674.224 113.205 675.724 116.159C677.224 119.091 677.974 122.591 677.974 126.659V160H663.452V129.25C663.474 126.045 662.656 123.545 660.997 121.75C659.338 119.932 657.054 119.023 654.145 119.023C652.19 119.023 650.463 119.443 648.963 120.284C647.486 121.125 646.327 122.352 645.486 123.966C644.668 125.557 644.247 127.477 644.224 129.727ZM689.42 160V107.636H703.943V160H689.42ZM696.716 100.886C694.557 100.886 692.705 100.17 691.159 98.7386C689.636 97.2841 688.875 95.5455 688.875 93.5227C688.875 91.5227 689.636 89.8068 691.159 88.375C692.705 86.9205 694.557 86.1932 696.716 86.1932C698.875 86.1932 700.716 86.9205 702.239 88.375C703.784 89.8068 704.557 91.5227 704.557 93.5227C704.557 95.5455 703.784 97.2841 702.239 98.7386C700.716 100.17 698.875 100.886 696.716 100.886ZM743.429 107.636V118.545H711.895V107.636H743.429ZM719.054 95.0909H733.577V143.909C733.577 145.25 733.781 146.295 734.19 147.045C734.599 147.773 735.168 148.284 735.895 148.58C736.645 148.875 737.509 149.023 738.486 149.023C739.168 149.023 739.849 148.966 740.531 148.852C741.213 148.716 741.736 148.614 742.099 148.545L744.384 159.352C743.656 159.58 742.634 159.841 741.315 160.136C739.997 160.455 738.395 160.648 736.509 160.716C733.009 160.852 729.94 160.386 727.304 159.318C724.69 158.25 722.656 156.591 721.202 154.341C719.747 152.091 719.031 149.25 719.054 145.818V95.0909ZM761.855 179.636C760.014 179.636 758.287 179.489 756.673 179.193C755.082 178.92 753.764 178.568 752.719 178.136L755.991 167.295C757.696 167.818 759.23 168.102 760.594 168.148C761.98 168.193 763.173 167.875 764.173 167.193C765.196 166.511 766.026 165.352 766.662 163.716L767.514 161.5L748.73 107.636H764.003L774.844 146.091H775.389L786.332 107.636H801.707L781.355 165.659C780.378 168.477 779.048 170.932 777.366 173.023C775.707 175.136 773.605 176.761 771.06 177.898C768.514 179.057 765.446 179.636 761.855 179.636Z" fill="black"/>
</svg>
