<svg width="2000" height="250" viewBox="0 0 2000 250" fill="none" xmlns="http://www.w3.org/2000/svg">
<rect width="2000" height="250" rx="48" fill="#FDE200"/>
<path d="M148.121 63.9112C151.892 65.4726 155.384 67.6248 158.466 70.2816C159.177 70.895 159.867 71.5353 160.534 72.2014C164.086 75.7527 166.905 79.9687 168.827 84.6086C170.75 89.2486 171.74 94.2217 171.74 99.2439C171.74 103.776 170.934 108.269 169.363 112.512H171.74C176.764 112.512 181.739 113.501 186.381 115.423C190.153 116.985 193.644 119.137 196.726 121.794C197.438 122.407 198.127 123.047 198.794 123.714C202.347 127.265 205.165 131.481 207.088 136.121C209.01 140.761 210 145.734 210 150.756C210 155.778 209.01 160.751 207.088 165.391C205.165 170.031 202.347 174.247 198.794 177.799C198.127 178.465 197.438 179.105 196.726 179.718C193.644 182.375 190.152 184.527 186.381 186.089C181.739 188.011 176.764 189 171.74 189H146.753C139.854 189 134.26 183.409 134.26 176.512C134.26 169.615 139.854 164.024 146.753 164.024H171.74L171.74 164.028C173.483 164.028 175.21 163.684 176.821 163.017C178.431 162.35 179.895 161.373 181.128 160.14C182.361 158.908 183.339 157.445 184.006 155.835C184.673 154.225 185.017 152.499 185.017 150.756C185.017 149.013 184.673 147.288 184.006 145.677C183.339 144.067 182.361 142.604 181.128 141.372C179.895 140.139 178.432 139.162 176.821 138.495C175.21 137.828 173.483 137.485 171.74 137.485V137.488H108.493C101.593 137.488 96 131.897 96 125C96 118.103 101.593 112.512 108.493 112.512H133.767C135.413 112.477 137.038 112.135 138.56 111.505C140.171 110.838 141.635 109.861 142.868 108.628C144.101 107.396 145.079 105.933 145.746 104.323C146.413 102.713 146.757 100.987 146.757 99.2439C146.757 97.5011 146.413 95.7753 145.746 94.1652C145.079 92.555 144.101 91.092 142.868 89.8596C141.635 88.6272 140.171 87.6497 138.56 86.9827C136.95 86.3158 135.223 85.9725 133.479 85.9725V85.9756H108.493C101.593 85.9756 96 80.3846 96 73.4878C96 66.591 101.593 61 108.493 61H133.479C138.504 61 143.479 61.9892 148.121 63.9112Z" fill="black"/>
<path d="M96 176.512C96 169.615 101.593 164.024 108.493 164.024H115.521C122.42 164.024 128.014 169.615 128.014 176.512C128.014 183.409 122.42 189 115.521 189H108.493C101.593 189 96 183.409 96 176.512Z" fill="black"/>
<path d="M287.455 161.023C282.159 161.023 277.58 159.898 273.716 157.648C269.875 155.375 266.909 152.216 264.818 148.17C262.727 144.102 261.682 139.386 261.682 134.023C261.682 128.614 262.727 123.886 264.818 119.841C266.909 115.773 269.875 112.614 273.716 110.364C277.58 108.091 282.159 106.955 287.455 106.955C292.75 106.955 297.318 108.091 301.159 110.364C305.023 112.614 308 115.773 310.091 119.841C312.182 123.886 313.227 128.614 313.227 134.023C313.227 139.386 312.182 144.102 310.091 148.17C308 152.216 305.023 155.375 301.159 157.648C297.318 159.898 292.75 161.023 287.455 161.023ZM287.523 149.773C289.932 149.773 291.943 149.091 293.557 147.727C295.17 146.341 296.386 144.455 297.205 142.068C298.045 139.682 298.466 136.966 298.466 133.92C298.466 130.875 298.045 128.159 297.205 125.773C296.386 123.386 295.17 121.5 293.557 120.114C291.943 118.727 289.932 118.034 287.523 118.034C285.091 118.034 283.045 118.727 281.386 120.114C279.75 121.5 278.511 123.386 277.67 125.773C276.852 128.159 276.443 130.875 276.443 133.92C276.443 136.966 276.852 139.682 277.67 142.068C278.511 144.455 279.75 146.341 281.386 147.727C283.045 149.091 285.091 149.773 287.523 149.773ZM322.67 179.636V107.636H336.989V116.432H337.636C338.273 115.023 339.193 113.591 340.398 112.136C341.625 110.659 343.216 109.432 345.17 108.455C347.148 107.455 349.602 106.955 352.534 106.955C356.352 106.955 359.875 107.955 363.102 109.955C366.33 111.932 368.909 114.92 370.841 118.92C372.773 122.898 373.739 127.886 373.739 133.886C373.739 139.727 372.795 144.659 370.909 148.682C369.045 152.682 366.5 155.716 363.273 157.784C360.068 159.83 356.477 160.852 352.5 160.852C349.682 160.852 347.284 160.386 345.307 159.455C343.352 158.523 341.75 157.352 340.5 155.943C339.25 154.511 338.295 153.068 337.636 151.614H337.193V179.636H322.67ZM336.886 133.818C336.886 136.932 337.318 139.648 338.182 141.966C339.045 144.284 340.295 146.091 341.932 147.386C343.568 148.659 345.557 149.295 347.898 149.295C350.261 149.295 352.261 148.648 353.898 147.352C355.534 146.034 356.773 144.216 357.614 141.898C358.477 139.557 358.909 136.864 358.909 133.818C358.909 130.795 358.489 128.136 357.648 125.841C356.807 123.545 355.568 121.75 353.932 120.455C352.295 119.159 350.284 118.511 347.898 118.511C345.534 118.511 343.534 119.136 341.898 120.386C340.284 121.636 339.045 123.409 338.182 125.705C337.318 128 336.886 130.705 336.886 133.818ZM407.284 161.023C401.898 161.023 397.261 159.932 393.375 157.75C389.511 155.545 386.534 152.432 384.443 148.409C382.352 144.364 381.307 139.58 381.307 134.057C381.307 128.67 382.352 123.943 384.443 119.875C386.534 115.807 389.477 112.636 393.273 110.364C397.091 108.091 401.568 106.955 406.705 106.955C410.159 106.955 413.375 107.511 416.352 108.625C419.352 109.716 421.966 111.364 424.193 113.568C426.443 115.773 428.193 118.545 429.443 121.886C430.693 125.205 431.318 129.091 431.318 133.545V137.534H387.102V128.534H417.648C417.648 126.443 417.193 124.591 416.284 122.977C415.375 121.364 414.114 120.102 412.5 119.193C410.909 118.261 409.057 117.795 406.943 117.795C404.739 117.795 402.784 118.307 401.08 119.33C399.398 120.33 398.08 121.682 397.125 123.386C396.17 125.068 395.682 126.943 395.659 129.011V137.568C395.659 140.159 396.136 142.398 397.091 144.284C398.068 146.17 399.443 147.625 401.216 148.648C402.989 149.67 405.091 150.182 407.523 150.182C409.136 150.182 410.614 149.955 411.955 149.5C413.295 149.045 414.443 148.364 415.398 147.455C416.352 146.545 417.08 145.432 417.58 144.114L431.011 145C430.33 148.227 428.932 151.045 426.818 153.455C424.727 155.841 422.023 157.705 418.705 159.045C415.409 160.364 411.602 161.023 407.284 161.023ZM455.318 129.727V160H440.795V107.636H454.636V116.875H455.25C456.409 113.83 458.352 111.42 461.08 109.648C463.807 107.852 467.114 106.955 471 106.955C474.636 106.955 477.807 107.75 480.511 109.341C483.216 110.932 485.318 113.205 486.818 116.159C488.318 119.091 489.068 122.591 489.068 126.659V160H474.545V129.25C474.568 126.045 473.75 123.545 472.091 121.75C470.432 119.932 468.148 119.023 465.239 119.023C463.284 119.023 461.557 119.443 460.057 120.284C458.58 121.125 457.42 122.352 456.58 123.966C455.761 125.557 455.341 127.477 455.318 129.727ZM515.446 160.989C512.105 160.989 509.128 160.409 506.514 159.25C503.901 158.068 501.832 156.33 500.31 154.034C498.81 151.716 498.06 148.83 498.06 145.375C498.06 142.466 498.594 140.023 499.662 138.045C500.73 136.068 502.185 134.477 504.026 133.273C505.866 132.068 507.957 131.159 510.298 130.545C512.662 129.932 515.139 129.5 517.73 129.25C520.776 128.932 523.23 128.636 525.094 128.364C526.957 128.068 528.31 127.636 529.151 127.068C529.991 126.5 530.412 125.659 530.412 124.545V124.341C530.412 122.182 529.73 120.511 528.366 119.33C527.026 118.148 525.116 117.557 522.639 117.557C520.026 117.557 517.946 118.136 516.401 119.295C514.855 120.432 513.832 121.864 513.332 123.591L499.901 122.5C500.582 119.318 501.923 116.568 503.923 114.25C505.923 111.909 508.503 110.114 511.662 108.864C514.844 107.591 518.526 106.955 522.707 106.955C525.616 106.955 528.401 107.295 531.06 107.977C533.741 108.659 536.116 109.716 538.185 111.148C540.276 112.58 541.923 114.42 543.128 116.67C544.332 118.898 544.935 121.568 544.935 124.682V160H531.162V152.739H530.753C529.912 154.375 528.787 155.818 527.378 157.068C525.969 158.295 524.276 159.261 522.298 159.966C520.321 160.648 518.037 160.989 515.446 160.989ZM519.605 150.966C521.741 150.966 523.628 150.545 525.264 149.705C526.901 148.841 528.185 147.682 529.116 146.227C530.048 144.773 530.514 143.125 530.514 141.284V135.727C530.06 136.023 529.435 136.295 528.639 136.545C527.866 136.773 526.991 136.989 526.014 137.193C525.037 137.375 524.06 137.545 523.082 137.705C522.105 137.841 521.219 137.966 520.423 138.08C518.719 138.33 517.23 138.727 515.957 139.273C514.685 139.818 513.696 140.557 512.991 141.489C512.287 142.398 511.935 143.534 511.935 144.898C511.935 146.875 512.651 148.386 514.082 149.432C515.537 150.455 517.378 150.966 519.605 150.966ZM556.202 179.636V107.636H570.52V116.432H571.168C571.804 115.023 572.724 113.591 573.929 112.136C575.156 110.659 576.747 109.432 578.702 108.455C580.679 107.455 583.134 106.955 586.065 106.955C589.884 106.955 593.406 107.955 596.634 109.955C599.861 111.932 602.44 114.92 604.372 118.92C606.304 122.898 607.27 127.886 607.27 133.886C607.27 139.727 606.327 144.659 604.44 148.682C602.577 152.682 600.031 155.716 596.804 157.784C593.599 159.83 590.009 160.852 586.031 160.852C583.213 160.852 580.815 160.386 578.838 159.455C576.884 158.523 575.281 157.352 574.031 155.943C572.781 154.511 571.827 153.068 571.168 151.614H570.724V179.636H556.202ZM570.418 133.818C570.418 136.932 570.849 139.648 571.713 141.966C572.577 144.284 573.827 146.091 575.463 147.386C577.099 148.659 579.088 149.295 581.429 149.295C583.793 149.295 585.793 148.648 587.429 147.352C589.065 146.034 590.304 144.216 591.145 141.898C592.009 139.557 592.44 136.864 592.44 133.818C592.44 130.795 592.02 128.136 591.179 125.841C590.338 123.545 589.099 121.75 587.463 120.455C585.827 119.159 583.815 118.511 581.429 118.511C579.065 118.511 577.065 119.136 575.429 120.386C573.815 121.636 572.577 123.409 571.713 125.705C570.849 128 570.418 130.705 570.418 133.818ZM616.952 160V107.636H631.474V160H616.952ZM624.247 100.886C622.088 100.886 620.236 100.17 618.69 98.7386C617.168 97.2841 616.406 95.5455 616.406 93.5227C616.406 91.5227 617.168 89.8068 618.69 88.375C620.236 86.9205 622.088 86.1932 624.247 86.1932C626.406 86.1932 628.247 86.9205 629.77 88.375C631.315 89.8068 632.088 91.5227 632.088 93.5227C632.088 95.5455 631.315 97.2841 629.77 98.7386C628.247 100.17 626.406 100.886 624.247 100.886ZM675.733 125.568V137.091H643.892V125.568H675.733ZM715.96 107.636V118.545H684.426V107.636H715.96ZM691.585 95.0909H706.108V143.909C706.108 145.25 706.313 146.295 706.722 147.045C707.131 147.773 707.699 148.284 708.426 148.58C709.176 148.875 710.04 149.023 711.017 149.023C711.699 149.023 712.381 148.966 713.062 148.852C713.744 148.716 714.267 148.614 714.631 148.545L716.915 159.352C716.188 159.58 715.165 159.841 713.847 160.136C712.528 160.455 710.926 160.648 709.04 160.716C705.54 160.852 702.472 160.386 699.835 159.318C697.222 158.25 695.188 156.591 693.733 154.341C692.278 152.091 691.563 149.25 691.585 145.818V95.0909ZM768.332 122.568L755.037 123.386C754.81 122.25 754.321 121.227 753.571 120.318C752.821 119.386 751.832 118.648 750.605 118.102C749.401 117.534 747.957 117.25 746.276 117.25C744.026 117.25 742.128 117.727 740.582 118.682C739.037 119.614 738.264 120.864 738.264 122.432C738.264 123.682 738.764 124.739 739.764 125.602C740.764 126.466 742.48 127.159 744.912 127.682L754.389 129.591C759.48 130.636 763.276 132.318 765.776 134.636C768.276 136.955 769.526 140 769.526 143.773C769.526 147.205 768.514 150.216 766.491 152.807C764.491 155.398 761.741 157.42 758.241 158.875C754.764 160.307 750.753 161.023 746.207 161.023C739.276 161.023 733.753 159.58 729.639 156.693C725.548 153.784 723.151 149.83 722.446 144.83L736.73 144.08C737.162 146.193 738.207 147.807 739.866 148.92C741.526 150.011 743.651 150.557 746.241 150.557C748.787 150.557 750.832 150.068 752.378 149.091C753.946 148.091 754.741 146.807 754.764 145.239C754.741 143.92 754.185 142.841 753.094 142C752.003 141.136 750.321 140.477 748.048 140.023L738.98 138.216C733.866 137.193 730.06 135.42 727.56 132.898C725.082 130.375 723.844 127.159 723.844 123.25C723.844 119.886 724.753 116.989 726.571 114.557C728.412 112.125 730.991 110.25 734.31 108.932C737.651 107.614 741.56 106.955 746.037 106.955C752.651 106.955 757.855 108.352 761.651 111.148C765.469 113.943 767.696 117.75 768.332 122.568ZM811.295 125.568V137.091H779.455V125.568H811.295ZM823.67 160V107.636H837.75V116.773H838.295C839.25 113.523 840.852 111.068 843.102 109.409C845.352 107.727 847.943 106.886 850.875 106.886C851.602 106.886 852.386 106.932 853.227 107.023C854.068 107.114 854.807 107.239 855.443 107.398V120.284C854.761 120.08 853.818 119.898 852.614 119.739C851.409 119.58 850.307 119.5 849.307 119.5C847.17 119.5 845.261 119.966 843.58 120.898C841.92 121.807 840.602 123.08 839.625 124.716C838.67 126.352 838.193 128.239 838.193 130.375V160H823.67ZM884.173 161.023C878.878 161.023 874.298 159.898 870.435 157.648C866.594 155.375 863.628 152.216 861.537 148.17C859.446 144.102 858.401 139.386 858.401 134.023C858.401 128.614 859.446 123.886 861.537 119.841C863.628 115.773 866.594 112.614 870.435 110.364C874.298 108.091 878.878 106.955 884.173 106.955C889.469 106.955 894.037 108.091 897.878 110.364C901.741 112.614 904.719 115.773 906.81 119.841C908.901 123.886 909.946 128.614 909.946 134.023C909.946 139.386 908.901 144.102 906.81 148.17C904.719 152.216 901.741 155.375 897.878 157.648C894.037 159.898 889.469 161.023 884.173 161.023ZM884.241 149.773C886.651 149.773 888.662 149.091 890.276 147.727C891.889 146.341 893.105 144.455 893.923 142.068C894.764 139.682 895.185 136.966 895.185 133.92C895.185 130.875 894.764 128.159 893.923 125.773C893.105 123.386 891.889 121.5 890.276 120.114C888.662 118.727 886.651 118.034 884.241 118.034C881.81 118.034 879.764 118.727 878.105 120.114C876.469 121.5 875.23 123.386 874.389 125.773C873.571 128.159 873.162 130.875 873.162 133.92C873.162 136.966 873.571 139.682 874.389 142.068C875.23 144.455 876.469 146.341 878.105 147.727C879.764 149.091 881.81 149.773 884.241 149.773ZM952.969 137.705V107.636H967.491V160H953.548V150.489H953.003C951.821 153.557 949.855 156.023 947.105 157.886C944.378 159.75 941.048 160.682 937.116 160.682C933.616 160.682 930.537 159.886 927.878 158.295C925.219 156.705 923.139 154.443 921.639 151.511C920.162 148.58 919.412 145.068 919.389 140.977V107.636H933.912V138.386C933.935 141.477 934.764 143.92 936.401 145.716C938.037 147.511 940.23 148.409 942.98 148.409C944.73 148.409 946.366 148.011 947.889 147.216C949.412 146.398 950.639 145.193 951.571 143.602C952.526 142.011 952.991 140.045 952.969 137.705ZM1006.96 107.636V118.545H975.426V107.636H1006.96ZM982.585 95.0909H997.108V143.909C997.108 145.25 997.313 146.295 997.722 147.045C998.131 147.773 998.699 148.284 999.426 148.58C1000.18 148.875 1001.04 149.023 1002.02 149.023C1002.7 149.023 1003.38 148.966 1004.06 148.852C1004.74 148.716 1005.27 148.614 1005.63 148.545L1007.91 159.352C1007.19 159.58 1006.16 159.841 1004.85 160.136C1003.53 160.455 1001.93 160.648 1000.04 160.716C996.54 160.852 993.472 160.386 990.835 159.318C988.222 158.25 986.188 156.591 984.733 154.341C983.278 152.091 982.563 149.25 982.585 145.818V95.0909ZM1039.72 161.023C1034.34 161.023 1029.7 159.932 1025.81 157.75C1021.95 155.545 1018.97 152.432 1016.88 148.409C1014.79 144.364 1013.74 139.58 1013.74 134.057C1013.74 128.67 1014.79 123.943 1016.88 119.875C1018.97 115.807 1021.91 112.636 1025.71 110.364C1029.53 108.091 1034.01 106.955 1039.14 106.955C1042.6 106.955 1045.81 107.511 1048.79 108.625C1051.79 109.716 1054.4 111.364 1056.63 113.568C1058.88 115.773 1060.63 118.545 1061.88 121.886C1063.13 125.205 1063.76 129.091 1063.76 133.545V137.534H1019.54V128.534H1050.09C1050.09 126.443 1049.63 124.591 1048.72 122.977C1047.81 121.364 1046.55 120.102 1044.94 119.193C1043.35 118.261 1041.49 117.795 1039.38 117.795C1037.18 117.795 1035.22 118.307 1033.52 119.33C1031.84 120.33 1030.52 121.682 1029.56 123.386C1028.61 125.068 1028.12 126.943 1028.1 129.011V137.568C1028.1 140.159 1028.57 142.398 1029.53 144.284C1030.51 146.17 1031.88 147.625 1033.65 148.648C1035.43 149.67 1037.53 150.182 1039.96 150.182C1041.57 150.182 1043.05 149.955 1044.39 149.5C1045.73 149.045 1046.88 148.364 1047.84 147.455C1048.79 146.545 1049.52 145.432 1050.02 144.114L1063.45 145C1062.77 148.227 1061.37 151.045 1059.26 153.455C1057.16 155.841 1054.46 157.705 1051.14 159.045C1047.85 160.364 1044.04 161.023 1039.72 161.023ZM1073.23 160V107.636H1087.31V116.773H1087.86C1088.81 113.523 1090.41 111.068 1092.66 109.409C1094.91 107.727 1097.51 106.886 1100.44 106.886C1101.16 106.886 1101.95 106.932 1102.79 107.023C1103.63 107.114 1104.37 107.239 1105.01 107.398V120.284C1104.32 120.08 1103.38 119.898 1102.18 119.739C1100.97 119.58 1099.87 119.5 1098.87 119.5C1096.73 119.5 1094.82 119.966 1093.14 120.898C1091.48 121.807 1090.16 123.08 1089.19 124.716C1088.23 126.352 1087.76 128.239 1087.76 130.375V160H1073.23Z" fill="black"/>
</svg>
