<svg width="2000" height="250" viewBox="0 0 2000 250" fill="none" xmlns="http://www.w3.org/2000/svg">
<rect width="2000" height="250" rx="48" fill="#FDE200"/>
<path d="M148.121 63.9112C151.892 65.4726 155.384 67.6248 158.466 70.2816C159.177 70.895 159.867 71.5353 160.534 72.2014C164.086 75.7527 166.905 79.9687 168.827 84.6086C170.75 89.2486 171.74 94.2217 171.74 99.2439C171.74 103.776 170.934 108.269 169.363 112.512H171.74C176.764 112.512 181.739 113.501 186.381 115.423C190.153 116.985 193.644 119.137 196.726 121.794C197.438 122.407 198.127 123.047 198.794 123.714C202.347 127.265 205.165 131.481 207.088 136.121C209.01 140.761 210 145.734 210 150.756C210 155.778 209.01 160.751 207.088 165.391C205.165 170.031 202.347 174.247 198.794 177.799C198.127 178.465 197.438 179.105 196.726 179.718C193.644 182.375 190.152 184.527 186.381 186.089C181.739 188.011 176.764 189 171.74 189H146.753C139.854 189 134.26 183.409 134.26 176.512C134.26 169.615 139.854 164.024 146.753 164.024H171.74L171.74 164.028C173.483 164.028 175.21 163.684 176.821 163.017C178.431 162.35 179.895 161.373 181.128 160.14C182.361 158.908 183.339 157.445 184.006 155.835C184.673 154.225 185.017 152.499 185.017 150.756C185.017 149.013 184.673 147.288 184.006 145.677C183.339 144.067 182.361 142.604 181.128 141.372C179.895 140.139 178.432 139.162 176.821 138.495C175.21 137.828 173.483 137.485 171.74 137.485V137.488H108.493C101.593 137.488 96 131.897 96 125C96 118.103 101.593 112.512 108.493 112.512H133.767C135.413 112.477 137.038 112.135 138.56 111.505C140.171 110.838 141.635 109.861 142.868 108.628C144.101 107.396 145.079 105.933 145.746 104.323C146.413 102.713 146.757 100.987 146.757 99.2439C146.757 97.5011 146.413 95.7753 145.746 94.1652C145.079 92.555 144.101 91.092 142.868 89.8596C141.635 88.6272 140.171 87.6497 138.56 86.9827C136.95 86.3158 135.223 85.9725 133.479 85.9725V85.9756H108.493C101.593 85.9756 96 80.3846 96 73.4878C96 66.591 101.593 61 108.493 61H133.479C138.504 61 143.479 61.9892 148.121 63.9112Z" fill="black"/>
<path d="M96 176.512C96 169.615 101.593 164.024 108.493 164.024H115.521C122.42 164.024 128.014 169.615 128.014 176.512C128.014 183.409 122.42 189 115.521 189H108.493C101.593 189 96 183.409 96 176.512Z" fill="black"/>
<path d="M309.511 180.114C302.261 180.114 295.807 179.125 290.148 177.148C284.489 175.193 279.705 172.318 275.795 168.523C271.886 164.75 268.909 160.136 266.864 154.682C264.818 149.227 263.795 143.023 263.795 136.068C263.795 129.205 264.818 122.977 266.864 117.386C268.932 111.795 271.943 107 275.898 103C279.852 98.9773 284.682 95.8864 290.386 93.7273C296.114 91.5682 302.636 90.4886 309.955 90.4886C316.727 90.4886 322.773 91.4773 328.091 93.4545C333.432 95.4318 337.955 98.25 341.659 101.909C345.386 105.545 348.216 109.875 350.148 114.898C352.102 119.898 353.068 125.432 353.045 131.5C353.068 135.682 352.705 139.523 351.955 143.023C351.205 146.523 350.023 149.58 348.409 152.193C346.818 154.784 344.727 156.841 342.136 158.364C339.545 159.864 336.409 160.716 332.727 160.92C330.091 161.125 327.955 160.932 326.318 160.341C324.682 159.75 323.432 158.875 322.568 157.716C321.727 156.534 321.182 155.159 320.932 153.591H320.523C319.977 154.955 318.909 156.193 317.318 157.307C315.727 158.398 313.784 159.25 311.489 159.864C309.216 160.455 306.795 160.67 304.227 160.511C301.545 160.352 299 159.727 296.591 158.636C294.205 157.545 292.08 155.966 290.216 153.898C288.375 151.83 286.92 149.273 285.852 146.227C284.807 143.182 284.273 139.659 284.25 135.659C284.273 131.705 284.83 128.261 285.92 125.33C287.034 122.398 288.5 119.932 290.318 117.932C292.159 115.932 294.205 114.364 296.455 113.227C298.705 112.091 300.966 111.364 303.239 111.045C305.807 110.659 308.239 110.659 310.534 111.045C312.83 111.432 314.761 112.057 316.33 112.92C317.92 113.784 318.909 114.716 319.295 115.716H319.773V111.898H330.443V145.17C330.466 146.739 330.818 147.955 331.5 148.818C332.182 149.682 333.102 150.114 334.261 150.114C335.83 150.114 337.136 149.42 338.182 148.034C339.25 146.648 340.045 144.523 340.568 141.659C341.114 138.795 341.386 135.148 341.386 130.716C341.386 126.443 340.818 122.693 339.682 119.466C338.568 116.216 337 113.455 334.977 111.182C332.977 108.886 330.648 107.023 327.989 105.591C325.33 104.159 322.443 103.114 319.33 102.455C316.239 101.795 313.057 101.466 309.784 101.466C304.125 101.466 299.182 102.33 294.955 104.057C290.727 105.761 287.205 108.159 284.386 111.25C281.568 114.341 279.455 117.966 278.045 122.125C276.659 126.261 275.955 130.773 275.932 135.659C275.955 141.045 276.705 145.818 278.182 149.977C279.682 154.114 281.886 157.591 284.795 160.409C287.705 163.227 291.295 165.364 295.568 166.818C299.841 168.273 304.75 169 310.295 169C312.909 169 315.466 168.807 317.966 168.42C320.466 168.057 322.727 167.602 324.75 167.057C326.773 166.534 328.398 166.023 329.625 165.523L333 175.409C331.568 176.227 329.625 176.989 327.17 177.693C324.739 178.42 321.989 179 318.92 179.432C315.875 179.886 312.739 180.114 309.511 180.114ZM307.943 149.295C310.716 149.295 312.92 148.761 314.557 147.693C316.216 146.625 317.398 145.045 318.102 142.955C318.83 140.841 319.17 138.239 319.125 135.148C319.102 132.42 318.75 130.114 318.068 128.227C317.409 126.318 316.261 124.875 314.625 123.898C313.011 122.898 310.761 122.398 307.875 122.398C305.352 122.398 303.205 122.932 301.432 124C299.682 125.068 298.341 126.568 297.409 128.5C296.5 130.409 296.034 132.659 296.011 135.25C296.034 137.659 296.42 139.943 297.17 142.102C297.92 144.239 299.159 145.977 300.886 147.318C302.614 148.636 304.966 149.295 307.943 149.295ZM362.974 160V90.1818H377.497V116.432H377.94C378.577 115.023 379.497 113.591 380.702 112.136C381.929 110.659 383.52 109.432 385.474 108.455C387.452 107.455 389.906 106.955 392.838 106.955C396.656 106.955 400.179 107.955 403.406 109.955C406.634 111.932 409.213 114.92 411.145 118.92C413.077 122.898 414.043 127.886 414.043 133.886C414.043 139.727 413.099 144.659 411.213 148.682C409.349 152.682 406.804 155.716 403.577 157.784C400.372 159.83 396.781 160.852 392.804 160.852C389.986 160.852 387.588 160.386 385.611 159.455C383.656 158.523 382.054 157.352 380.804 155.943C379.554 154.511 378.599 153.068 377.94 151.614H377.293V160H362.974ZM377.19 133.818C377.19 136.932 377.622 139.648 378.486 141.966C379.349 144.284 380.599 146.091 382.236 147.386C383.872 148.659 385.861 149.295 388.202 149.295C390.565 149.295 392.565 148.648 394.202 147.352C395.838 146.034 397.077 144.216 397.918 141.898C398.781 139.557 399.213 136.864 399.213 133.818C399.213 130.795 398.793 128.136 397.952 125.841C397.111 123.545 395.872 121.75 394.236 120.455C392.599 119.159 390.588 118.511 388.202 118.511C385.838 118.511 383.838 119.136 382.202 120.386C380.588 121.636 379.349 123.409 378.486 125.705C377.622 128 377.19 130.705 377.19 133.818ZM438.256 90.1818V160H423.733V90.1818H438.256ZM473.48 180.727C468.776 180.727 464.741 180.08 461.378 178.784C458.037 177.511 455.378 175.773 453.401 173.568C451.423 171.364 450.139 168.886 449.548 166.136L462.98 164.33C463.389 165.375 464.037 166.352 464.923 167.261C465.81 168.17 466.98 168.898 468.435 169.443C469.912 170.011 471.707 170.295 473.821 170.295C476.98 170.295 479.582 169.523 481.628 167.977C483.696 166.455 484.73 163.898 484.73 160.307V150.727H484.116C483.48 152.182 482.526 153.557 481.253 154.852C479.98 156.148 478.344 157.205 476.344 158.023C474.344 158.841 471.957 159.25 469.185 159.25C465.253 159.25 461.673 158.341 458.446 156.523C455.241 154.682 452.685 151.875 450.776 148.102C448.889 144.307 447.946 139.511 447.946 133.716C447.946 127.784 448.912 122.83 450.844 118.852C452.776 114.875 455.344 111.898 458.548 109.92C461.776 107.943 465.31 106.955 469.151 106.955C472.082 106.955 474.537 107.455 476.514 108.455C478.491 109.432 480.082 110.659 481.287 112.136C482.514 113.591 483.457 115.023 484.116 116.432H484.662V107.636H499.082V160.511C499.082 164.966 497.991 168.693 495.81 171.693C493.628 174.693 490.605 176.943 486.741 178.443C482.901 179.966 478.48 180.727 473.48 180.727ZM473.787 148.341C476.128 148.341 478.105 147.761 479.719 146.602C481.355 145.42 482.605 143.739 483.469 141.557C484.355 139.352 484.798 136.716 484.798 133.648C484.798 130.58 484.366 127.92 483.503 125.67C482.639 123.398 481.389 121.636 479.753 120.386C478.116 119.136 476.128 118.511 473.787 118.511C471.401 118.511 469.389 119.159 467.753 120.455C466.116 121.727 464.878 123.5 464.037 125.773C463.196 128.045 462.776 130.67 462.776 133.648C462.776 136.67 463.196 139.284 464.037 141.489C464.901 143.67 466.139 145.364 467.753 146.568C469.389 147.75 471.401 148.341 473.787 148.341ZM534.298 161.023C528.935 161.023 524.321 159.886 520.457 157.614C516.616 155.318 513.662 152.136 511.594 148.068C509.548 144 508.526 139.318 508.526 134.023C508.526 128.659 509.56 123.955 511.628 119.909C513.719 115.841 516.685 112.67 520.526 110.398C524.366 108.102 528.935 106.955 534.23 106.955C538.798 106.955 542.798 107.784 546.23 109.443C549.662 111.102 552.378 113.432 554.378 116.432C556.378 119.432 557.48 122.955 557.685 127H543.98C543.594 124.386 542.571 122.284 540.912 120.693C539.276 119.08 537.128 118.273 534.469 118.273C532.219 118.273 530.253 118.886 528.571 120.114C526.912 121.318 525.616 123.08 524.685 125.398C523.753 127.716 523.287 130.523 523.287 133.818C523.287 137.159 523.741 140 524.651 142.341C525.582 144.682 526.889 146.466 528.571 147.693C530.253 148.92 532.219 149.534 534.469 149.534C536.128 149.534 537.616 149.193 538.935 148.511C540.276 147.83 541.378 146.841 542.241 145.545C543.128 144.227 543.707 142.648 543.98 140.807H557.685C557.457 144.807 556.366 148.33 554.412 151.375C552.48 154.398 549.81 156.761 546.401 158.466C542.991 160.17 538.957 161.023 534.298 161.023ZM597.392 86.9091L574.892 170.5H562.381L584.881 86.9091H597.392ZM628.048 161.023C622.753 161.023 618.173 159.898 614.31 157.648C610.469 155.375 607.503 152.216 605.412 148.17C603.321 144.102 602.276 139.386 602.276 134.023C602.276 128.614 603.321 123.886 605.412 119.841C607.503 115.773 610.469 112.614 614.31 110.364C618.173 108.091 622.753 106.955 628.048 106.955C633.344 106.955 637.912 108.091 641.753 110.364C645.616 112.614 648.594 115.773 650.685 119.841C652.776 123.886 653.821 128.614 653.821 134.023C653.821 139.386 652.776 144.102 650.685 148.17C648.594 152.216 645.616 155.375 641.753 157.648C637.912 159.898 633.344 161.023 628.048 161.023ZM628.116 149.773C630.526 149.773 632.537 149.091 634.151 147.727C635.764 146.341 636.98 144.455 637.798 142.068C638.639 139.682 639.06 136.966 639.06 133.92C639.06 130.875 638.639 128.159 637.798 125.773C636.98 123.386 635.764 121.5 634.151 120.114C632.537 118.727 630.526 118.034 628.116 118.034C625.685 118.034 623.639 118.727 621.98 120.114C620.344 121.5 619.105 123.386 618.264 125.773C617.446 128.159 617.037 130.875 617.037 133.92C617.037 136.966 617.446 139.682 618.264 142.068C619.105 144.455 620.344 146.341 621.98 147.727C623.639 149.091 625.685 149.773 628.116 149.773ZM663.264 179.636V107.636H677.582V116.432H678.23C678.866 115.023 679.787 113.591 680.991 112.136C682.219 110.659 683.81 109.432 685.764 108.455C687.741 107.455 690.196 106.955 693.128 106.955C696.946 106.955 700.469 107.955 703.696 109.955C706.923 111.932 709.503 114.92 711.435 118.92C713.366 122.898 714.332 127.886 714.332 133.886C714.332 139.727 713.389 144.659 711.503 148.682C709.639 152.682 707.094 155.716 703.866 157.784C700.662 159.83 697.071 160.852 693.094 160.852C690.276 160.852 687.878 160.386 685.901 159.455C683.946 158.523 682.344 157.352 681.094 155.943C679.844 154.511 678.889 153.068 678.23 151.614H677.787V179.636H663.264ZM677.48 133.818C677.48 136.932 677.912 139.648 678.776 141.966C679.639 144.284 680.889 146.091 682.526 147.386C684.162 148.659 686.151 149.295 688.491 149.295C690.855 149.295 692.855 148.648 694.491 147.352C696.128 146.034 697.366 144.216 698.207 141.898C699.071 139.557 699.503 136.864 699.503 133.818C699.503 130.795 699.082 128.136 698.241 125.841C697.401 123.545 696.162 121.75 694.526 120.455C692.889 119.159 690.878 118.511 688.491 118.511C686.128 118.511 684.128 119.136 682.491 120.386C680.878 121.636 679.639 123.409 678.776 125.705C677.912 128 677.48 130.705 677.48 133.818ZM747.878 161.023C742.491 161.023 737.855 159.932 733.969 157.75C730.105 155.545 727.128 152.432 725.037 148.409C722.946 144.364 721.901 139.58 721.901 134.057C721.901 128.67 722.946 123.943 725.037 119.875C727.128 115.807 730.071 112.636 733.866 110.364C737.685 108.091 742.162 106.955 747.298 106.955C750.753 106.955 753.969 107.511 756.946 108.625C759.946 109.716 762.56 111.364 764.787 113.568C767.037 115.773 768.787 118.545 770.037 121.886C771.287 125.205 771.912 129.091 771.912 133.545V137.534H727.696V128.534H758.241C758.241 126.443 757.787 124.591 756.878 122.977C755.969 121.364 754.707 120.102 753.094 119.193C751.503 118.261 749.651 117.795 747.537 117.795C745.332 117.795 743.378 118.307 741.673 119.33C739.991 120.33 738.673 121.682 737.719 123.386C736.764 125.068 736.276 126.943 736.253 129.011V137.568C736.253 140.159 736.73 142.398 737.685 144.284C738.662 146.17 740.037 147.625 741.81 148.648C743.582 149.67 745.685 150.182 748.116 150.182C749.73 150.182 751.207 149.955 752.548 149.5C753.889 149.045 755.037 148.364 755.991 147.455C756.946 146.545 757.673 145.432 758.173 144.114L771.605 145C770.923 148.227 769.526 151.045 767.412 153.455C765.321 155.841 762.616 157.705 759.298 159.045C756.003 160.364 752.196 161.023 747.878 161.023ZM795.912 129.727V160H781.389V107.636H795.23V116.875H795.844C797.003 113.83 798.946 111.42 801.673 109.648C804.401 107.852 807.707 106.955 811.594 106.955C815.23 106.955 818.401 107.75 821.105 109.341C823.81 110.932 825.912 113.205 827.412 116.159C828.912 119.091 829.662 122.591 829.662 126.659V160H815.139V129.25C815.162 126.045 814.344 123.545 812.685 121.75C811.026 119.932 808.741 119.023 805.832 119.023C803.878 119.023 802.151 119.443 800.651 120.284C799.173 121.125 798.014 122.352 797.173 123.966C796.355 125.557 795.935 127.477 795.912 129.727ZM856.04 160.989C852.699 160.989 849.722 160.409 847.108 159.25C844.494 158.068 842.426 156.33 840.903 154.034C839.403 151.716 838.653 148.83 838.653 145.375C838.653 142.466 839.188 140.023 840.256 138.045C841.324 136.068 842.778 134.477 844.619 133.273C846.46 132.068 848.551 131.159 850.892 130.545C853.256 129.932 855.733 129.5 858.324 129.25C861.369 128.932 863.824 128.636 865.688 128.364C867.551 128.068 868.903 127.636 869.744 127.068C870.585 126.5 871.006 125.659 871.006 124.545V124.341C871.006 122.182 870.324 120.511 868.96 119.33C867.619 118.148 865.71 117.557 863.233 117.557C860.619 117.557 858.54 118.136 856.994 119.295C855.449 120.432 854.426 121.864 853.926 123.591L840.494 122.5C841.176 119.318 842.517 116.568 844.517 114.25C846.517 111.909 849.097 110.114 852.256 108.864C855.438 107.591 859.119 106.955 863.301 106.955C866.21 106.955 868.994 107.295 871.653 107.977C874.335 108.659 876.71 109.716 878.778 111.148C880.869 112.58 882.517 114.42 883.722 116.67C884.926 118.898 885.528 121.568 885.528 124.682V160H871.756V152.739H871.347C870.506 154.375 869.381 155.818 867.972 157.068C866.562 158.295 864.869 159.261 862.892 159.966C860.915 160.648 858.631 160.989 856.04 160.989ZM860.199 150.966C862.335 150.966 864.222 150.545 865.858 149.705C867.494 148.841 868.778 147.682 869.71 146.227C870.642 144.773 871.108 143.125 871.108 141.284V135.727C870.653 136.023 870.028 136.295 869.233 136.545C868.46 136.773 867.585 136.989 866.608 137.193C865.631 137.375 864.653 137.545 863.676 137.705C862.699 137.841 861.812 137.966 861.017 138.08C859.313 138.33 857.824 138.727 856.551 139.273C855.278 139.818 854.29 140.557 853.585 141.489C852.881 142.398 852.528 143.534 852.528 144.898C852.528 146.875 853.244 148.386 854.676 149.432C856.131 150.455 857.972 150.966 860.199 150.966ZM896.795 179.636V107.636H911.114V116.432H911.761C912.398 115.023 913.318 113.591 914.523 112.136C915.75 110.659 917.341 109.432 919.295 108.455C921.273 107.455 923.727 106.955 926.659 106.955C930.477 106.955 934 107.955 937.227 109.955C940.455 111.932 943.034 114.92 944.966 118.92C946.898 122.898 947.864 127.886 947.864 133.886C947.864 139.727 946.92 144.659 945.034 148.682C943.17 152.682 940.625 155.716 937.398 157.784C934.193 159.83 930.602 160.852 926.625 160.852C923.807 160.852 921.409 160.386 919.432 159.455C917.477 158.523 915.875 157.352 914.625 155.943C913.375 154.511 912.42 153.068 911.761 151.614H911.318V179.636H896.795ZM911.011 133.818C911.011 136.932 911.443 139.648 912.307 141.966C913.17 144.284 914.42 146.091 916.057 147.386C917.693 148.659 919.682 149.295 922.023 149.295C924.386 149.295 926.386 148.648 928.023 147.352C929.659 146.034 930.898 144.216 931.739 141.898C932.602 139.557 933.034 136.864 933.034 133.818C933.034 130.795 932.614 128.136 931.773 125.841C930.932 123.545 929.693 121.75 928.057 120.455C926.42 119.159 924.409 118.511 922.023 118.511C919.659 118.511 917.659 119.136 916.023 120.386C914.409 121.636 913.17 123.409 912.307 125.705C911.443 128 911.011 130.705 911.011 133.818ZM957.545 160V107.636H972.068V160H957.545ZM964.841 100.886C962.682 100.886 960.83 100.17 959.284 98.7386C957.761 97.2841 957 95.5455 957 93.5227C957 91.5227 957.761 89.8068 959.284 88.375C960.83 86.9205 962.682 86.1932 964.841 86.1932C967 86.1932 968.841 86.9205 970.364 88.375C971.909 89.8068 972.682 91.5227 972.682 93.5227C972.682 95.5455 971.909 97.2841 970.364 98.7386C968.841 100.17 967 100.886 964.841 100.886ZM1016.33 125.568V137.091H984.486V125.568H1016.33ZM1028.7 160V107.636H1042.78V116.773H1043.33C1044.28 113.523 1045.88 111.068 1048.13 109.409C1050.38 107.727 1052.97 106.886 1055.91 106.886C1056.63 106.886 1057.42 106.932 1058.26 107.023C1059.1 107.114 1059.84 107.239 1060.47 107.398V120.284C1059.79 120.08 1058.85 119.898 1057.64 119.739C1056.44 119.58 1055.34 119.5 1054.34 119.5C1052.2 119.5 1050.29 119.966 1048.61 120.898C1046.95 121.807 1045.63 123.08 1044.66 124.716C1043.7 126.352 1043.22 128.239 1043.22 130.375V160H1028.7ZM1089.2 161.023C1083.91 161.023 1079.33 159.898 1075.47 157.648C1071.63 155.375 1068.66 152.216 1066.57 148.17C1064.48 144.102 1063.43 139.386 1063.43 134.023C1063.43 128.614 1064.48 123.886 1066.57 119.841C1068.66 115.773 1071.63 112.614 1075.47 110.364C1079.33 108.091 1083.91 106.955 1089.2 106.955C1094.5 106.955 1099.07 108.091 1102.91 110.364C1106.77 112.614 1109.75 115.773 1111.84 119.841C1113.93 123.886 1114.98 128.614 1114.98 134.023C1114.98 139.386 1113.93 144.102 1111.84 148.17C1109.75 152.216 1106.77 155.375 1102.91 157.648C1099.07 159.898 1094.5 161.023 1089.2 161.023ZM1089.27 149.773C1091.68 149.773 1093.69 149.091 1095.31 147.727C1096.92 146.341 1098.14 144.455 1098.95 142.068C1099.8 139.682 1100.22 136.966 1100.22 133.92C1100.22 130.875 1099.8 128.159 1098.95 125.773C1098.14 123.386 1096.92 121.5 1095.31 120.114C1093.69 118.727 1091.68 118.034 1089.27 118.034C1086.84 118.034 1084.8 118.727 1083.14 120.114C1081.5 121.5 1080.26 123.386 1079.42 125.773C1078.6 128.159 1078.19 130.875 1078.19 133.92C1078.19 136.966 1078.6 139.682 1079.42 142.068C1080.26 144.455 1081.5 146.341 1083.14 147.727C1084.8 149.091 1086.84 149.773 1089.27 149.773ZM1158 137.705V107.636H1172.52V160H1158.58V150.489H1158.03C1156.85 153.557 1154.89 156.023 1152.14 157.886C1149.41 159.75 1146.08 160.682 1142.15 160.682C1138.65 160.682 1135.57 159.886 1132.91 158.295C1130.25 156.705 1128.17 154.443 1126.67 151.511C1125.19 148.58 1124.44 145.068 1124.42 140.977V107.636H1138.94V138.386C1138.97 141.477 1139.8 143.92 1141.43 145.716C1143.07 147.511 1145.26 148.409 1148.01 148.409C1149.76 148.409 1151.4 148.011 1152.92 147.216C1154.44 146.398 1155.67 145.193 1156.6 143.602C1157.56 142.011 1158.02 140.045 1158 137.705ZM1211.99 107.636V118.545H1180.46V107.636H1211.99ZM1187.62 95.0909H1202.14V143.909C1202.14 145.25 1202.34 146.295 1202.75 147.045C1203.16 147.773 1203.73 148.284 1204.46 148.58C1205.21 148.875 1206.07 149.023 1207.05 149.023C1207.73 149.023 1208.41 148.966 1209.09 148.852C1209.78 148.716 1210.3 148.614 1210.66 148.545L1212.95 159.352C1212.22 159.58 1211.2 159.841 1209.88 160.136C1208.56 160.455 1206.96 160.648 1205.07 160.716C1201.57 160.852 1198.5 160.386 1195.87 159.318C1193.25 158.25 1191.22 156.591 1189.76 154.341C1188.31 152.091 1187.59 149.25 1187.62 145.818V95.0909ZM1244.75 161.023C1239.37 161.023 1234.73 159.932 1230.84 157.75C1226.98 155.545 1224 152.432 1221.91 148.409C1219.82 144.364 1218.78 139.58 1218.78 134.057C1218.78 128.67 1219.82 123.943 1221.91 119.875C1224 115.807 1226.95 112.636 1230.74 110.364C1234.56 108.091 1239.04 106.955 1244.17 106.955C1247.63 106.955 1250.84 107.511 1253.82 108.625C1256.82 109.716 1259.43 111.364 1261.66 113.568C1263.91 115.773 1265.66 118.545 1266.91 121.886C1268.16 125.205 1268.79 129.091 1268.79 133.545V137.534H1224.57V128.534H1255.12C1255.12 126.443 1254.66 124.591 1253.75 122.977C1252.84 121.364 1251.58 120.102 1249.97 119.193C1248.38 118.261 1246.53 117.795 1244.41 117.795C1242.21 117.795 1240.25 118.307 1238.55 119.33C1236.87 120.33 1235.55 121.682 1234.59 123.386C1233.64 125.068 1233.15 126.943 1233.13 129.011V137.568C1233.13 140.159 1233.61 142.398 1234.56 144.284C1235.54 146.17 1236.91 147.625 1238.68 148.648C1240.46 149.67 1242.56 150.182 1244.99 150.182C1246.61 150.182 1248.08 149.955 1249.42 149.5C1250.76 149.045 1251.91 148.364 1252.87 147.455C1253.82 146.545 1254.55 145.432 1255.05 144.114L1268.48 145C1267.8 148.227 1266.4 151.045 1264.29 153.455C1262.2 155.841 1259.49 157.705 1256.17 159.045C1252.88 160.364 1249.07 161.023 1244.75 161.023ZM1278.26 160V107.636H1292.34V116.773H1292.89C1293.84 113.523 1295.45 111.068 1297.7 109.409C1299.95 107.727 1302.54 106.886 1305.47 106.886C1306.2 106.886 1306.98 106.932 1307.82 107.023C1308.66 107.114 1309.4 107.239 1310.04 107.398V120.284C1309.36 120.08 1308.41 119.898 1307.21 119.739C1306 119.58 1304.9 119.5 1303.9 119.5C1301.76 119.5 1299.86 119.966 1298.17 120.898C1296.51 121.807 1295.2 123.08 1294.22 124.716C1293.26 126.352 1292.79 128.239 1292.79 130.375V160H1278.26Z" fill="black"/>
</svg>
