<svg width="2000" height="250" viewBox="0 0 2000 250" fill="none" xmlns="http://www.w3.org/2000/svg">
<rect width="2000" height="250" rx="48" fill="#FDE200"/>
<path d="M148.121 63.9112C151.892 65.4726 155.384 67.6248 158.466 70.2816C159.177 70.895 159.867 71.5353 160.534 72.2014C164.086 75.7527 166.905 79.9687 168.827 84.6086C170.75 89.2486 171.74 94.2217 171.74 99.2439C171.74 103.776 170.934 108.269 169.363 112.512H171.74C176.764 112.512 181.739 113.501 186.381 115.423C190.153 116.985 193.644 119.137 196.726 121.794C197.438 122.407 198.127 123.047 198.794 123.714C202.347 127.265 205.165 131.481 207.088 136.121C209.01 140.761 210 145.734 210 150.756C210 155.778 209.01 160.751 207.088 165.391C205.165 170.031 202.347 174.247 198.794 177.799C198.127 178.465 197.438 179.105 196.726 179.718C193.644 182.375 190.152 184.527 186.381 186.089C181.739 188.011 176.764 189 171.74 189H146.753C139.854 189 134.26 183.409 134.26 176.512C134.26 169.615 139.854 164.024 146.753 164.024H171.74L171.74 164.028C173.483 164.028 175.21 163.684 176.821 163.017C178.431 162.35 179.895 161.373 181.128 160.14C182.361 158.908 183.339 157.445 184.006 155.835C184.673 154.225 185.017 152.499 185.017 150.756C185.017 149.013 184.673 147.288 184.006 145.677C183.339 144.067 182.361 142.604 181.128 141.372C179.895 140.139 178.432 139.162 176.821 138.495C175.21 137.828 173.483 137.485 171.74 137.485V137.488H108.493C101.593 137.488 96 131.897 96 125C96 118.103 101.593 112.512 108.493 112.512H133.767C135.413 112.477 137.038 112.135 138.56 111.505C140.171 110.838 141.635 109.861 142.868 108.628C144.101 107.396 145.079 105.933 145.746 104.323C146.413 102.713 146.757 100.987 146.757 99.2439C146.757 97.5011 146.413 95.7753 145.746 94.1652C145.079 92.555 144.101 91.092 142.868 89.8596C141.635 88.6272 140.171 87.6497 138.56 86.9827C136.95 86.3158 135.223 85.9725 133.479 85.9725V85.9756H108.493C101.593 85.9756 96 80.3846 96 73.4878C96 66.591 101.593 61 108.493 61H133.479C138.504 61 143.479 61.9892 148.121 63.9112Z" fill="black"/>
<path d="M96 176.512C96 169.615 101.593 164.024 108.493 164.024H115.521C122.42 164.024 128.014 169.615 128.014 176.512C128.014 183.409 122.42 189 115.521 189H108.493C101.593 189 96 183.409 96 176.512Z" fill="black"/>
<path d="M309.511 180.114C302.261 180.114 295.807 179.125 290.148 177.148C284.489 175.193 279.705 172.318 275.795 168.523C271.886 164.75 268.909 160.136 266.864 154.682C264.818 149.227 263.795 143.023 263.795 136.068C263.795 129.205 264.818 122.977 266.864 117.386C268.932 111.795 271.943 107 275.898 103C279.852 98.9773 284.682 95.8864 290.386 93.7273C296.114 91.5682 302.636 90.4886 309.955 90.4886C316.727 90.4886 322.773 91.4773 328.091 93.4545C333.432 95.4318 337.955 98.25 341.659 101.909C345.386 105.545 348.216 109.875 350.148 114.898C352.102 119.898 353.068 125.432 353.045 131.5C353.068 135.682 352.705 139.523 351.955 143.023C351.205 146.523 350.023 149.58 348.409 152.193C346.818 154.784 344.727 156.841 342.136 158.364C339.545 159.864 336.409 160.716 332.727 160.92C330.091 161.125 327.955 160.932 326.318 160.341C324.682 159.75 323.432 158.875 322.568 157.716C321.727 156.534 321.182 155.159 320.932 153.591H320.523C319.977 154.955 318.909 156.193 317.318 157.307C315.727 158.398 313.784 159.25 311.489 159.864C309.216 160.455 306.795 160.67 304.227 160.511C301.545 160.352 299 159.727 296.591 158.636C294.205 157.545 292.08 155.966 290.216 153.898C288.375 151.83 286.92 149.273 285.852 146.227C284.807 143.182 284.273 139.659 284.25 135.659C284.273 131.705 284.83 128.261 285.92 125.33C287.034 122.398 288.5 119.932 290.318 117.932C292.159 115.932 294.205 114.364 296.455 113.227C298.705 112.091 300.966 111.364 303.239 111.045C305.807 110.659 308.239 110.659 310.534 111.045C312.83 111.432 314.761 112.057 316.33 112.92C317.92 113.784 318.909 114.716 319.295 115.716H319.773V111.898H330.443V145.17C330.466 146.739 330.818 147.955 331.5 148.818C332.182 149.682 333.102 150.114 334.261 150.114C335.83 150.114 337.136 149.42 338.182 148.034C339.25 146.648 340.045 144.523 340.568 141.659C341.114 138.795 341.386 135.148 341.386 130.716C341.386 126.443 340.818 122.693 339.682 119.466C338.568 116.216 337 113.455 334.977 111.182C332.977 108.886 330.648 107.023 327.989 105.591C325.33 104.159 322.443 103.114 319.33 102.455C316.239 101.795 313.057 101.466 309.784 101.466C304.125 101.466 299.182 102.33 294.955 104.057C290.727 105.761 287.205 108.159 284.386 111.25C281.568 114.341 279.455 117.966 278.045 122.125C276.659 126.261 275.955 130.773 275.932 135.659C275.955 141.045 276.705 145.818 278.182 149.977C279.682 154.114 281.886 157.591 284.795 160.409C287.705 163.227 291.295 165.364 295.568 166.818C299.841 168.273 304.75 169 310.295 169C312.909 169 315.466 168.807 317.966 168.42C320.466 168.057 322.727 167.602 324.75 167.057C326.773 166.534 328.398 166.023 329.625 165.523L333 175.409C331.568 176.227 329.625 176.989 327.17 177.693C324.739 178.42 321.989 179 318.92 179.432C315.875 179.886 312.739 180.114 309.511 180.114ZM307.943 149.295C310.716 149.295 312.92 148.761 314.557 147.693C316.216 146.625 317.398 145.045 318.102 142.955C318.83 140.841 319.17 138.239 319.125 135.148C319.102 132.42 318.75 130.114 318.068 128.227C317.409 126.318 316.261 124.875 314.625 123.898C313.011 122.898 310.761 122.398 307.875 122.398C305.352 122.398 303.205 122.932 301.432 124C299.682 125.068 298.341 126.568 297.409 128.5C296.5 130.409 296.034 132.659 296.011 135.25C296.034 137.659 296.42 139.943 297.17 142.102C297.92 144.239 299.159 145.977 300.886 147.318C302.614 148.636 304.966 149.295 307.943 149.295ZM362.702 160V107.636H377.224V160H362.702ZM369.997 100.886C367.838 100.886 365.986 100.17 364.44 98.7386C362.918 97.2841 362.156 95.5455 362.156 93.5227C362.156 91.5227 362.918 89.8068 364.44 88.375C365.986 86.9205 367.838 86.1932 369.997 86.1932C372.156 86.1932 373.997 86.9205 375.52 88.375C377.065 89.8068 377.838 91.5227 377.838 93.5227C377.838 95.5455 377.065 97.2841 375.52 98.7386C373.997 100.17 372.156 100.886 369.997 100.886ZM389.131 160V90.1818H403.653V116.432H404.097C404.733 115.023 405.653 113.591 406.858 112.136C408.085 110.659 409.676 109.432 411.631 108.455C413.608 107.455 416.063 106.955 418.994 106.955C422.813 106.955 426.335 107.955 429.562 109.955C432.79 111.932 435.369 114.92 437.301 118.92C439.233 122.898 440.199 127.886 440.199 133.886C440.199 139.727 439.256 144.659 437.369 148.682C435.506 152.682 432.96 155.716 429.733 157.784C426.528 159.83 422.938 160.852 418.96 160.852C416.142 160.852 413.744 160.386 411.767 159.455C409.812 158.523 408.21 157.352 406.96 155.943C405.71 154.511 404.756 153.068 404.097 151.614H403.449V160H389.131ZM403.347 133.818C403.347 136.932 403.778 139.648 404.642 141.966C405.506 144.284 406.756 146.091 408.392 147.386C410.028 148.659 412.017 149.295 414.358 149.295C416.722 149.295 418.722 148.648 420.358 147.352C421.994 146.034 423.233 144.216 424.074 141.898C424.938 139.557 425.369 136.864 425.369 133.818C425.369 130.795 424.949 128.136 424.108 125.841C423.267 123.545 422.028 121.75 420.392 120.455C418.756 119.159 416.744 118.511 414.358 118.511C411.994 118.511 409.994 119.136 408.358 120.386C406.744 121.636 405.506 123.409 404.642 125.705C403.778 128 403.347 130.705 403.347 133.818ZM473.48 180.727C468.776 180.727 464.741 180.08 461.378 178.784C458.037 177.511 455.378 175.773 453.401 173.568C451.423 171.364 450.139 168.886 449.548 166.136L462.98 164.33C463.389 165.375 464.037 166.352 464.923 167.261C465.81 168.17 466.98 168.898 468.435 169.443C469.912 170.011 471.707 170.295 473.821 170.295C476.98 170.295 479.582 169.523 481.628 167.977C483.696 166.455 484.73 163.898 484.73 160.307V150.727H484.116C483.48 152.182 482.526 153.557 481.253 154.852C479.98 156.148 478.344 157.205 476.344 158.023C474.344 158.841 471.957 159.25 469.185 159.25C465.253 159.25 461.673 158.341 458.446 156.523C455.241 154.682 452.685 151.875 450.776 148.102C448.889 144.307 447.946 139.511 447.946 133.716C447.946 127.784 448.912 122.83 450.844 118.852C452.776 114.875 455.344 111.898 458.548 109.92C461.776 107.943 465.31 106.955 469.151 106.955C472.082 106.955 474.537 107.455 476.514 108.455C478.491 109.432 480.082 110.659 481.287 112.136C482.514 113.591 483.457 115.023 484.116 116.432H484.662V107.636H499.082V160.511C499.082 164.966 497.991 168.693 495.81 171.693C493.628 174.693 490.605 176.943 486.741 178.443C482.901 179.966 478.48 180.727 473.48 180.727ZM473.787 148.341C476.128 148.341 478.105 147.761 479.719 146.602C481.355 145.42 482.605 143.739 483.469 141.557C484.355 139.352 484.798 136.716 484.798 133.648C484.798 130.58 484.366 127.92 483.503 125.67C482.639 123.398 481.389 121.636 479.753 120.386C478.116 119.136 476.128 118.511 473.787 118.511C471.401 118.511 469.389 119.159 467.753 120.455C466.116 121.727 464.878 123.5 464.037 125.773C463.196 128.045 462.776 130.67 462.776 133.648C462.776 136.67 463.196 139.284 464.037 141.489C464.901 143.67 466.139 145.364 467.753 146.568C469.389 147.75 471.401 148.341 473.787 148.341ZM541.048 86.9091L518.548 170.5H506.037L528.537 86.9091H541.048ZM571.705 161.023C566.409 161.023 561.83 159.898 557.966 157.648C554.125 155.375 551.159 152.216 549.068 148.17C546.977 144.102 545.932 139.386 545.932 134.023C545.932 128.614 546.977 123.886 549.068 119.841C551.159 115.773 554.125 112.614 557.966 110.364C561.83 108.091 566.409 106.955 571.705 106.955C577 106.955 581.568 108.091 585.409 110.364C589.273 112.614 592.25 115.773 594.341 119.841C596.432 123.886 597.477 128.614 597.477 134.023C597.477 139.386 596.432 144.102 594.341 148.17C592.25 152.216 589.273 155.375 585.409 157.648C581.568 159.898 577 161.023 571.705 161.023ZM571.773 149.773C574.182 149.773 576.193 149.091 577.807 147.727C579.42 146.341 580.636 144.455 581.455 142.068C582.295 139.682 582.716 136.966 582.716 133.92C582.716 130.875 582.295 128.159 581.455 125.773C580.636 123.386 579.42 121.5 577.807 120.114C576.193 118.727 574.182 118.034 571.773 118.034C569.341 118.034 567.295 118.727 565.636 120.114C564 121.5 562.761 123.386 561.92 125.773C561.102 128.159 560.693 130.875 560.693 133.92C560.693 136.966 561.102 139.682 561.92 142.068C562.761 144.455 564 146.341 565.636 147.727C567.295 149.091 569.341 149.773 571.773 149.773ZM606.92 179.636V107.636H621.239V116.432H621.886C622.523 115.023 623.443 113.591 624.648 112.136C625.875 110.659 627.466 109.432 629.42 108.455C631.398 107.455 633.852 106.955 636.784 106.955C640.602 106.955 644.125 107.955 647.352 109.955C650.58 111.932 653.159 114.92 655.091 118.92C657.023 122.898 657.989 127.886 657.989 133.886C657.989 139.727 657.045 144.659 655.159 148.682C653.295 152.682 650.75 155.716 647.523 157.784C644.318 159.83 640.727 160.852 636.75 160.852C633.932 160.852 631.534 160.386 629.557 159.455C627.602 158.523 626 157.352 624.75 155.943C623.5 154.511 622.545 153.068 621.886 151.614H621.443V179.636H606.92ZM621.136 133.818C621.136 136.932 621.568 139.648 622.432 141.966C623.295 144.284 624.545 146.091 626.182 147.386C627.818 148.659 629.807 149.295 632.148 149.295C634.511 149.295 636.511 148.648 638.148 147.352C639.784 146.034 641.023 144.216 641.864 141.898C642.727 139.557 643.159 136.864 643.159 133.818C643.159 130.795 642.739 128.136 641.898 125.841C641.057 123.545 639.818 121.75 638.182 120.455C636.545 119.159 634.534 118.511 632.148 118.511C629.784 118.511 627.784 119.136 626.148 120.386C624.534 121.636 623.295 123.409 622.432 125.705C621.568 128 621.136 130.705 621.136 133.818ZM691.534 161.023C686.148 161.023 681.511 159.932 677.625 157.75C673.761 155.545 670.784 152.432 668.693 148.409C666.602 144.364 665.557 139.58 665.557 134.057C665.557 128.67 666.602 123.943 668.693 119.875C670.784 115.807 673.727 112.636 677.523 110.364C681.341 108.091 685.818 106.955 690.955 106.955C694.409 106.955 697.625 107.511 700.602 108.625C703.602 109.716 706.216 111.364 708.443 113.568C710.693 115.773 712.443 118.545 713.693 121.886C714.943 125.205 715.568 129.091 715.568 133.545V137.534H671.352V128.534H701.898C701.898 126.443 701.443 124.591 700.534 122.977C699.625 121.364 698.364 120.102 696.75 119.193C695.159 118.261 693.307 117.795 691.193 117.795C688.989 117.795 687.034 118.307 685.33 119.33C683.648 120.33 682.33 121.682 681.375 123.386C680.42 125.068 679.932 126.943 679.909 129.011V137.568C679.909 140.159 680.386 142.398 681.341 144.284C682.318 146.17 683.693 147.625 685.466 148.648C687.239 149.67 689.341 150.182 691.773 150.182C693.386 150.182 694.864 149.955 696.205 149.5C697.545 149.045 698.693 148.364 699.648 147.455C700.602 146.545 701.33 145.432 701.83 144.114L715.261 145C714.58 148.227 713.182 151.045 711.068 153.455C708.977 155.841 706.273 157.705 702.955 159.045C699.659 160.364 695.852 161.023 691.534 161.023ZM739.568 129.727V160H725.045V107.636H738.886V116.875H739.5C740.659 113.83 742.602 111.42 745.33 109.648C748.057 107.852 751.364 106.955 755.25 106.955C758.886 106.955 762.057 107.75 764.761 109.341C767.466 110.932 769.568 113.205 771.068 116.159C772.568 119.091 773.318 122.591 773.318 126.659V160H758.795V129.25C758.818 126.045 758 123.545 756.341 121.75C754.682 119.932 752.398 119.023 749.489 119.023C747.534 119.023 745.807 119.443 744.307 120.284C742.83 121.125 741.67 122.352 740.83 123.966C740.011 125.557 739.591 127.477 739.568 129.727ZM799.696 160.989C796.355 160.989 793.378 160.409 790.764 159.25C788.151 158.068 786.082 156.33 784.56 154.034C783.06 151.716 782.31 148.83 782.31 145.375C782.31 142.466 782.844 140.023 783.912 138.045C784.98 136.068 786.435 134.477 788.276 133.273C790.116 132.068 792.207 131.159 794.548 130.545C796.912 129.932 799.389 129.5 801.98 129.25C805.026 128.932 807.48 128.636 809.344 128.364C811.207 128.068 812.56 127.636 813.401 127.068C814.241 126.5 814.662 125.659 814.662 124.545V124.341C814.662 122.182 813.98 120.511 812.616 119.33C811.276 118.148 809.366 117.557 806.889 117.557C804.276 117.557 802.196 118.136 800.651 119.295C799.105 120.432 798.082 121.864 797.582 123.591L784.151 122.5C784.832 119.318 786.173 116.568 788.173 114.25C790.173 111.909 792.753 110.114 795.912 108.864C799.094 107.591 802.776 106.955 806.957 106.955C809.866 106.955 812.651 107.295 815.31 107.977C817.991 108.659 820.366 109.716 822.435 111.148C824.526 112.58 826.173 114.42 827.378 116.67C828.582 118.898 829.185 121.568 829.185 124.682V160H815.412V152.739H815.003C814.162 154.375 813.037 155.818 811.628 157.068C810.219 158.295 808.526 159.261 806.548 159.966C804.571 160.648 802.287 160.989 799.696 160.989ZM803.855 150.966C805.991 150.966 807.878 150.545 809.514 149.705C811.151 148.841 812.435 147.682 813.366 146.227C814.298 144.773 814.764 143.125 814.764 141.284V135.727C814.31 136.023 813.685 136.295 812.889 136.545C812.116 136.773 811.241 136.989 810.264 137.193C809.287 137.375 808.31 137.545 807.332 137.705C806.355 137.841 805.469 137.966 804.673 138.08C802.969 138.33 801.48 138.727 800.207 139.273C798.935 139.818 797.946 140.557 797.241 141.489C796.537 142.398 796.185 143.534 796.185 144.898C796.185 146.875 796.901 148.386 798.332 149.432C799.787 150.455 801.628 150.966 803.855 150.966ZM840.452 179.636V107.636H854.77V116.432H855.418C856.054 115.023 856.974 113.591 858.179 112.136C859.406 110.659 860.997 109.432 862.952 108.455C864.929 107.455 867.384 106.955 870.315 106.955C874.134 106.955 877.656 107.955 880.884 109.955C884.111 111.932 886.69 114.92 888.622 118.92C890.554 122.898 891.52 127.886 891.52 133.886C891.52 139.727 890.577 144.659 888.69 148.682C886.827 152.682 884.281 155.716 881.054 157.784C877.849 159.83 874.259 160.852 870.281 160.852C867.463 160.852 865.065 160.386 863.088 159.455C861.134 158.523 859.531 157.352 858.281 155.943C857.031 154.511 856.077 153.068 855.418 151.614H854.974V179.636H840.452ZM854.668 133.818C854.668 136.932 855.099 139.648 855.963 141.966C856.827 144.284 858.077 146.091 859.713 147.386C861.349 148.659 863.338 149.295 865.679 149.295C868.043 149.295 870.043 148.648 871.679 147.352C873.315 146.034 874.554 144.216 875.395 141.898C876.259 139.557 876.69 136.864 876.69 133.818C876.69 130.795 876.27 128.136 875.429 125.841C874.588 123.545 873.349 121.75 871.713 120.455C870.077 119.159 868.065 118.511 865.679 118.511C863.315 118.511 861.315 119.136 859.679 120.386C858.065 121.636 856.827 123.409 855.963 125.705C855.099 128 854.668 130.705 854.668 133.818ZM901.202 160V107.636H915.724V160H901.202ZM908.497 100.886C906.338 100.886 904.486 100.17 902.94 98.7386C901.418 97.2841 900.656 95.5455 900.656 93.5227C900.656 91.5227 901.418 89.8068 902.94 88.375C904.486 86.9205 906.338 86.1932 908.497 86.1932C910.656 86.1932 912.497 86.9205 914.02 88.375C915.565 89.8068 916.338 91.5227 916.338 93.5227C916.338 95.5455 915.565 97.2841 914.02 98.7386C912.497 100.17 910.656 100.886 908.497 100.886ZM959.983 125.568V137.091H928.142V125.568H959.983ZM972.358 160V107.636H986.438V116.773H986.983C987.938 113.523 989.54 111.068 991.79 109.409C994.04 107.727 996.631 106.886 999.562 106.886C1000.29 106.886 1001.07 106.932 1001.91 107.023C1002.76 107.114 1003.49 107.239 1004.13 107.398V120.284C1003.45 120.08 1002.51 119.898 1001.3 119.739C1000.1 119.58 998.994 119.5 997.994 119.5C995.858 119.5 993.949 119.966 992.267 120.898C990.608 121.807 989.29 123.08 988.312 124.716C987.358 126.352 986.881 128.239 986.881 130.375V160H972.358ZM1032.86 161.023C1027.57 161.023 1022.99 159.898 1019.12 157.648C1015.28 155.375 1012.32 152.216 1010.22 148.17C1008.13 144.102 1007.09 139.386 1007.09 134.023C1007.09 128.614 1008.13 123.886 1010.22 119.841C1012.32 115.773 1015.28 112.614 1019.12 110.364C1022.99 108.091 1027.57 106.955 1032.86 106.955C1038.16 106.955 1042.72 108.091 1046.57 110.364C1050.43 112.614 1053.41 115.773 1055.5 119.841C1057.59 123.886 1058.63 128.614 1058.63 134.023C1058.63 139.386 1057.59 144.102 1055.5 148.17C1053.41 152.216 1050.43 155.375 1046.57 157.648C1042.72 159.898 1038.16 161.023 1032.86 161.023ZM1032.93 149.773C1035.34 149.773 1037.35 149.091 1038.96 147.727C1040.58 146.341 1041.79 144.455 1042.61 142.068C1043.45 139.682 1043.87 136.966 1043.87 133.92C1043.87 130.875 1043.45 128.159 1042.61 125.773C1041.79 123.386 1040.58 121.5 1038.96 120.114C1037.35 118.727 1035.34 118.034 1032.93 118.034C1030.5 118.034 1028.45 118.727 1026.79 120.114C1025.16 121.5 1023.92 123.386 1023.08 125.773C1022.26 128.159 1021.85 130.875 1021.85 133.92C1021.85 136.966 1022.26 139.682 1023.08 142.068C1023.92 144.455 1025.16 146.341 1026.79 147.727C1028.45 149.091 1030.5 149.773 1032.93 149.773ZM1101.66 137.705V107.636H1116.18V160H1102.24V150.489H1101.69C1100.51 153.557 1098.54 156.023 1095.79 157.886C1093.07 159.75 1089.74 160.682 1085.8 160.682C1082.3 160.682 1079.22 159.886 1076.57 158.295C1073.91 156.705 1071.83 154.443 1070.33 151.511C1068.85 148.58 1068.1 145.068 1068.08 140.977V107.636H1082.6V138.386C1082.62 141.477 1083.45 143.92 1085.09 145.716C1086.72 147.511 1088.92 148.409 1091.67 148.409C1093.42 148.409 1095.05 148.011 1096.58 147.216C1098.1 146.398 1099.33 145.193 1100.26 143.602C1101.21 142.011 1101.68 140.045 1101.66 137.705ZM1155.65 107.636V118.545H1124.11V107.636H1155.65ZM1131.27 95.0909H1145.8V143.909C1145.8 145.25 1146 146.295 1146.41 147.045C1146.82 147.773 1147.39 148.284 1148.11 148.58C1148.86 148.875 1149.73 149.023 1150.7 149.023C1151.39 149.023 1152.07 148.966 1152.75 148.852C1153.43 148.716 1153.95 148.614 1154.32 148.545L1156.6 159.352C1155.88 159.58 1154.85 159.841 1153.53 160.136C1152.22 160.455 1150.61 160.648 1148.73 160.716C1145.23 160.852 1142.16 160.386 1139.52 159.318C1136.91 158.25 1134.88 156.591 1133.42 154.341C1131.97 152.091 1131.25 149.25 1131.27 145.818V95.0909ZM1188.41 161.023C1183.02 161.023 1178.39 159.932 1174.5 157.75C1170.64 155.545 1167.66 152.432 1165.57 148.409C1163.48 144.364 1162.43 139.58 1162.43 134.057C1162.43 128.67 1163.48 123.943 1165.57 119.875C1167.66 115.807 1170.6 112.636 1174.4 110.364C1178.22 108.091 1182.69 106.955 1187.83 106.955C1191.28 106.955 1194.5 107.511 1197.48 108.625C1200.48 109.716 1203.09 111.364 1205.32 113.568C1207.57 115.773 1209.32 118.545 1210.57 121.886C1211.82 125.205 1212.44 129.091 1212.44 133.545V137.534H1168.23V128.534H1198.77C1198.77 126.443 1198.32 124.591 1197.41 122.977C1196.5 121.364 1195.24 120.102 1193.62 119.193C1192.03 118.261 1190.18 117.795 1188.07 117.795C1185.86 117.795 1183.91 118.307 1182.2 119.33C1180.52 120.33 1179.2 121.682 1178.25 123.386C1177.3 125.068 1176.81 126.943 1176.78 129.011V137.568C1176.78 140.159 1177.26 142.398 1178.22 144.284C1179.19 146.17 1180.57 147.625 1182.34 148.648C1184.11 149.67 1186.22 150.182 1188.65 150.182C1190.26 150.182 1191.74 149.955 1193.08 149.5C1194.42 149.045 1195.57 148.364 1196.52 147.455C1197.48 146.545 1198.2 145.432 1198.7 144.114L1212.14 145C1211.45 148.227 1210.06 151.045 1207.94 153.455C1205.85 155.841 1203.15 157.705 1199.83 159.045C1196.53 160.364 1192.73 161.023 1188.41 161.023ZM1221.92 160V107.636H1236V116.773H1236.55C1237.5 113.523 1239.1 111.068 1241.35 109.409C1243.6 107.727 1246.19 106.886 1249.12 106.886C1249.85 106.886 1250.64 106.932 1251.48 107.023C1252.32 107.114 1253.06 107.239 1253.69 107.398V120.284C1253.01 120.08 1252.07 119.898 1250.86 119.739C1249.66 119.58 1248.56 119.5 1247.56 119.5C1245.42 119.5 1243.51 119.966 1241.83 120.898C1240.17 121.807 1238.85 123.08 1237.88 124.716C1236.92 126.352 1236.44 128.239 1236.44 130.375V160H1221.92Z" fill="black"/>
</svg>
