<svg width="2000" height="250" viewBox="0 0 2000 250" fill="none" xmlns="http://www.w3.org/2000/svg">
<rect width="2000" height="250" rx="48" fill="#FDE200"/>
<path d="M148.121 63.9112C151.892 65.4726 155.384 67.6248 158.466 70.2816C159.177 70.895 159.867 71.5353 160.534 72.2014C164.086 75.7527 166.905 79.9687 168.827 84.6086C170.75 89.2486 171.74 94.2217 171.74 99.2439C171.74 103.776 170.934 108.269 169.363 112.512H171.74C176.764 112.512 181.739 113.501 186.381 115.423C190.153 116.985 193.644 119.137 196.726 121.794C197.438 122.407 198.127 123.047 198.794 123.714C202.347 127.265 205.165 131.481 207.088 136.121C209.01 140.761 210 145.734 210 150.756C210 155.778 209.01 160.751 207.088 165.391C205.165 170.031 202.347 174.247 198.794 177.799C198.127 178.465 197.438 179.105 196.726 179.718C193.644 182.375 190.152 184.527 186.381 186.089C181.739 188.011 176.764 189 171.74 189H146.753C139.854 189 134.26 183.409 134.26 176.512C134.26 169.615 139.854 164.024 146.753 164.024H171.74L171.74 164.028C173.483 164.028 175.21 163.684 176.821 163.017C178.431 162.35 179.895 161.373 181.128 160.14C182.361 158.908 183.339 157.445 184.006 155.835C184.673 154.225 185.017 152.499 185.017 150.756C185.017 149.013 184.673 147.288 184.006 145.677C183.339 144.067 182.361 142.604 181.128 141.372C179.895 140.139 178.432 139.162 176.821 138.495C175.21 137.828 173.483 137.485 171.74 137.485V137.488H108.493C101.593 137.488 96 131.897 96 125C96 118.103 101.593 112.512 108.493 112.512H133.767C135.413 112.477 137.038 112.135 138.56 111.505C140.171 110.838 141.635 109.861 142.868 108.628C144.101 107.396 145.079 105.933 145.746 104.323C146.413 102.713 146.757 100.987 146.757 99.2439C146.757 97.5011 146.413 95.7753 145.746 94.1652C145.079 92.555 144.101 91.092 142.868 89.8596C141.635 88.6272 140.171 87.6497 138.56 86.9827C136.95 86.3158 135.223 85.9725 133.479 85.9725V85.9756H108.493C101.593 85.9756 96 80.3846 96 73.4878C96 66.591 101.593 61 108.493 61H133.479C138.504 61 143.479 61.9892 148.121 63.9112Z" fill="black"/>
<path d="M96 176.512C96 169.615 101.593 164.024 108.493 164.024H115.521C122.42 164.024 128.014 169.615 128.014 176.512C128.014 183.409 122.42 189 115.521 189H108.493C101.593 189 96 183.409 96 176.512Z" fill="black"/>
<path d="M309.511 180.114C302.261 180.114 295.807 179.125 290.148 177.148C284.489 175.193 279.705 172.318 275.795 168.523C271.886 164.75 268.909 160.136 266.864 154.682C264.818 149.227 263.795 143.023 263.795 136.068C263.795 129.205 264.818 122.977 266.864 117.386C268.932 111.795 271.943 107 275.898 103C279.852 98.9773 284.682 95.8864 290.386 93.7273C296.114 91.5682 302.636 90.4886 309.955 90.4886C316.727 90.4886 322.773 91.4773 328.091 93.4545C333.432 95.4318 337.955 98.25 341.659 101.909C345.386 105.545 348.216 109.875 350.148 114.898C352.102 119.898 353.068 125.432 353.045 131.5C353.068 135.682 352.705 139.523 351.955 143.023C351.205 146.523 350.023 149.58 348.409 152.193C346.818 154.784 344.727 156.841 342.136 158.364C339.545 159.864 336.409 160.716 332.727 160.92C330.091 161.125 327.955 160.932 326.318 160.341C324.682 159.75 323.432 158.875 322.568 157.716C321.727 156.534 321.182 155.159 320.932 153.591H320.523C319.977 154.955 318.909 156.193 317.318 157.307C315.727 158.398 313.784 159.25 311.489 159.864C309.216 160.455 306.795 160.67 304.227 160.511C301.545 160.352 299 159.727 296.591 158.636C294.205 157.545 292.08 155.966 290.216 153.898C288.375 151.83 286.92 149.273 285.852 146.227C284.807 143.182 284.273 139.659 284.25 135.659C284.273 131.705 284.83 128.261 285.92 125.33C287.034 122.398 288.5 119.932 290.318 117.932C292.159 115.932 294.205 114.364 296.455 113.227C298.705 112.091 300.966 111.364 303.239 111.045C305.807 110.659 308.239 110.659 310.534 111.045C312.83 111.432 314.761 112.057 316.33 112.92C317.92 113.784 318.909 114.716 319.295 115.716H319.773V111.898H330.443V145.17C330.466 146.739 330.818 147.955 331.5 148.818C332.182 149.682 333.102 150.114 334.261 150.114C335.83 150.114 337.136 149.42 338.182 148.034C339.25 146.648 340.045 144.523 340.568 141.659C341.114 138.795 341.386 135.148 341.386 130.716C341.386 126.443 340.818 122.693 339.682 119.466C338.568 116.216 337 113.455 334.977 111.182C332.977 108.886 330.648 107.023 327.989 105.591C325.33 104.159 322.443 103.114 319.33 102.455C316.239 101.795 313.057 101.466 309.784 101.466C304.125 101.466 299.182 102.33 294.955 104.057C290.727 105.761 287.205 108.159 284.386 111.25C281.568 114.341 279.455 117.966 278.045 122.125C276.659 126.261 275.955 130.773 275.932 135.659C275.955 141.045 276.705 145.818 278.182 149.977C279.682 154.114 281.886 157.591 284.795 160.409C287.705 163.227 291.295 165.364 295.568 166.818C299.841 168.273 304.75 169 310.295 169C312.909 169 315.466 168.807 317.966 168.42C320.466 168.057 322.727 167.602 324.75 167.057C326.773 166.534 328.398 166.023 329.625 165.523L333 175.409C331.568 176.227 329.625 176.989 327.17 177.693C324.739 178.42 321.989 179 318.92 179.432C315.875 179.886 312.739 180.114 309.511 180.114ZM307.943 149.295C310.716 149.295 312.92 148.761 314.557 147.693C316.216 146.625 317.398 145.045 318.102 142.955C318.83 140.841 319.17 138.239 319.125 135.148C319.102 132.42 318.75 130.114 318.068 128.227C317.409 126.318 316.261 124.875 314.625 123.898C313.011 122.898 310.761 122.398 307.875 122.398C305.352 122.398 303.205 122.932 301.432 124C299.682 125.068 298.341 126.568 297.409 128.5C296.5 130.409 296.034 132.659 296.011 135.25C296.034 137.659 296.42 139.943 297.17 142.102C297.92 144.239 299.159 145.977 300.886 147.318C302.614 148.636 304.966 149.295 307.943 149.295ZM362.974 160V90.1818H377.497V116.432H377.94C378.577 115.023 379.497 113.591 380.702 112.136C381.929 110.659 383.52 109.432 385.474 108.455C387.452 107.455 389.906 106.955 392.838 106.955C396.656 106.955 400.179 107.955 403.406 109.955C406.634 111.932 409.213 114.92 411.145 118.92C413.077 122.898 414.043 127.886 414.043 133.886C414.043 139.727 413.099 144.659 411.213 148.682C409.349 152.682 406.804 155.716 403.577 157.784C400.372 159.83 396.781 160.852 392.804 160.852C389.986 160.852 387.588 160.386 385.611 159.455C383.656 158.523 382.054 157.352 380.804 155.943C379.554 154.511 378.599 153.068 377.94 151.614H377.293V160H362.974ZM377.19 133.818C377.19 136.932 377.622 139.648 378.486 141.966C379.349 144.284 380.599 146.091 382.236 147.386C383.872 148.659 385.861 149.295 388.202 149.295C390.565 149.295 392.565 148.648 394.202 147.352C395.838 146.034 397.077 144.216 397.918 141.898C398.781 139.557 399.213 136.864 399.213 133.818C399.213 130.795 398.793 128.136 397.952 125.841C397.111 123.545 395.872 121.75 394.236 120.455C392.599 119.159 390.588 118.511 388.202 118.511C385.838 118.511 383.838 119.136 382.202 120.386C380.588 121.636 379.349 123.409 378.486 125.705C377.622 128 377.19 130.705 377.19 133.818ZM438.256 90.1818V160H423.733V90.1818H438.256ZM473.48 180.727C468.776 180.727 464.741 180.08 461.378 178.784C458.037 177.511 455.378 175.773 453.401 173.568C451.423 171.364 450.139 168.886 449.548 166.136L462.98 164.33C463.389 165.375 464.037 166.352 464.923 167.261C465.81 168.17 466.98 168.898 468.435 169.443C469.912 170.011 471.707 170.295 473.821 170.295C476.98 170.295 479.582 169.523 481.628 167.977C483.696 166.455 484.73 163.898 484.73 160.307V150.727H484.116C483.48 152.182 482.526 153.557 481.253 154.852C479.98 156.148 478.344 157.205 476.344 158.023C474.344 158.841 471.957 159.25 469.185 159.25C465.253 159.25 461.673 158.341 458.446 156.523C455.241 154.682 452.685 151.875 450.776 148.102C448.889 144.307 447.946 139.511 447.946 133.716C447.946 127.784 448.912 122.83 450.844 118.852C452.776 114.875 455.344 111.898 458.548 109.92C461.776 107.943 465.31 106.955 469.151 106.955C472.082 106.955 474.537 107.455 476.514 108.455C478.491 109.432 480.082 110.659 481.287 112.136C482.514 113.591 483.457 115.023 484.116 116.432H484.662V107.636H499.082V160.511C499.082 164.966 497.991 168.693 495.81 171.693C493.628 174.693 490.605 176.943 486.741 178.443C482.901 179.966 478.48 180.727 473.48 180.727ZM473.787 148.341C476.128 148.341 478.105 147.761 479.719 146.602C481.355 145.42 482.605 143.739 483.469 141.557C484.355 139.352 484.798 136.716 484.798 133.648C484.798 130.58 484.366 127.92 483.503 125.67C482.639 123.398 481.389 121.636 479.753 120.386C478.116 119.136 476.128 118.511 473.787 118.511C471.401 118.511 469.389 119.159 467.753 120.455C466.116 121.727 464.878 123.5 464.037 125.773C463.196 128.045 462.776 130.67 462.776 133.648C462.776 136.67 463.196 139.284 464.037 141.489C464.901 143.67 466.139 145.364 467.753 146.568C469.389 147.75 471.401 148.341 473.787 148.341ZM534.298 161.023C528.935 161.023 524.321 159.886 520.457 157.614C516.616 155.318 513.662 152.136 511.594 148.068C509.548 144 508.526 139.318 508.526 134.023C508.526 128.659 509.56 123.955 511.628 119.909C513.719 115.841 516.685 112.67 520.526 110.398C524.366 108.102 528.935 106.955 534.23 106.955C538.798 106.955 542.798 107.784 546.23 109.443C549.662 111.102 552.378 113.432 554.378 116.432C556.378 119.432 557.48 122.955 557.685 127H543.98C543.594 124.386 542.571 122.284 540.912 120.693C539.276 119.08 537.128 118.273 534.469 118.273C532.219 118.273 530.253 118.886 528.571 120.114C526.912 121.318 525.616 123.08 524.685 125.398C523.753 127.716 523.287 130.523 523.287 133.818C523.287 137.159 523.741 140 524.651 142.341C525.582 144.682 526.889 146.466 528.571 147.693C530.253 148.92 532.219 149.534 534.469 149.534C536.128 149.534 537.616 149.193 538.935 148.511C540.276 147.83 541.378 146.841 542.241 145.545C543.128 144.227 543.707 142.648 543.98 140.807H557.685C557.457 144.807 556.366 148.33 554.412 151.375C552.48 154.398 549.81 156.761 546.401 158.466C542.991 160.17 538.957 161.023 534.298 161.023ZM597.392 86.9091L574.892 170.5H562.381L584.881 86.9091H597.392ZM628.048 161.023C622.685 161.023 618.071 159.886 614.207 157.614C610.366 155.318 607.412 152.136 605.344 148.068C603.298 144 602.276 139.318 602.276 134.023C602.276 128.659 603.31 123.955 605.378 119.909C607.469 115.841 610.435 112.67 614.276 110.398C618.116 108.102 622.685 106.955 627.98 106.955C632.548 106.955 636.548 107.784 639.98 109.443C643.412 111.102 646.128 113.432 648.128 116.432C650.128 119.432 651.23 122.955 651.435 127H637.73C637.344 124.386 636.321 122.284 634.662 120.693C633.026 119.08 630.878 118.273 628.219 118.273C625.969 118.273 624.003 118.886 622.321 120.114C620.662 121.318 619.366 123.08 618.435 125.398C617.503 127.716 617.037 130.523 617.037 133.818C617.037 137.159 617.491 140 618.401 142.341C619.332 144.682 620.639 146.466 622.321 147.693C624.003 148.92 625.969 149.534 628.219 149.534C629.878 149.534 631.366 149.193 632.685 148.511C634.026 147.83 635.128 146.841 635.991 145.545C636.878 144.227 637.457 142.648 637.73 140.807H651.435C651.207 144.807 650.116 148.33 648.162 151.375C646.23 154.398 643.56 156.761 640.151 158.466C636.741 160.17 632.707 161.023 628.048 161.023ZM684.392 161.023C679.097 161.023 674.517 159.898 670.653 157.648C666.813 155.375 663.847 152.216 661.756 148.17C659.665 144.102 658.619 139.386 658.619 134.023C658.619 128.614 659.665 123.886 661.756 119.841C663.847 115.773 666.813 112.614 670.653 110.364C674.517 108.091 679.097 106.955 684.392 106.955C689.688 106.955 694.256 108.091 698.097 110.364C701.96 112.614 704.938 115.773 707.028 119.841C709.119 123.886 710.165 128.614 710.165 134.023C710.165 139.386 709.119 144.102 707.028 148.17C704.938 152.216 701.96 155.375 698.097 157.648C694.256 159.898 689.688 161.023 684.392 161.023ZM684.46 149.773C686.869 149.773 688.881 149.091 690.494 147.727C692.108 146.341 693.324 144.455 694.142 142.068C694.983 139.682 695.403 136.966 695.403 133.92C695.403 130.875 694.983 128.159 694.142 125.773C693.324 123.386 692.108 121.5 690.494 120.114C688.881 118.727 686.869 118.034 684.46 118.034C682.028 118.034 679.983 118.727 678.324 120.114C676.688 121.5 675.449 123.386 674.608 125.773C673.79 128.159 673.381 130.875 673.381 133.92C673.381 136.966 673.79 139.682 674.608 142.068C675.449 144.455 676.688 146.341 678.324 147.727C679.983 149.091 682.028 149.773 684.46 149.773ZM734.131 129.727V160H719.608V107.636H733.449V116.875H734.062C735.222 113.83 737.165 111.42 739.892 109.648C742.619 107.852 745.926 106.955 749.812 106.955C753.449 106.955 756.619 107.75 759.324 109.341C762.028 110.932 764.131 113.205 765.631 116.159C767.131 119.091 767.881 122.591 767.881 126.659V160H753.358V129.25C753.381 126.045 752.563 123.545 750.903 121.75C749.244 119.932 746.96 119.023 744.051 119.023C742.097 119.023 740.369 119.443 738.869 120.284C737.392 121.125 736.233 122.352 735.392 123.966C734.574 125.557 734.153 127.477 734.131 129.727ZM807.486 107.636V118.545H775.168V107.636H807.486ZM782.565 160V103.852C782.565 100.057 783.304 96.9091 784.781 94.4091C786.281 91.9091 788.327 90.0341 790.918 88.7841C793.509 87.5341 796.452 86.9091 799.747 86.9091C801.974 86.9091 804.009 87.0795 805.849 87.4205C807.713 87.7614 809.099 88.0682 810.009 88.3409L807.418 99.25C806.849 99.0682 806.145 98.8977 805.304 98.7386C804.486 98.5795 803.645 98.5 802.781 98.5C800.645 98.5 799.156 99 798.315 100C797.474 100.977 797.054 102.352 797.054 104.125V160H782.565ZM816.358 160V107.636H830.881V160H816.358ZM823.653 100.886C821.494 100.886 819.642 100.17 818.097 98.7386C816.574 97.2841 815.812 95.5455 815.812 93.5227C815.812 91.5227 816.574 89.8068 818.097 88.375C819.642 86.9205 821.494 86.1932 823.653 86.1932C825.813 86.1932 827.653 86.9205 829.176 88.375C830.722 89.8068 831.494 91.5227 831.494 93.5227C831.494 95.5455 830.722 97.2841 829.176 98.7386C827.653 100.17 825.813 100.886 823.653 100.886ZM866.105 180.727C861.401 180.727 857.366 180.08 854.003 178.784C850.662 177.511 848.003 175.773 846.026 173.568C844.048 171.364 842.764 168.886 842.173 166.136L855.605 164.33C856.014 165.375 856.662 166.352 857.548 167.261C858.435 168.17 859.605 168.898 861.06 169.443C862.537 170.011 864.332 170.295 866.446 170.295C869.605 170.295 872.207 169.523 874.253 167.977C876.321 166.455 877.355 163.898 877.355 160.307V150.727H876.741C876.105 152.182 875.151 153.557 873.878 154.852C872.605 156.148 870.969 157.205 868.969 158.023C866.969 158.841 864.582 159.25 861.81 159.25C857.878 159.25 854.298 158.341 851.071 156.523C847.866 154.682 845.31 151.875 843.401 148.102C841.514 144.307 840.571 139.511 840.571 133.716C840.571 127.784 841.537 122.83 843.469 118.852C845.401 114.875 847.969 111.898 851.173 109.92C854.401 107.943 857.935 106.955 861.776 106.955C864.707 106.955 867.162 107.455 869.139 108.455C871.116 109.432 872.707 110.659 873.912 112.136C875.139 113.591 876.082 115.023 876.741 116.432H877.287V107.636H891.707V160.511C891.707 164.966 890.616 168.693 888.435 171.693C886.253 174.693 883.23 176.943 879.366 178.443C875.526 179.966 871.105 180.727 866.105 180.727ZM866.412 148.341C868.753 148.341 870.73 147.761 872.344 146.602C873.98 145.42 875.23 143.739 876.094 141.557C876.98 139.352 877.423 136.716 877.423 133.648C877.423 130.58 876.991 127.92 876.128 125.67C875.264 123.398 874.014 121.636 872.378 120.386C870.741 119.136 868.753 118.511 866.412 118.511C864.026 118.511 862.014 119.159 860.378 120.455C858.741 121.727 857.503 123.5 856.662 125.773C855.821 128.045 855.401 130.67 855.401 133.648C855.401 136.67 855.821 139.284 856.662 141.489C857.526 143.67 858.764 145.364 860.378 146.568C862.014 147.75 864.026 148.341 866.412 148.341Z" fill="black"/>
</svg>
