<svg width="2000" height="250" viewBox="0 0 2000 250" fill="none" xmlns="http://www.w3.org/2000/svg">
<rect width="2000" height="250" rx="48" fill="#F0E81A"/>
<path d="M148.121 63.9112C151.892 65.4726 155.384 67.6248 158.466 70.2816C159.177 70.895 159.867 71.5353 160.534 72.2014C164.086 75.7527 166.905 79.9687 168.827 84.6086C170.75 89.2486 171.74 94.2217 171.74 99.2439C171.74 103.776 170.934 108.269 169.363 112.512H171.74C176.764 112.512 181.739 113.501 186.381 115.423C190.153 116.985 193.644 119.137 196.726 121.794C197.438 122.407 198.127 123.047 198.794 123.714C202.347 127.265 205.165 131.481 207.088 136.121C209.01 140.761 210 145.734 210 150.756C210 155.778 209.01 160.751 207.088 165.391C205.165 170.031 202.347 174.247 198.794 177.799C198.127 178.465 197.438 179.105 196.726 179.718C193.644 182.375 190.152 184.527 186.381 186.089C181.739 188.011 176.764 189 171.74 189H146.753C139.854 189 134.26 183.409 134.26 176.512C134.26 169.615 139.854 164.024 146.753 164.024H171.74L171.74 164.028C173.483 164.028 175.21 163.684 176.821 163.017C178.431 162.35 179.895 161.373 181.128 160.14C182.361 158.908 183.339 157.445 184.006 155.835C184.673 154.225 185.017 152.499 185.017 150.756C185.017 149.013 184.673 147.288 184.006 145.677C183.339 144.067 182.361 142.604 181.128 141.372C179.895 140.139 178.432 139.162 176.821 138.495C175.21 137.828 173.483 137.485 171.74 137.485V137.488H108.493C101.593 137.488 96 131.897 96 125C96 118.103 101.593 112.512 108.493 112.512H133.767C135.413 112.477 137.038 112.135 138.56 111.505C140.171 110.838 141.635 109.861 142.868 108.628C144.101 107.396 145.079 105.933 145.746 104.323C146.413 102.713 146.757 100.987 146.757 99.2439C146.757 97.5011 146.413 95.7753 145.746 94.1652C145.079 92.555 144.101 91.092 142.868 89.8596C141.635 88.6272 140.171 87.6497 138.56 86.9827C136.95 86.3158 135.223 85.9725 133.479 85.9725V85.9756H108.493C101.593 85.9756 96 80.3846 96 73.4878C96 66.591 101.593 61 108.493 61H133.479C138.504 61 143.479 61.9892 148.121 63.9112Z" fill="black"/>
<path d="M96 176.512C96 169.615 101.593 164.024 108.493 164.024H115.521C122.42 164.024 128.014 169.615 128.014 176.512C128.014 183.409 122.42 189 115.521 189H108.493C101.593 189 96 183.409 96 176.512Z" fill="black"/>
<path d="M287.386 180.727C282.682 180.727 278.648 180.08 275.284 178.784C271.943 177.511 269.284 175.773 267.307 173.568C265.33 171.364 264.045 168.886 263.455 166.136L276.886 164.33C277.295 165.375 277.943 166.352 278.83 167.261C279.716 168.17 280.886 168.898 282.341 169.443C283.818 170.011 285.614 170.295 287.727 170.295C290.886 170.295 293.489 169.523 295.534 167.977C297.602 166.455 298.636 163.898 298.636 160.307V150.727H298.023C297.386 152.182 296.432 153.557 295.159 154.852C293.886 156.148 292.25 157.205 290.25 158.023C288.25 158.841 285.864 159.25 283.091 159.25C279.159 159.25 275.58 158.341 272.352 156.523C269.148 154.682 266.591 151.875 264.682 148.102C262.795 144.307 261.852 139.511 261.852 133.716C261.852 127.784 262.818 122.83 264.75 118.852C266.682 114.875 269.25 111.898 272.455 109.92C275.682 107.943 279.216 106.955 283.057 106.955C285.989 106.955 288.443 107.455 290.42 108.455C292.398 109.432 293.989 110.659 295.193 112.136C296.42 113.591 297.364 115.023 298.023 116.432H298.568V107.636H312.989V160.511C312.989 164.966 311.898 168.693 309.716 171.693C307.534 174.693 304.511 176.943 300.648 178.443C296.807 179.966 292.386 180.727 287.386 180.727ZM287.693 148.341C290.034 148.341 292.011 147.761 293.625 146.602C295.261 145.42 296.511 143.739 297.375 141.557C298.261 139.352 298.705 136.716 298.705 133.648C298.705 130.58 298.273 127.92 297.409 125.67C296.545 123.398 295.295 121.636 293.659 120.386C292.023 119.136 290.034 118.511 287.693 118.511C285.307 118.511 283.295 119.159 281.659 120.455C280.023 121.727 278.784 123.5 277.943 125.773C277.102 128.045 276.682 130.67 276.682 133.648C276.682 136.67 277.102 139.284 277.943 141.489C278.807 143.67 280.045 145.364 281.659 146.568C283.295 147.75 285.307 148.341 287.693 148.341ZM348.205 161.023C342.909 161.023 338.33 159.898 334.466 157.648C330.625 155.375 327.659 152.216 325.568 148.17C323.477 144.102 322.432 139.386 322.432 134.023C322.432 128.614 323.477 123.886 325.568 119.841C327.659 115.773 330.625 112.614 334.466 110.364C338.33 108.091 342.909 106.955 348.205 106.955C353.5 106.955 358.068 108.091 361.909 110.364C365.773 112.614 368.75 115.773 370.841 119.841C372.932 123.886 373.977 128.614 373.977 134.023C373.977 139.386 372.932 144.102 370.841 148.17C368.75 152.216 365.773 155.375 361.909 157.648C358.068 159.898 353.5 161.023 348.205 161.023ZM348.273 149.773C350.682 149.773 352.693 149.091 354.307 147.727C355.92 146.341 357.136 144.455 357.955 142.068C358.795 139.682 359.216 136.966 359.216 133.92C359.216 130.875 358.795 128.159 357.955 125.773C357.136 123.386 355.92 121.5 354.307 120.114C352.693 118.727 350.682 118.034 348.273 118.034C345.841 118.034 343.795 118.727 342.136 120.114C340.5 121.5 339.261 123.386 338.42 125.773C337.602 128.159 337.193 130.875 337.193 133.92C337.193 136.966 337.602 139.682 338.42 142.068C339.261 144.455 340.5 146.341 342.136 147.727C343.795 149.091 345.841 149.773 348.273 149.773ZM407.08 161.023C401.784 161.023 397.205 159.898 393.341 157.648C389.5 155.375 386.534 152.216 384.443 148.17C382.352 144.102 381.307 139.386 381.307 134.023C381.307 128.614 382.352 123.886 384.443 119.841C386.534 115.773 389.5 112.614 393.341 110.364C397.205 108.091 401.784 106.955 407.08 106.955C412.375 106.955 416.943 108.091 420.784 110.364C424.648 112.614 427.625 115.773 429.716 119.841C431.807 123.886 432.852 128.614 432.852 134.023C432.852 139.386 431.807 144.102 429.716 148.17C427.625 152.216 424.648 155.375 420.784 157.648C416.943 159.898 412.375 161.023 407.08 161.023ZM407.148 149.773C409.557 149.773 411.568 149.091 413.182 147.727C414.795 146.341 416.011 144.455 416.83 142.068C417.67 139.682 418.091 136.966 418.091 133.92C418.091 130.875 417.67 128.159 416.83 125.773C416.011 123.386 414.795 121.5 413.182 120.114C411.568 118.727 409.557 118.034 407.148 118.034C404.716 118.034 402.67 118.727 401.011 120.114C399.375 121.5 398.136 123.386 397.295 125.773C396.477 128.159 396.068 130.875 396.068 133.92C396.068 136.966 396.477 139.682 397.295 142.068C398.136 144.455 399.375 146.341 401.011 147.727C402.67 149.091 404.716 149.773 407.148 149.773ZM465.886 180.727C461.182 180.727 457.148 180.08 453.784 178.784C450.443 177.511 447.784 175.773 445.807 173.568C443.83 171.364 442.545 168.886 441.955 166.136L455.386 164.33C455.795 165.375 456.443 166.352 457.33 167.261C458.216 168.17 459.386 168.898 460.841 169.443C462.318 170.011 464.114 170.295 466.227 170.295C469.386 170.295 471.989 169.523 474.034 167.977C476.102 166.455 477.136 163.898 477.136 160.307V150.727H476.523C475.886 152.182 474.932 153.557 473.659 154.852C472.386 156.148 470.75 157.205 468.75 158.023C466.75 158.841 464.364 159.25 461.591 159.25C457.659 159.25 454.08 158.341 450.852 156.523C447.648 154.682 445.091 151.875 443.182 148.102C441.295 144.307 440.352 139.511 440.352 133.716C440.352 127.784 441.318 122.83 443.25 118.852C445.182 114.875 447.75 111.898 450.955 109.92C454.182 107.943 457.716 106.955 461.557 106.955C464.489 106.955 466.943 107.455 468.92 108.455C470.898 109.432 472.489 110.659 473.693 112.136C474.92 113.591 475.864 115.023 476.523 116.432H477.068V107.636H491.489V160.511C491.489 164.966 490.398 168.693 488.216 171.693C486.034 174.693 483.011 176.943 479.148 178.443C475.307 179.966 470.886 180.727 465.886 180.727ZM466.193 148.341C468.534 148.341 470.511 147.761 472.125 146.602C473.761 145.42 475.011 143.739 475.875 141.557C476.761 139.352 477.205 136.716 477.205 133.648C477.205 130.58 476.773 127.92 475.909 125.67C475.045 123.398 473.795 121.636 472.159 120.386C470.523 119.136 468.534 118.511 466.193 118.511C463.807 118.511 461.795 119.159 460.159 120.455C458.523 121.727 457.284 123.5 456.443 125.773C455.602 128.045 455.182 130.67 455.182 133.648C455.182 136.67 455.602 139.284 456.443 141.489C457.307 143.67 458.545 145.364 460.159 146.568C461.795 147.75 463.807 148.341 466.193 148.341ZM517.568 90.1818V160H503.045V90.1818H517.568ZM553.065 161.023C547.679 161.023 543.043 159.932 539.156 157.75C535.293 155.545 532.315 152.432 530.224 148.409C528.134 144.364 527.088 139.58 527.088 134.057C527.088 128.67 528.134 123.943 530.224 119.875C532.315 115.807 535.259 112.636 539.054 110.364C542.872 108.091 547.349 106.955 552.486 106.955C555.94 106.955 559.156 107.511 562.134 108.625C565.134 109.716 567.747 111.364 569.974 113.568C572.224 115.773 573.974 118.545 575.224 121.886C576.474 125.205 577.099 129.091 577.099 133.545V137.534H532.884V128.534H563.429C563.429 126.443 562.974 124.591 562.065 122.977C561.156 121.364 559.895 120.102 558.281 119.193C556.69 118.261 554.838 117.795 552.724 117.795C550.52 117.795 548.565 118.307 546.861 119.33C545.179 120.33 543.861 121.682 542.906 123.386C541.952 125.068 541.463 126.943 541.44 129.011V137.568C541.44 140.159 541.918 142.398 542.872 144.284C543.849 146.17 545.224 147.625 546.997 148.648C548.77 149.67 550.872 150.182 553.304 150.182C554.918 150.182 556.395 149.955 557.736 149.5C559.077 149.045 560.224 148.364 561.179 147.455C562.134 146.545 562.861 145.432 563.361 144.114L576.793 145C576.111 148.227 574.713 151.045 572.599 153.455C570.509 155.841 567.804 157.705 564.486 159.045C561.19 160.364 557.384 161.023 553.065 161.023ZM619.202 125.568V137.091H587.361V125.568H619.202ZM641.906 160L627.656 107.636H642.349L650.463 142.818H650.94L659.395 107.636H673.815L682.406 142.614H682.849L690.827 107.636H705.486L691.27 160H675.895L666.895 127.068H666.247L657.247 160H641.906ZM735.784 161.023C730.398 161.023 725.761 159.932 721.875 157.75C718.011 155.545 715.034 152.432 712.943 148.409C710.852 144.364 709.807 139.58 709.807 134.057C709.807 128.67 710.852 123.943 712.943 119.875C715.034 115.807 717.977 112.636 721.773 110.364C725.591 108.091 730.068 106.955 735.205 106.955C738.659 106.955 741.875 107.511 744.852 108.625C747.852 109.716 750.466 111.364 752.693 113.568C754.943 115.773 756.693 118.545 757.943 121.886C759.193 125.205 759.818 129.091 759.818 133.545V137.534H715.602V128.534H746.148C746.148 126.443 745.693 124.591 744.784 122.977C743.875 121.364 742.614 120.102 741 119.193C739.409 118.261 737.557 117.795 735.443 117.795C733.239 117.795 731.284 118.307 729.58 119.33C727.898 120.33 726.58 121.682 725.625 123.386C724.67 125.068 724.182 126.943 724.159 129.011V137.568C724.159 140.159 724.636 142.398 725.591 144.284C726.568 146.17 727.943 147.625 729.716 148.648C731.489 149.67 733.591 150.182 736.023 150.182C737.636 150.182 739.114 149.955 740.455 149.5C741.795 149.045 742.943 148.364 743.898 147.455C744.852 146.545 745.58 145.432 746.08 144.114L759.511 145C758.83 148.227 757.432 151.045 755.318 153.455C753.227 155.841 750.523 157.705 747.205 159.045C743.909 160.364 740.102 161.023 735.784 161.023ZM769.568 160V90.1818H784.091V116.432H784.534C785.17 115.023 786.091 113.591 787.295 112.136C788.523 110.659 790.114 109.432 792.068 108.455C794.045 107.455 796.5 106.955 799.432 106.955C803.25 106.955 806.773 107.955 810 109.955C813.227 111.932 815.807 114.92 817.739 118.92C819.67 122.898 820.636 127.886 820.636 133.886C820.636 139.727 819.693 144.659 817.807 148.682C815.943 152.682 813.398 155.716 810.17 157.784C806.966 159.83 803.375 160.852 799.398 160.852C796.58 160.852 794.182 160.386 792.205 159.455C790.25 158.523 788.648 157.352 787.398 155.943C786.148 154.511 785.193 153.068 784.534 151.614H783.886V160H769.568ZM783.784 133.818C783.784 136.932 784.216 139.648 785.08 141.966C785.943 144.284 787.193 146.091 788.83 147.386C790.466 148.659 792.455 149.295 794.795 149.295C797.159 149.295 799.159 148.648 800.795 147.352C802.432 146.034 803.67 144.216 804.511 141.898C805.375 139.557 805.807 136.864 805.807 133.818C805.807 130.795 805.386 128.136 804.545 125.841C803.705 123.545 802.466 121.75 800.83 120.455C799.193 119.159 797.182 118.511 794.795 118.511C792.432 118.511 790.432 119.136 788.795 120.386C787.182 121.636 785.943 123.409 785.08 125.705C784.216 128 783.784 130.705 783.784 133.818ZM858.486 107.636V118.545H826.168V107.636H858.486ZM833.565 160V103.852C833.565 100.057 834.304 96.9091 835.781 94.4091C837.281 91.9091 839.327 90.0341 841.918 88.7841C844.509 87.5341 847.452 86.9091 850.747 86.9091C852.974 86.9091 855.009 87.0795 856.849 87.4205C858.713 87.7614 860.099 88.0682 861.009 88.3409L858.418 99.25C857.849 99.0682 857.145 98.8977 856.304 98.7386C855.486 98.5795 854.645 98.5 853.781 98.5C851.645 98.5 850.156 99 849.315 100C848.474 100.977 848.054 102.352 848.054 104.125V160H833.565ZM889.142 161.023C883.847 161.023 879.267 159.898 875.403 157.648C871.563 155.375 868.597 152.216 866.506 148.17C864.415 144.102 863.369 139.386 863.369 134.023C863.369 128.614 864.415 123.886 866.506 119.841C868.597 115.773 871.563 112.614 875.403 110.364C879.267 108.091 883.847 106.955 889.142 106.955C894.438 106.955 899.006 108.091 902.847 110.364C906.71 112.614 909.688 115.773 911.778 119.841C913.869 123.886 914.915 128.614 914.915 134.023C914.915 139.386 913.869 144.102 911.778 148.17C909.688 152.216 906.71 155.375 902.847 157.648C899.006 159.898 894.438 161.023 889.142 161.023ZM889.21 149.773C891.619 149.773 893.631 149.091 895.244 147.727C896.858 146.341 898.074 144.455 898.892 142.068C899.733 139.682 900.153 136.966 900.153 133.92C900.153 130.875 899.733 128.159 898.892 125.773C898.074 123.386 896.858 121.5 895.244 120.114C893.631 118.727 891.619 118.034 889.21 118.034C886.778 118.034 884.733 118.727 883.074 120.114C881.438 121.5 880.199 123.386 879.358 125.773C878.54 128.159 878.131 130.875 878.131 133.92C878.131 136.966 878.54 139.682 879.358 142.068C880.199 144.455 881.438 146.341 883.074 147.727C884.733 149.091 886.778 149.773 889.21 149.773ZM938.881 129.727V160H924.358V107.636H938.199V116.875H938.812C939.972 113.83 941.915 111.42 944.642 109.648C947.369 107.852 950.676 106.955 954.562 106.955C958.199 106.955 961.369 107.75 964.074 109.341C966.778 110.932 968.881 113.205 970.381 116.159C971.881 119.091 972.631 122.591 972.631 126.659V160H958.108V129.25C958.131 126.045 957.313 123.545 955.653 121.75C953.994 119.932 951.71 119.023 948.801 119.023C946.847 119.023 945.119 119.443 943.619 120.284C942.142 121.125 940.983 122.352 940.142 123.966C939.324 125.557 938.903 127.477 938.881 129.727ZM1011.93 107.636V118.545H980.395V107.636H1011.93ZM987.554 95.0909H1002.08V143.909C1002.08 145.25 1002.28 146.295 1002.69 147.045C1003.1 147.773 1003.67 148.284 1004.39 148.58C1005.14 148.875 1006.01 149.023 1006.99 149.023C1007.67 149.023 1008.35 148.966 1009.03 148.852C1009.71 148.716 1010.24 148.614 1010.6 148.545L1012.88 159.352C1012.16 159.58 1011.13 159.841 1009.82 160.136C1008.5 160.455 1006.89 160.648 1005.01 160.716C1001.51 160.852 998.44 160.386 995.804 159.318C993.19 158.25 991.156 156.591 989.702 154.341C988.247 152.091 987.531 149.25 987.554 145.818V95.0909ZM1064.3 122.568L1051.01 123.386C1050.78 122.25 1050.29 121.227 1049.54 120.318C1048.79 119.386 1047.8 118.648 1046.57 118.102C1045.37 117.534 1043.93 117.25 1042.24 117.25C1039.99 117.25 1038.1 117.727 1036.55 118.682C1035.01 119.614 1034.23 120.864 1034.23 122.432C1034.23 123.682 1034.73 124.739 1035.73 125.602C1036.73 126.466 1038.45 127.159 1040.88 127.682L1050.36 129.591C1055.45 130.636 1059.24 132.318 1061.74 134.636C1064.24 136.955 1065.49 140 1065.49 143.773C1065.49 147.205 1064.48 150.216 1062.46 152.807C1060.46 155.398 1057.71 157.42 1054.21 158.875C1050.73 160.307 1046.72 161.023 1042.18 161.023C1035.24 161.023 1029.72 159.58 1025.61 156.693C1021.52 153.784 1019.12 149.83 1018.41 144.83L1032.7 144.08C1033.13 146.193 1034.18 147.807 1035.84 148.92C1037.49 150.011 1039.62 150.557 1042.21 150.557C1044.76 150.557 1046.8 150.068 1048.35 149.091C1049.91 148.091 1050.71 146.807 1050.73 145.239C1050.71 143.92 1050.15 142.841 1049.06 142C1047.97 141.136 1046.29 140.477 1044.02 140.023L1034.95 138.216C1029.84 137.193 1026.03 135.42 1023.53 132.898C1021.05 130.375 1019.81 127.159 1019.81 123.25C1019.81 119.886 1020.72 116.989 1022.54 114.557C1024.38 112.125 1026.96 110.25 1030.28 108.932C1033.62 107.614 1037.53 106.955 1042.01 106.955C1048.62 106.955 1053.82 108.352 1057.62 111.148C1061.44 113.943 1063.66 117.75 1064.3 122.568ZM1107.26 125.568V137.091H1075.42V125.568H1107.26ZM1143.3 161.023C1137.93 161.023 1133.32 159.886 1129.46 157.614C1125.62 155.318 1122.66 152.136 1120.59 148.068C1118.55 144 1117.53 139.318 1117.53 134.023C1117.53 128.659 1118.56 123.955 1120.63 119.909C1122.72 115.841 1125.68 112.67 1129.53 110.398C1133.37 108.102 1137.93 106.955 1143.23 106.955C1147.8 106.955 1151.8 107.784 1155.23 109.443C1158.66 111.102 1161.38 113.432 1163.38 116.432C1165.38 119.432 1166.48 122.955 1166.68 127H1152.98C1152.59 124.386 1151.57 122.284 1149.91 120.693C1148.28 119.08 1146.13 118.273 1143.47 118.273C1141.22 118.273 1139.25 118.886 1137.57 120.114C1135.91 121.318 1134.62 123.08 1133.68 125.398C1132.75 127.716 1132.29 130.523 1132.29 133.818C1132.29 137.159 1132.74 140 1133.65 142.341C1134.58 144.682 1135.89 146.466 1137.57 147.693C1139.25 148.92 1141.22 149.534 1143.47 149.534C1145.13 149.534 1146.62 149.193 1147.93 148.511C1149.28 147.83 1150.38 146.841 1151.24 145.545C1152.13 144.227 1152.71 142.648 1152.98 140.807H1166.68C1166.46 144.807 1165.37 148.33 1163.41 151.375C1161.48 154.398 1158.81 156.761 1155.4 158.466C1151.99 160.17 1147.96 161.023 1143.3 161.023ZM1190.51 90.1818V160H1175.98V90.1818H1190.51ZM1202.14 160V107.636H1216.66V160H1202.14ZM1209.43 100.886C1207.28 100.886 1205.42 100.17 1203.88 98.7386C1202.36 97.2841 1201.59 95.5455 1201.59 93.5227C1201.59 91.5227 1202.36 89.8068 1203.88 88.375C1205.42 86.9205 1207.28 86.1932 1209.43 86.1932C1211.59 86.1932 1213.43 86.9205 1214.96 88.375C1216.5 89.8068 1217.28 91.5227 1217.28 93.5227C1217.28 95.5455 1216.5 97.2841 1214.96 98.7386C1213.43 100.17 1211.59 100.886 1209.43 100.886ZM1252.16 161.023C1246.77 161.023 1242.14 159.932 1238.25 157.75C1234.39 155.545 1231.41 152.432 1229.32 148.409C1227.23 144.364 1226.18 139.58 1226.18 134.057C1226.18 128.67 1227.23 123.943 1229.32 119.875C1231.41 115.807 1234.35 112.636 1238.15 110.364C1241.97 108.091 1246.44 106.955 1251.58 106.955C1255.03 106.955 1258.25 107.511 1261.23 108.625C1264.23 109.716 1266.84 111.364 1269.07 113.568C1271.32 115.773 1273.07 118.545 1274.32 121.886C1275.57 125.205 1276.19 129.091 1276.19 133.545V137.534H1231.98V128.534H1262.52C1262.52 126.443 1262.07 124.591 1261.16 122.977C1260.25 121.364 1258.99 120.102 1257.38 119.193C1255.78 118.261 1253.93 117.795 1251.82 117.795C1249.61 117.795 1247.66 118.307 1245.95 119.33C1244.27 120.33 1242.95 121.682 1242 123.386C1241.05 125.068 1240.56 126.943 1240.53 129.011V137.568C1240.53 140.159 1241.01 142.398 1241.97 144.284C1242.94 146.17 1244.32 147.625 1246.09 148.648C1247.86 149.67 1249.97 150.182 1252.4 150.182C1254.01 150.182 1255.49 149.955 1256.83 149.5C1258.17 149.045 1259.32 148.364 1260.27 147.455C1261.23 146.545 1261.95 145.432 1262.45 144.114L1275.89 145C1275.2 148.227 1273.81 151.045 1271.69 153.455C1269.6 155.841 1266.9 157.705 1263.58 159.045C1260.28 160.364 1256.48 161.023 1252.16 161.023ZM1300.19 129.727V160H1285.67V107.636H1299.51V116.875H1300.12C1301.28 113.83 1303.23 111.42 1305.95 109.648C1308.68 107.852 1311.99 106.955 1315.88 106.955C1319.51 106.955 1322.68 107.75 1325.39 109.341C1328.09 110.932 1330.19 113.205 1331.69 116.159C1333.19 119.091 1333.94 122.591 1333.94 126.659V160H1319.42V129.25C1319.44 126.045 1318.63 123.545 1316.97 121.75C1315.31 119.932 1313.02 119.023 1310.11 119.023C1308.16 119.023 1306.43 119.443 1304.93 120.284C1303.45 121.125 1302.3 122.352 1301.45 123.966C1300.64 125.557 1300.22 127.477 1300.19 129.727ZM1373.24 107.636V118.545H1341.71V107.636H1373.24ZM1348.87 95.0909H1363.39V143.909C1363.39 145.25 1363.59 146.295 1364 147.045C1364.41 147.773 1364.98 148.284 1365.71 148.58C1366.46 148.875 1367.32 149.023 1368.3 149.023C1368.98 149.023 1369.66 148.966 1370.34 148.852C1371.03 148.716 1371.55 148.614 1371.91 148.545L1374.2 159.352C1373.47 159.58 1372.45 159.841 1371.13 160.136C1369.81 160.455 1368.21 160.648 1366.32 160.716C1362.82 160.852 1359.75 160.386 1357.12 159.318C1354.5 158.25 1352.47 156.591 1351.01 154.341C1349.56 152.091 1348.84 149.25 1348.87 145.818V95.0909Z" fill="black"/>
</svg>
