<svg width="2000" height="250" viewBox="0 0 2000 250" fill="none" xmlns="http://www.w3.org/2000/svg">
<rect width="2000" height="250" rx="48" fill="#FDE200"/>
<path d="M148.121 63.9112C151.892 65.4726 155.384 67.6248 158.466 70.2816C159.177 70.895 159.867 71.5353 160.534 72.2014C164.086 75.7527 166.905 79.9687 168.827 84.6086C170.75 89.2486 171.74 94.2217 171.74 99.2439C171.74 103.776 170.934 108.269 169.363 112.512H171.74C176.764 112.512 181.739 113.501 186.381 115.423C190.153 116.985 193.644 119.137 196.726 121.794C197.438 122.407 198.127 123.047 198.794 123.714C202.347 127.265 205.165 131.481 207.088 136.121C209.01 140.761 210 145.734 210 150.756C210 155.778 209.01 160.751 207.088 165.391C205.165 170.031 202.347 174.247 198.794 177.799C198.127 178.465 197.438 179.105 196.726 179.718C193.644 182.375 190.152 184.527 186.381 186.089C181.739 188.011 176.764 189 171.74 189H146.753C139.854 189 134.26 183.409 134.26 176.512C134.26 169.615 139.854 164.024 146.753 164.024H171.74L171.74 164.028C173.483 164.028 175.21 163.684 176.821 163.017C178.431 162.35 179.895 161.373 181.128 160.14C182.361 158.908 183.339 157.445 184.006 155.835C184.673 154.225 185.017 152.499 185.017 150.756C185.017 149.013 184.673 147.288 184.006 145.677C183.339 144.067 182.361 142.604 181.128 141.372C179.895 140.139 178.432 139.162 176.821 138.495C175.21 137.828 173.483 137.485 171.74 137.485V137.488H108.493C101.593 137.488 96 131.897 96 125C96 118.103 101.593 112.512 108.493 112.512H133.767C135.413 112.477 137.038 112.135 138.56 111.505C140.171 110.838 141.635 109.861 142.868 108.628C144.101 107.396 145.079 105.933 145.746 104.323C146.413 102.713 146.757 100.987 146.757 99.2439C146.757 97.5011 146.413 95.7753 145.746 94.1652C145.079 92.555 144.101 91.092 142.868 89.8596C141.635 88.6272 140.171 87.6497 138.56 86.9827C136.95 86.3158 135.223 85.9725 133.479 85.9725V85.9756H108.493C101.593 85.9756 96 80.3846 96 73.4878C96 66.591 101.593 61 108.493 61H133.479C138.504 61 143.479 61.9892 148.121 63.9112Z" fill="black"/>
<path d="M96 176.512C96 169.615 101.593 164.024 108.493 164.024H115.521C122.42 164.024 128.014 169.615 128.014 176.512C128.014 183.409 122.42 189 115.521 189H108.493C101.593 189 96 183.409 96 176.512Z" fill="black"/>
<path d="M309.511 180.114C302.261 180.114 295.807 179.125 290.148 177.148C284.489 175.193 279.705 172.318 275.795 168.523C271.886 164.75 268.909 160.136 266.864 154.682C264.818 149.227 263.795 143.023 263.795 136.068C263.795 129.205 264.818 122.977 266.864 117.386C268.932 111.795 271.943 107 275.898 103C279.852 98.9773 284.682 95.8864 290.386 93.7273C296.114 91.5682 302.636 90.4886 309.955 90.4886C316.727 90.4886 322.773 91.4773 328.091 93.4545C333.432 95.4318 337.955 98.25 341.659 101.909C345.386 105.545 348.216 109.875 350.148 114.898C352.102 119.898 353.068 125.432 353.045 131.5C353.068 135.682 352.705 139.523 351.955 143.023C351.205 146.523 350.023 149.58 348.409 152.193C346.818 154.784 344.727 156.841 342.136 158.364C339.545 159.864 336.409 160.716 332.727 160.92C330.091 161.125 327.955 160.932 326.318 160.341C324.682 159.75 323.432 158.875 322.568 157.716C321.727 156.534 321.182 155.159 320.932 153.591H320.523C319.977 154.955 318.909 156.193 317.318 157.307C315.727 158.398 313.784 159.25 311.489 159.864C309.216 160.455 306.795 160.67 304.227 160.511C301.545 160.352 299 159.727 296.591 158.636C294.205 157.545 292.08 155.966 290.216 153.898C288.375 151.83 286.92 149.273 285.852 146.227C284.807 143.182 284.273 139.659 284.25 135.659C284.273 131.705 284.83 128.261 285.92 125.33C287.034 122.398 288.5 119.932 290.318 117.932C292.159 115.932 294.205 114.364 296.455 113.227C298.705 112.091 300.966 111.364 303.239 111.045C305.807 110.659 308.239 110.659 310.534 111.045C312.83 111.432 314.761 112.057 316.33 112.92C317.92 113.784 318.909 114.716 319.295 115.716H319.773V111.898H330.443V145.17C330.466 146.739 330.818 147.955 331.5 148.818C332.182 149.682 333.102 150.114 334.261 150.114C335.83 150.114 337.136 149.42 338.182 148.034C339.25 146.648 340.045 144.523 340.568 141.659C341.114 138.795 341.386 135.148 341.386 130.716C341.386 126.443 340.818 122.693 339.682 119.466C338.568 116.216 337 113.455 334.977 111.182C332.977 108.886 330.648 107.023 327.989 105.591C325.33 104.159 322.443 103.114 319.33 102.455C316.239 101.795 313.057 101.466 309.784 101.466C304.125 101.466 299.182 102.33 294.955 104.057C290.727 105.761 287.205 108.159 284.386 111.25C281.568 114.341 279.455 117.966 278.045 122.125C276.659 126.261 275.955 130.773 275.932 135.659C275.955 141.045 276.705 145.818 278.182 149.977C279.682 154.114 281.886 157.591 284.795 160.409C287.705 163.227 291.295 165.364 295.568 166.818C299.841 168.273 304.75 169 310.295 169C312.909 169 315.466 168.807 317.966 168.42C320.466 168.057 322.727 167.602 324.75 167.057C326.773 166.534 328.398 166.023 329.625 165.523L333 175.409C331.568 176.227 329.625 176.989 327.17 177.693C324.739 178.42 321.989 179 318.92 179.432C315.875 179.886 312.739 180.114 309.511 180.114ZM307.943 149.295C310.716 149.295 312.92 148.761 314.557 147.693C316.216 146.625 317.398 145.045 318.102 142.955C318.83 140.841 319.17 138.239 319.125 135.148C319.102 132.42 318.75 130.114 318.068 128.227C317.409 126.318 316.261 124.875 314.625 123.898C313.011 122.898 310.761 122.398 307.875 122.398C305.352 122.398 303.205 122.932 301.432 124C299.682 125.068 298.341 126.568 297.409 128.5C296.5 130.409 296.034 132.659 296.011 135.25C296.034 137.659 296.42 139.943 297.17 142.102C297.92 144.239 299.159 145.977 300.886 147.318C302.614 148.636 304.966 149.295 307.943 149.295ZM362.702 160V107.636H377.224V160H362.702ZM369.997 100.886C367.838 100.886 365.986 100.17 364.44 98.7386C362.918 97.2841 362.156 95.5455 362.156 93.5227C362.156 91.5227 362.918 89.8068 364.44 88.375C365.986 86.9205 367.838 86.1932 369.997 86.1932C372.156 86.1932 373.997 86.9205 375.52 88.375C377.065 89.8068 377.838 91.5227 377.838 93.5227C377.838 95.5455 377.065 97.2841 375.52 98.7386C373.997 100.17 372.156 100.886 369.997 100.886ZM389.131 160V90.1818H403.653V116.432H404.097C404.733 115.023 405.653 113.591 406.858 112.136C408.085 110.659 409.676 109.432 411.631 108.455C413.608 107.455 416.063 106.955 418.994 106.955C422.813 106.955 426.335 107.955 429.562 109.955C432.79 111.932 435.369 114.92 437.301 118.92C439.233 122.898 440.199 127.886 440.199 133.886C440.199 139.727 439.256 144.659 437.369 148.682C435.506 152.682 432.96 155.716 429.733 157.784C426.528 159.83 422.938 160.852 418.96 160.852C416.142 160.852 413.744 160.386 411.767 159.455C409.812 158.523 408.21 157.352 406.96 155.943C405.71 154.511 404.756 153.068 404.097 151.614H403.449V160H389.131ZM403.347 133.818C403.347 136.932 403.778 139.648 404.642 141.966C405.506 144.284 406.756 146.091 408.392 147.386C410.028 148.659 412.017 149.295 414.358 149.295C416.722 149.295 418.722 148.648 420.358 147.352C421.994 146.034 423.233 144.216 424.074 141.898C424.938 139.557 425.369 136.864 425.369 133.818C425.369 130.795 424.949 128.136 424.108 125.841C423.267 123.545 422.028 121.75 420.392 120.455C418.756 119.159 416.744 118.511 414.358 118.511C411.994 118.511 409.994 119.136 408.358 120.386C406.744 121.636 405.506 123.409 404.642 125.705C403.778 128 403.347 130.705 403.347 133.818ZM473.48 180.727C468.776 180.727 464.741 180.08 461.378 178.784C458.037 177.511 455.378 175.773 453.401 173.568C451.423 171.364 450.139 168.886 449.548 166.136L462.98 164.33C463.389 165.375 464.037 166.352 464.923 167.261C465.81 168.17 466.98 168.898 468.435 169.443C469.912 170.011 471.707 170.295 473.821 170.295C476.98 170.295 479.582 169.523 481.628 167.977C483.696 166.455 484.73 163.898 484.73 160.307V150.727H484.116C483.48 152.182 482.526 153.557 481.253 154.852C479.98 156.148 478.344 157.205 476.344 158.023C474.344 158.841 471.957 159.25 469.185 159.25C465.253 159.25 461.673 158.341 458.446 156.523C455.241 154.682 452.685 151.875 450.776 148.102C448.889 144.307 447.946 139.511 447.946 133.716C447.946 127.784 448.912 122.83 450.844 118.852C452.776 114.875 455.344 111.898 458.548 109.92C461.776 107.943 465.31 106.955 469.151 106.955C472.082 106.955 474.537 107.455 476.514 108.455C478.491 109.432 480.082 110.659 481.287 112.136C482.514 113.591 483.457 115.023 484.116 116.432H484.662V107.636H499.082V160.511C499.082 164.966 497.991 168.693 495.81 171.693C493.628 174.693 490.605 176.943 486.741 178.443C482.901 179.966 478.48 180.727 473.48 180.727ZM473.787 148.341C476.128 148.341 478.105 147.761 479.719 146.602C481.355 145.42 482.605 143.739 483.469 141.557C484.355 139.352 484.798 136.716 484.798 133.648C484.798 130.58 484.366 127.92 483.503 125.67C482.639 123.398 481.389 121.636 479.753 120.386C478.116 119.136 476.128 118.511 473.787 118.511C471.401 118.511 469.389 119.159 467.753 120.455C466.116 121.727 464.878 123.5 464.037 125.773C463.196 128.045 462.776 130.67 462.776 133.648C462.776 136.67 463.196 139.284 464.037 141.489C464.901 143.67 466.139 145.364 467.753 146.568C469.389 147.75 471.401 148.341 473.787 148.341ZM541.048 86.9091L518.548 170.5H506.037L528.537 86.9091H541.048ZM581.625 137.705V107.636H596.148V160H582.205V150.489H581.659C580.477 153.557 578.511 156.023 575.761 157.886C573.034 159.75 569.705 160.682 565.773 160.682C562.273 160.682 559.193 159.886 556.534 158.295C553.875 156.705 551.795 154.443 550.295 151.511C548.818 148.58 548.068 145.068 548.045 140.977V107.636H562.568V138.386C562.591 141.477 563.42 143.92 565.057 145.716C566.693 147.511 568.886 148.409 571.636 148.409C573.386 148.409 575.023 148.011 576.545 147.216C578.068 146.398 579.295 145.193 580.227 143.602C581.182 142.011 581.648 140.045 581.625 137.705ZM635.616 107.636V118.545H604.082V107.636H635.616ZM611.241 95.0909H625.764V143.909C625.764 145.25 625.969 146.295 626.378 147.045C626.787 147.773 627.355 148.284 628.082 148.58C628.832 148.875 629.696 149.023 630.673 149.023C631.355 149.023 632.037 148.966 632.719 148.852C633.401 148.716 633.923 148.614 634.287 148.545L636.571 159.352C635.844 159.58 634.821 159.841 633.503 160.136C632.185 160.455 630.582 160.648 628.696 160.716C625.196 160.852 622.128 160.386 619.491 159.318C616.878 158.25 614.844 156.591 613.389 154.341C611.935 152.091 611.219 149.25 611.241 145.818V95.0909ZM645.077 160V107.636H659.599V160H645.077ZM652.372 100.886C650.213 100.886 648.361 100.17 646.815 98.7386C645.293 97.2841 644.531 95.5455 644.531 93.5227C644.531 91.5227 645.293 89.8068 646.815 88.375C648.361 86.9205 650.213 86.1932 652.372 86.1932C654.531 86.1932 656.372 86.9205 657.895 88.375C659.44 89.8068 660.213 91.5227 660.213 93.5227C660.213 95.5455 659.44 97.2841 657.895 98.7386C656.372 100.17 654.531 100.886 652.372 100.886ZM685.756 90.1818V160H671.233V90.1818H685.756ZM740.957 122.568L727.662 123.386C727.435 122.25 726.946 121.227 726.196 120.318C725.446 119.386 724.457 118.648 723.23 118.102C722.026 117.534 720.582 117.25 718.901 117.25C716.651 117.25 714.753 117.727 713.207 118.682C711.662 119.614 710.889 120.864 710.889 122.432C710.889 123.682 711.389 124.739 712.389 125.602C713.389 126.466 715.105 127.159 717.537 127.682L727.014 129.591C732.105 130.636 735.901 132.318 738.401 134.636C740.901 136.955 742.151 140 742.151 143.773C742.151 147.205 741.139 150.216 739.116 152.807C737.116 155.398 734.366 157.42 730.866 158.875C727.389 160.307 723.378 161.023 718.832 161.023C711.901 161.023 706.378 159.58 702.264 156.693C698.173 153.784 695.776 149.83 695.071 144.83L709.355 144.08C709.787 146.193 710.832 147.807 712.491 148.92C714.151 150.011 716.276 150.557 718.866 150.557C721.412 150.557 723.457 150.068 725.003 149.091C726.571 148.091 727.366 146.807 727.389 145.239C727.366 143.92 726.81 142.841 725.719 142C724.628 141.136 722.946 140.477 720.673 140.023L711.605 138.216C706.491 137.193 702.685 135.42 700.185 132.898C697.707 130.375 696.469 127.159 696.469 123.25C696.469 119.886 697.378 116.989 699.196 114.557C701.037 112.125 703.616 110.25 706.935 108.932C710.276 107.614 714.185 106.955 718.662 106.955C725.276 106.955 730.48 108.352 734.276 111.148C738.094 113.943 740.321 117.75 740.957 122.568Z" fill="black"/>
</svg>
