<svg width="2000" height="250" viewBox="0 0 2000 250" fill="none" xmlns="http://www.w3.org/2000/svg">
<rect width="2000" height="250" rx="48" fill="#FDE200"/>
<path d="M148.121 63.9112C151.892 65.4726 155.384 67.6248 158.466 70.2816C159.177 70.895 159.867 71.5353 160.534 72.2014C164.086 75.7527 166.905 79.9687 168.827 84.6086C170.75 89.2486 171.74 94.2217 171.74 99.2439C171.74 103.776 170.934 108.269 169.363 112.512H171.74C176.764 112.512 181.739 113.501 186.381 115.423C190.153 116.985 193.644 119.137 196.726 121.794C197.438 122.407 198.127 123.047 198.794 123.714C202.347 127.265 205.165 131.481 207.088 136.121C209.01 140.761 210 145.734 210 150.756C210 155.778 209.01 160.751 207.088 165.391C205.165 170.031 202.347 174.247 198.794 177.799C198.127 178.465 197.438 179.105 196.726 179.718C193.644 182.375 190.152 184.527 186.381 186.089C181.739 188.011 176.764 189 171.74 189H146.753C139.854 189 134.26 183.409 134.26 176.512C134.26 169.615 139.854 164.024 146.753 164.024H171.74L171.74 164.028C173.483 164.028 175.21 163.684 176.821 163.017C178.431 162.35 179.895 161.373 181.128 160.14C182.361 158.908 183.339 157.445 184.006 155.835C184.673 154.225 185.017 152.499 185.017 150.756C185.017 149.013 184.673 147.288 184.006 145.677C183.339 144.067 182.361 142.604 181.128 141.372C179.895 140.139 178.432 139.162 176.821 138.495C175.21 137.828 173.483 137.485 171.74 137.485V137.488H108.493C101.593 137.488 96 131.897 96 125C96 118.103 101.593 112.512 108.493 112.512H133.767C135.413 112.477 137.038 112.135 138.56 111.505C140.171 110.838 141.635 109.861 142.868 108.628C144.101 107.396 145.079 105.933 145.746 104.323C146.413 102.713 146.757 100.987 146.757 99.2439C146.757 97.5011 146.413 95.7753 145.746 94.1652C145.079 92.555 144.101 91.092 142.868 89.8596C141.635 88.6272 140.171 87.6497 138.56 86.9827C136.95 86.3158 135.223 85.9725 133.479 85.9725V85.9756H108.493C101.593 85.9756 96 80.3846 96 73.4878C96 66.591 101.593 61 108.493 61H133.479C138.504 61 143.479 61.9892 148.121 63.9112Z" fill="black"/>
<path d="M96 176.512C96 169.615 101.593 164.024 108.493 164.024H115.521C122.42 164.024 128.014 169.615 128.014 176.512C128.014 183.409 122.42 189 115.521 189H108.493C101.593 189 96 183.409 96 176.512Z" fill="black"/>
<path d="M287.659 161.023C282.273 161.023 277.636 159.932 273.75 157.75C269.886 155.545 266.909 152.432 264.818 148.409C262.727 144.364 261.682 139.58 261.682 134.057C261.682 128.67 262.727 123.943 264.818 119.875C266.909 115.807 269.852 112.636 273.648 110.364C277.466 108.091 281.943 106.955 287.08 106.955C290.534 106.955 293.75 107.511 296.727 108.625C299.727 109.716 302.341 111.364 304.568 113.568C306.818 115.773 308.568 118.545 309.818 121.886C311.068 125.205 311.693 129.091 311.693 133.545V137.534H267.477V128.534H298.023C298.023 126.443 297.568 124.591 296.659 122.977C295.75 121.364 294.489 120.102 292.875 119.193C291.284 118.261 289.432 117.795 287.318 117.795C285.114 117.795 283.159 118.307 281.455 119.33C279.773 120.33 278.455 121.682 277.5 123.386C276.545 125.068 276.057 126.943 276.034 129.011V137.568C276.034 140.159 276.511 142.398 277.466 144.284C278.443 146.17 279.818 147.625 281.591 148.648C283.364 149.67 285.466 150.182 287.898 150.182C289.511 150.182 290.989 149.955 292.33 149.5C293.67 149.045 294.818 148.364 295.773 147.455C296.727 146.545 297.455 145.432 297.955 144.114L311.386 145C310.705 148.227 309.307 151.045 307.193 153.455C305.102 155.841 302.398 157.705 299.08 159.045C295.784 160.364 291.977 161.023 287.659 161.023ZM335.693 90.1818V160H321.17V90.1818H335.693ZM371.19 161.023C365.804 161.023 361.168 159.932 357.281 157.75C353.418 155.545 350.44 152.432 348.349 148.409C346.259 144.364 345.213 139.58 345.213 134.057C345.213 128.67 346.259 123.943 348.349 119.875C350.44 115.807 353.384 112.636 357.179 110.364C360.997 108.091 365.474 106.955 370.611 106.955C374.065 106.955 377.281 107.511 380.259 108.625C383.259 109.716 385.872 111.364 388.099 113.568C390.349 115.773 392.099 118.545 393.349 121.886C394.599 125.205 395.224 129.091 395.224 133.545V137.534H351.009V128.534H381.554C381.554 126.443 381.099 124.591 380.19 122.977C379.281 121.364 378.02 120.102 376.406 119.193C374.815 118.261 372.963 117.795 370.849 117.795C368.645 117.795 366.69 118.307 364.986 119.33C363.304 120.33 361.986 121.682 361.031 123.386C360.077 125.068 359.588 126.943 359.565 129.011V137.568C359.565 140.159 360.043 142.398 360.997 144.284C361.974 146.17 363.349 147.625 365.122 148.648C366.895 149.67 368.997 150.182 371.429 150.182C373.043 150.182 374.52 149.955 375.861 149.5C377.202 149.045 378.349 148.364 379.304 147.455C380.259 146.545 380.986 145.432 381.486 144.114L394.918 145C394.236 148.227 392.838 151.045 390.724 153.455C388.634 155.841 385.929 157.705 382.611 159.045C379.315 160.364 375.509 161.023 371.19 161.023ZM452.114 107.636L433.807 160H417.443L399.136 107.636H414.477L425.352 145.102H425.898L436.739 107.636H452.114ZM481.722 161.023C476.335 161.023 471.699 159.932 467.812 157.75C463.949 155.545 460.972 152.432 458.881 148.409C456.79 144.364 455.744 139.58 455.744 134.057C455.744 128.67 456.79 123.943 458.881 119.875C460.972 115.807 463.915 112.636 467.71 110.364C471.528 108.091 476.006 106.955 481.142 106.955C484.597 106.955 487.813 107.511 490.79 108.625C493.79 109.716 496.403 111.364 498.631 113.568C500.881 115.773 502.631 118.545 503.881 121.886C505.131 125.205 505.756 129.091 505.756 133.545V137.534H461.54V128.534H492.085C492.085 126.443 491.631 124.591 490.722 122.977C489.813 121.364 488.551 120.102 486.938 119.193C485.347 118.261 483.494 117.795 481.381 117.795C479.176 117.795 477.222 118.307 475.517 119.33C473.835 120.33 472.517 121.682 471.562 123.386C470.608 125.068 470.119 126.943 470.097 129.011V137.568C470.097 140.159 470.574 142.398 471.528 144.284C472.506 146.17 473.881 147.625 475.653 148.648C477.426 149.67 479.528 150.182 481.96 150.182C483.574 150.182 485.051 149.955 486.392 149.5C487.733 149.045 488.881 148.364 489.835 147.455C490.79 146.545 491.517 145.432 492.017 144.114L505.449 145C504.767 148.227 503.369 151.045 501.256 153.455C499.165 155.841 496.46 157.705 493.142 159.045C489.847 160.364 486.04 161.023 481.722 161.023ZM529.756 129.727V160H515.233V107.636H529.074V116.875H529.688C530.847 113.83 532.79 111.42 535.517 109.648C538.244 107.852 541.551 106.955 545.438 106.955C549.074 106.955 552.244 107.75 554.949 109.341C557.653 110.932 559.756 113.205 561.256 116.159C562.756 119.091 563.506 122.591 563.506 126.659V160H548.983V129.25C549.006 126.045 548.188 123.545 546.528 121.75C544.869 119.932 542.585 119.023 539.676 119.023C537.722 119.023 535.994 119.443 534.494 120.284C533.017 121.125 531.858 122.352 531.017 123.966C530.199 125.557 529.778 127.477 529.756 129.727ZM589.474 90.1818V160H574.952V90.1818H589.474ZM616.04 160.989C612.699 160.989 609.722 160.409 607.108 159.25C604.494 158.068 602.426 156.33 600.903 154.034C599.403 151.716 598.653 148.83 598.653 145.375C598.653 142.466 599.188 140.023 600.256 138.045C601.324 136.068 602.778 134.477 604.619 133.273C606.46 132.068 608.551 131.159 610.892 130.545C613.256 129.932 615.733 129.5 618.324 129.25C621.369 128.932 623.824 128.636 625.688 128.364C627.551 128.068 628.903 127.636 629.744 127.068C630.585 126.5 631.006 125.659 631.006 124.545V124.341C631.006 122.182 630.324 120.511 628.96 119.33C627.619 118.148 625.71 117.557 623.233 117.557C620.619 117.557 618.54 118.136 616.994 119.295C615.449 120.432 614.426 121.864 613.926 123.591L600.494 122.5C601.176 119.318 602.517 116.568 604.517 114.25C606.517 111.909 609.097 110.114 612.256 108.864C615.438 107.591 619.119 106.955 623.301 106.955C626.21 106.955 628.994 107.295 631.653 107.977C634.335 108.659 636.71 109.716 638.778 111.148C640.869 112.58 642.517 114.42 643.722 116.67C644.926 118.898 645.528 121.568 645.528 124.682V160H631.756V152.739H631.347C630.506 154.375 629.381 155.818 627.972 157.068C626.562 158.295 624.869 159.261 622.892 159.966C620.915 160.648 618.631 160.989 616.04 160.989ZM620.199 150.966C622.335 150.966 624.222 150.545 625.858 149.705C627.494 148.841 628.778 147.682 629.71 146.227C630.642 144.773 631.108 143.125 631.108 141.284V135.727C630.653 136.023 630.028 136.295 629.233 136.545C628.46 136.773 627.585 136.989 626.608 137.193C625.631 137.375 624.653 137.545 623.676 137.705C622.699 137.841 621.812 137.966 621.017 138.08C619.313 138.33 617.824 138.727 616.551 139.273C615.278 139.818 614.29 140.557 613.585 141.489C612.881 142.398 612.528 143.534 612.528 144.898C612.528 146.875 613.244 148.386 614.676 149.432C616.131 150.455 617.972 150.966 620.199 150.966ZM657.068 160V90.1818H671.591V116.432H672.034C672.67 115.023 673.591 113.591 674.795 112.136C676.023 110.659 677.614 109.432 679.568 108.455C681.545 107.455 684 106.955 686.932 106.955C690.75 106.955 694.273 107.955 697.5 109.955C700.727 111.932 703.307 114.92 705.239 118.92C707.17 122.898 708.136 127.886 708.136 133.886C708.136 139.727 707.193 144.659 705.307 148.682C703.443 152.682 700.898 155.716 697.67 157.784C694.466 159.83 690.875 160.852 686.898 160.852C684.08 160.852 681.682 160.386 679.705 159.455C677.75 158.523 676.148 157.352 674.898 155.943C673.648 154.511 672.693 153.068 672.034 151.614H671.386V160H657.068ZM671.284 133.818C671.284 136.932 671.716 139.648 672.58 141.966C673.443 144.284 674.693 146.091 676.33 147.386C677.966 148.659 679.955 149.295 682.295 149.295C684.659 149.295 686.659 148.648 688.295 147.352C689.932 146.034 691.17 144.216 692.011 141.898C692.875 139.557 693.307 136.864 693.307 133.818C693.307 130.795 692.886 128.136 692.045 125.841C691.205 123.545 689.966 121.75 688.33 120.455C686.693 119.159 684.682 118.511 682.295 118.511C679.932 118.511 677.932 119.136 676.295 120.386C674.682 121.636 673.443 123.409 672.58 125.705C671.716 128 671.284 130.705 671.284 133.818ZM761.395 122.568L748.099 123.386C747.872 122.25 747.384 121.227 746.634 120.318C745.884 119.386 744.895 118.648 743.668 118.102C742.463 117.534 741.02 117.25 739.338 117.25C737.088 117.25 735.19 117.727 733.645 118.682C732.099 119.614 731.327 120.864 731.327 122.432C731.327 123.682 731.827 124.739 732.827 125.602C733.827 126.466 735.543 127.159 737.974 127.682L747.452 129.591C752.543 130.636 756.338 132.318 758.838 134.636C761.338 136.955 762.588 140 762.588 143.773C762.588 147.205 761.577 150.216 759.554 152.807C757.554 155.398 754.804 157.42 751.304 158.875C747.827 160.307 743.815 161.023 739.27 161.023C732.338 161.023 726.815 159.58 722.702 156.693C718.611 153.784 716.213 149.83 715.509 144.83L729.793 144.08C730.224 146.193 731.27 147.807 732.929 148.92C734.588 150.011 736.713 150.557 739.304 150.557C741.849 150.557 743.895 150.068 745.44 149.091C747.009 148.091 747.804 146.807 747.827 145.239C747.804 143.92 747.247 142.841 746.156 142C745.065 141.136 743.384 140.477 741.111 140.023L732.043 138.216C726.929 137.193 723.122 135.42 720.622 132.898C718.145 130.375 716.906 127.159 716.906 123.25C716.906 119.886 717.815 116.989 719.634 114.557C721.474 112.125 724.054 110.25 727.372 108.932C730.713 107.614 734.622 106.955 739.099 106.955C745.713 106.955 750.918 108.352 754.713 111.148C758.531 113.943 760.759 117.75 761.395 122.568ZM804.358 125.568V137.091H772.517V125.568H804.358ZM840.392 161.023C835.028 161.023 830.415 159.886 826.551 157.614C822.71 155.318 819.756 152.136 817.688 148.068C815.642 144 814.619 139.318 814.619 134.023C814.619 128.659 815.653 123.955 817.722 119.909C819.813 115.841 822.778 112.67 826.619 110.398C830.46 108.102 835.028 106.955 840.324 106.955C844.892 106.955 848.892 107.784 852.324 109.443C855.756 111.102 858.472 113.432 860.472 116.432C862.472 119.432 863.574 122.955 863.778 127H850.074C849.688 124.386 848.665 122.284 847.006 120.693C845.369 119.08 843.222 118.273 840.562 118.273C838.312 118.273 836.347 118.886 834.665 120.114C833.006 121.318 831.71 123.08 830.778 125.398C829.847 127.716 829.381 130.523 829.381 133.818C829.381 137.159 829.835 140 830.744 142.341C831.676 144.682 832.983 146.466 834.665 147.693C836.347 148.92 838.312 149.534 840.562 149.534C842.222 149.534 843.71 149.193 845.028 148.511C846.369 147.83 847.472 146.841 848.335 145.545C849.222 144.227 849.801 142.648 850.074 140.807H863.778C863.551 144.807 862.46 148.33 860.506 151.375C858.574 154.398 855.903 156.761 852.494 158.466C849.085 160.17 845.051 161.023 840.392 161.023ZM887.599 90.1818V160H873.077V90.1818H887.599ZM899.233 160V107.636H913.756V160H899.233ZM906.528 100.886C904.369 100.886 902.517 100.17 900.972 98.7386C899.449 97.2841 898.688 95.5455 898.688 93.5227C898.688 91.5227 899.449 89.8068 900.972 88.375C902.517 86.9205 904.369 86.1932 906.528 86.1932C908.688 86.1932 910.528 86.9205 912.051 88.375C913.597 89.8068 914.369 91.5227 914.369 93.5227C914.369 95.5455 913.597 97.2841 912.051 98.7386C910.528 100.17 908.688 100.886 906.528 100.886ZM949.253 161.023C943.866 161.023 939.23 159.932 935.344 157.75C931.48 155.545 928.503 152.432 926.412 148.409C924.321 144.364 923.276 139.58 923.276 134.057C923.276 128.67 924.321 123.943 926.412 119.875C928.503 115.807 931.446 112.636 935.241 110.364C939.06 108.091 943.537 106.955 948.673 106.955C952.128 106.955 955.344 107.511 958.321 108.625C961.321 109.716 963.935 111.364 966.162 113.568C968.412 115.773 970.162 118.545 971.412 121.886C972.662 125.205 973.287 129.091 973.287 133.545V137.534H929.071V128.534H959.616C959.616 126.443 959.162 124.591 958.253 122.977C957.344 121.364 956.082 120.102 954.469 119.193C952.878 118.261 951.026 117.795 948.912 117.795C946.707 117.795 944.753 118.307 943.048 119.33C941.366 120.33 940.048 121.682 939.094 123.386C938.139 125.068 937.651 126.943 937.628 129.011V137.568C937.628 140.159 938.105 142.398 939.06 144.284C940.037 146.17 941.412 147.625 943.185 148.648C944.957 149.67 947.06 150.182 949.491 150.182C951.105 150.182 952.582 149.955 953.923 149.5C955.264 149.045 956.412 148.364 957.366 147.455C958.321 146.545 959.048 145.432 959.548 144.114L972.98 145C972.298 148.227 970.901 151.045 968.787 153.455C966.696 155.841 963.991 157.705 960.673 159.045C957.378 160.364 953.571 161.023 949.253 161.023ZM997.287 129.727V160H982.764V107.636H996.605V116.875H997.219C998.378 113.83 1000.32 111.42 1003.05 109.648C1005.78 107.852 1009.08 106.955 1012.97 106.955C1016.61 106.955 1019.78 107.75 1022.48 109.341C1025.18 110.932 1027.29 113.205 1028.79 116.159C1030.29 119.091 1031.04 122.591 1031.04 126.659V160H1016.51V129.25C1016.54 126.045 1015.72 123.545 1014.06 121.75C1012.4 119.932 1010.12 119.023 1007.21 119.023C1005.25 119.023 1003.53 119.443 1002.03 120.284C1000.55 121.125 999.389 122.352 998.548 123.966C997.73 125.557 997.31 127.477 997.287 129.727ZM1070.34 107.636V118.545H1038.8V107.636H1070.34ZM1045.96 95.0909H1060.48V143.909C1060.48 145.25 1060.69 146.295 1061.1 147.045C1061.51 147.773 1062.07 148.284 1062.8 148.58C1063.55 148.875 1064.41 149.023 1065.39 149.023C1066.07 149.023 1066.76 148.966 1067.44 148.852C1068.12 148.716 1068.64 148.614 1069.01 148.545L1071.29 159.352C1070.56 159.58 1069.54 159.841 1068.22 160.136C1066.9 160.455 1065.3 160.648 1063.41 160.716C1059.91 160.852 1056.85 160.386 1054.21 159.318C1051.6 158.25 1049.56 156.591 1048.11 154.341C1046.65 152.091 1045.94 149.25 1045.96 145.818V95.0909Z" fill="black"/>
</svg>
