<svg width="2000" height="250" viewBox="0 0 2000 250" fill="none" xmlns="http://www.w3.org/2000/svg">
<rect width="2000" height="250" rx="48" fill="#F0E81A"/>
<path d="M148.121 63.9112C151.892 65.4726 155.384 67.6248 158.466 70.2816C159.177 70.895 159.867 71.5353 160.534 72.2014C164.086 75.7527 166.905 79.9687 168.827 84.6086C170.75 89.2486 171.74 94.2217 171.74 99.2439C171.74 103.776 170.934 108.269 169.363 112.512H171.74C176.764 112.512 181.739 113.501 186.381 115.423C190.153 116.985 193.644 119.137 196.726 121.794C197.438 122.407 198.127 123.047 198.794 123.714C202.347 127.265 205.165 131.481 207.088 136.121C209.01 140.761 210 145.734 210 150.756C210 155.778 209.01 160.751 207.088 165.391C205.165 170.031 202.347 174.247 198.794 177.799C198.127 178.465 197.438 179.105 196.726 179.718C193.644 182.375 190.152 184.527 186.381 186.089C181.739 188.011 176.764 189 171.74 189H146.753C139.854 189 134.26 183.409 134.26 176.512C134.26 169.615 139.854 164.024 146.753 164.024H171.74L171.74 164.028C173.483 164.028 175.21 163.684 176.821 163.017C178.431 162.35 179.895 161.373 181.128 160.14C182.361 158.908 183.339 157.445 184.006 155.835C184.673 154.225 185.017 152.499 185.017 150.756C185.017 149.013 184.673 147.288 184.006 145.677C183.339 144.067 182.361 142.604 181.128 141.372C179.895 140.139 178.432 139.162 176.821 138.495C175.21 137.828 173.483 137.485 171.74 137.485V137.488H108.493C101.593 137.488 96 131.897 96 125C96 118.103 101.593 112.512 108.493 112.512H133.767C135.413 112.477 137.038 112.135 138.56 111.505C140.171 110.838 141.635 109.861 142.868 108.628C144.101 107.396 145.079 105.933 145.746 104.323C146.413 102.713 146.757 100.987 146.757 99.2439C146.757 97.5011 146.413 95.7753 145.746 94.1652C145.079 92.555 144.101 91.092 142.868 89.8596C141.635 88.6272 140.171 87.6497 138.56 86.9827C136.95 86.3158 135.223 85.9725 133.479 85.9725V85.9756H108.493C101.593 85.9756 96 80.3846 96 73.4878C96 66.591 101.593 61 108.493 61H133.479C138.504 61 143.479 61.9892 148.121 63.9112Z" fill="black"/>
<path d="M96 176.512C96 169.615 101.593 164.024 108.493 164.024H115.521C122.42 164.024 128.014 169.615 128.014 176.512C128.014 183.409 122.42 189 115.521 189H108.493C101.593 189 96 183.409 96 176.512Z" fill="black"/>
<path d="M291.955 107.636V118.545H259.636V107.636H291.955ZM267.034 160V103.852C267.034 100.057 267.773 96.9091 269.25 94.4091C270.75 91.9091 272.795 90.0341 275.386 88.7841C277.977 87.5341 280.92 86.9091 284.216 86.9091C286.443 86.9091 288.477 87.0795 290.318 87.4205C292.182 87.7614 293.568 88.0682 294.477 88.3409L291.886 99.25C291.318 99.0682 290.614 98.8977 289.773 98.7386C288.955 98.5795 288.114 98.5 287.25 98.5C285.114 98.5 283.625 99 282.784 100C281.943 100.977 281.523 102.352 281.523 104.125V160H267.034ZM322.815 161.023C317.429 161.023 312.793 159.932 308.906 157.75C305.043 155.545 302.065 152.432 299.974 148.409C297.884 144.364 296.838 139.58 296.838 134.057C296.838 128.67 297.884 123.943 299.974 119.875C302.065 115.807 305.009 112.636 308.804 110.364C312.622 108.091 317.099 106.955 322.236 106.955C325.69 106.955 328.906 107.511 331.884 108.625C334.884 109.716 337.497 111.364 339.724 113.568C341.974 115.773 343.724 118.545 344.974 121.886C346.224 125.205 346.849 129.091 346.849 133.545V137.534H302.634V128.534H333.179C333.179 126.443 332.724 124.591 331.815 122.977C330.906 121.364 329.645 120.102 328.031 119.193C326.44 118.261 324.588 117.795 322.474 117.795C320.27 117.795 318.315 118.307 316.611 119.33C314.929 120.33 313.611 121.682 312.656 123.386C311.702 125.068 311.213 126.943 311.19 129.011V137.568C311.19 140.159 311.668 142.398 312.622 144.284C313.599 146.17 314.974 147.625 316.747 148.648C318.52 149.67 320.622 150.182 323.054 150.182C324.668 150.182 326.145 149.955 327.486 149.5C328.827 149.045 329.974 148.364 330.929 147.455C331.884 146.545 332.611 145.432 333.111 144.114L346.543 145C345.861 148.227 344.463 151.045 342.349 153.455C340.259 155.841 337.554 157.705 334.236 159.045C330.94 160.364 327.134 161.023 322.815 161.023ZM371.259 160.989C367.918 160.989 364.94 160.409 362.327 159.25C359.713 158.068 357.645 156.33 356.122 154.034C354.622 151.716 353.872 148.83 353.872 145.375C353.872 142.466 354.406 140.023 355.474 138.045C356.543 136.068 357.997 134.477 359.838 133.273C361.679 132.068 363.77 131.159 366.111 130.545C368.474 129.932 370.952 129.5 373.543 129.25C376.588 128.932 379.043 128.636 380.906 128.364C382.77 128.068 384.122 127.636 384.963 127.068C385.804 126.5 386.224 125.659 386.224 124.545V124.341C386.224 122.182 385.543 120.511 384.179 119.33C382.838 118.148 380.929 117.557 378.452 117.557C375.838 117.557 373.759 118.136 372.213 119.295C370.668 120.432 369.645 121.864 369.145 123.591L355.713 122.5C356.395 119.318 357.736 116.568 359.736 114.25C361.736 111.909 364.315 110.114 367.474 108.864C370.656 107.591 374.338 106.955 378.52 106.955C381.429 106.955 384.213 107.295 386.872 107.977C389.554 108.659 391.929 109.716 393.997 111.148C396.088 112.58 397.736 114.42 398.94 116.67C400.145 118.898 400.747 121.568 400.747 124.682V160H386.974V152.739H386.565C385.724 154.375 384.599 155.818 383.19 157.068C381.781 158.295 380.088 159.261 378.111 159.966C376.134 160.648 373.849 160.989 371.259 160.989ZM375.418 150.966C377.554 150.966 379.44 150.545 381.077 149.705C382.713 148.841 383.997 147.682 384.929 146.227C385.861 144.773 386.327 143.125 386.327 141.284V135.727C385.872 136.023 385.247 136.295 384.452 136.545C383.679 136.773 382.804 136.989 381.827 137.193C380.849 137.375 379.872 137.545 378.895 137.705C377.918 137.841 377.031 137.966 376.236 138.08C374.531 138.33 373.043 138.727 371.77 139.273C370.497 139.818 369.509 140.557 368.804 141.489C368.099 142.398 367.747 143.534 367.747 144.898C367.747 146.875 368.463 148.386 369.895 149.432C371.349 150.455 373.19 150.966 375.418 150.966ZM439.866 107.636V118.545H408.332V107.636H439.866ZM415.491 95.0909H430.014V143.909C430.014 145.25 430.219 146.295 430.628 147.045C431.037 147.773 431.605 148.284 432.332 148.58C433.082 148.875 433.946 149.023 434.923 149.023C435.605 149.023 436.287 148.966 436.969 148.852C437.651 148.716 438.173 148.614 438.537 148.545L440.821 159.352C440.094 159.58 439.071 159.841 437.753 160.136C436.435 160.455 434.832 160.648 432.946 160.716C429.446 160.852 426.378 160.386 423.741 159.318C421.128 158.25 419.094 156.591 417.639 154.341C416.185 152.091 415.469 149.25 415.491 145.818V95.0909ZM482.906 137.705V107.636H497.429V160H483.486V150.489H482.94C481.759 153.557 479.793 156.023 477.043 157.886C474.315 159.75 470.986 160.682 467.054 160.682C463.554 160.682 460.474 159.886 457.815 158.295C455.156 156.705 453.077 154.443 451.577 151.511C450.099 148.58 449.349 145.068 449.327 140.977V107.636H463.849V138.386C463.872 141.477 464.702 143.92 466.338 145.716C467.974 147.511 470.168 148.409 472.918 148.409C474.668 148.409 476.304 148.011 477.827 147.216C479.349 146.398 480.577 145.193 481.509 143.602C482.463 142.011 482.929 140.045 482.906 137.705ZM509.045 160V107.636H523.125V116.773H523.67C524.625 113.523 526.227 111.068 528.477 109.409C530.727 107.727 533.318 106.886 536.25 106.886C536.977 106.886 537.761 106.932 538.602 107.023C539.443 107.114 540.182 107.239 540.818 107.398V120.284C540.136 120.08 539.193 119.898 537.989 119.739C536.784 119.58 535.682 119.5 534.682 119.5C532.545 119.5 530.636 119.966 528.955 120.898C527.295 121.807 525.977 123.08 525 124.716C524.045 126.352 523.568 128.239 523.568 130.375V160H509.045ZM569.753 161.023C564.366 161.023 559.73 159.932 555.844 157.75C551.98 155.545 549.003 152.432 546.912 148.409C544.821 144.364 543.776 139.58 543.776 134.057C543.776 128.67 544.821 123.943 546.912 119.875C549.003 115.807 551.946 112.636 555.741 110.364C559.56 108.091 564.037 106.955 569.173 106.955C572.628 106.955 575.844 107.511 578.821 108.625C581.821 109.716 584.435 111.364 586.662 113.568C588.912 115.773 590.662 118.545 591.912 121.886C593.162 125.205 593.787 129.091 593.787 133.545V137.534H549.571V128.534H580.116C580.116 126.443 579.662 124.591 578.753 122.977C577.844 121.364 576.582 120.102 574.969 119.193C573.378 118.261 571.526 117.795 569.412 117.795C567.207 117.795 565.253 118.307 563.548 119.33C561.866 120.33 560.548 121.682 559.594 123.386C558.639 125.068 558.151 126.943 558.128 129.011V137.568C558.128 140.159 558.605 142.398 559.56 144.284C560.537 146.17 561.912 147.625 563.685 148.648C565.457 149.67 567.56 150.182 569.991 150.182C571.605 150.182 573.082 149.955 574.423 149.5C575.764 149.045 576.912 148.364 577.866 147.455C578.821 146.545 579.548 145.432 580.048 144.114L593.48 145C592.798 148.227 591.401 151.045 589.287 153.455C587.196 155.841 584.491 157.705 581.173 159.045C577.878 160.364 574.071 161.023 569.753 161.023ZM635.889 125.568V137.091H604.048V125.568H635.889ZM662.787 90.1818V160H648.264V90.1818H662.787ZM698.08 161.023C692.784 161.023 688.205 159.898 684.341 157.648C680.5 155.375 677.534 152.216 675.443 148.17C673.352 144.102 672.307 139.386 672.307 134.023C672.307 128.614 673.352 123.886 675.443 119.841C677.534 115.773 680.5 112.614 684.341 110.364C688.205 108.091 692.784 106.955 698.08 106.955C703.375 106.955 707.943 108.091 711.784 110.364C715.648 112.614 718.625 115.773 720.716 119.841C722.807 123.886 723.852 128.614 723.852 134.023C723.852 139.386 722.807 144.102 720.716 148.17C718.625 152.216 715.648 155.375 711.784 157.648C707.943 159.898 703.375 161.023 698.08 161.023ZM698.148 149.773C700.557 149.773 702.568 149.091 704.182 147.727C705.795 146.341 707.011 144.455 707.83 142.068C708.67 139.682 709.091 136.966 709.091 133.92C709.091 130.875 708.67 128.159 707.83 125.773C707.011 123.386 705.795 121.5 704.182 120.114C702.568 118.727 700.557 118.034 698.148 118.034C695.716 118.034 693.67 118.727 692.011 120.114C690.375 121.5 689.136 123.386 688.295 125.773C687.477 128.159 687.068 130.875 687.068 133.92C687.068 136.966 687.477 139.682 688.295 142.068C689.136 144.455 690.375 146.341 692.011 147.727C693.67 149.091 695.716 149.773 698.148 149.773ZM756.886 180.727C752.182 180.727 748.148 180.08 744.784 178.784C741.443 177.511 738.784 175.773 736.807 173.568C734.83 171.364 733.545 168.886 732.955 166.136L746.386 164.33C746.795 165.375 747.443 166.352 748.33 167.261C749.216 168.17 750.386 168.898 751.841 169.443C753.318 170.011 755.114 170.295 757.227 170.295C760.386 170.295 762.989 169.523 765.034 167.977C767.102 166.455 768.136 163.898 768.136 160.307V150.727H767.523C766.886 152.182 765.932 153.557 764.659 154.852C763.386 156.148 761.75 157.205 759.75 158.023C757.75 158.841 755.364 159.25 752.591 159.25C748.659 159.25 745.08 158.341 741.852 156.523C738.648 154.682 736.091 151.875 734.182 148.102C732.295 144.307 731.352 139.511 731.352 133.716C731.352 127.784 732.318 122.83 734.25 118.852C736.182 114.875 738.75 111.898 741.955 109.92C745.182 107.943 748.716 106.955 752.557 106.955C755.489 106.955 757.943 107.455 759.92 108.455C761.898 109.432 763.489 110.659 764.693 112.136C765.92 113.591 766.864 115.023 767.523 116.432H768.068V107.636H782.489V160.511C782.489 164.966 781.398 168.693 779.216 171.693C777.034 174.693 774.011 176.943 770.148 178.443C766.307 179.966 761.886 180.727 756.886 180.727ZM757.193 148.341C759.534 148.341 761.511 147.761 763.125 146.602C764.761 145.42 766.011 143.739 766.875 141.557C767.761 139.352 768.205 136.716 768.205 133.648C768.205 130.58 767.773 127.92 766.909 125.67C766.045 123.398 764.795 121.636 763.159 120.386C761.523 119.136 759.534 118.511 757.193 118.511C754.807 118.511 752.795 119.159 751.159 120.455C749.523 121.727 748.284 123.5 747.443 125.773C746.602 128.045 746.182 130.67 746.182 133.648C746.182 136.67 746.602 139.284 747.443 141.489C748.307 143.67 749.545 145.364 751.159 146.568C752.795 147.75 754.807 148.341 757.193 148.341ZM817.636 180.727C812.932 180.727 808.898 180.08 805.534 178.784C802.193 177.511 799.534 175.773 797.557 173.568C795.58 171.364 794.295 168.886 793.705 166.136L807.136 164.33C807.545 165.375 808.193 166.352 809.08 167.261C809.966 168.17 811.136 168.898 812.591 169.443C814.068 170.011 815.864 170.295 817.977 170.295C821.136 170.295 823.739 169.523 825.784 167.977C827.852 166.455 828.886 163.898 828.886 160.307V150.727H828.273C827.636 152.182 826.682 153.557 825.409 154.852C824.136 156.148 822.5 157.205 820.5 158.023C818.5 158.841 816.114 159.25 813.341 159.25C809.409 159.25 805.83 158.341 802.602 156.523C799.398 154.682 796.841 151.875 794.932 148.102C793.045 144.307 792.102 139.511 792.102 133.716C792.102 127.784 793.068 122.83 795 118.852C796.932 114.875 799.5 111.898 802.705 109.92C805.932 107.943 809.466 106.955 813.307 106.955C816.239 106.955 818.693 107.455 820.67 108.455C822.648 109.432 824.239 110.659 825.443 112.136C826.67 113.591 827.614 115.023 828.273 116.432H828.818V107.636H843.239V160.511C843.239 164.966 842.148 168.693 839.966 171.693C837.784 174.693 834.761 176.943 830.898 178.443C827.057 179.966 822.636 180.727 817.636 180.727ZM817.943 148.341C820.284 148.341 822.261 147.761 823.875 146.602C825.511 145.42 826.761 143.739 827.625 141.557C828.511 139.352 828.955 136.716 828.955 133.648C828.955 130.58 828.523 127.92 827.659 125.67C826.795 123.398 825.545 121.636 823.909 120.386C822.273 119.136 820.284 118.511 817.943 118.511C815.557 118.511 813.545 119.159 811.909 120.455C810.273 121.727 809.034 123.5 808.193 125.773C807.352 128.045 806.932 130.67 806.932 133.648C806.932 136.67 807.352 139.284 808.193 141.489C809.057 143.67 810.295 145.364 811.909 146.568C813.545 147.75 815.557 148.341 817.943 148.341ZM878.659 161.023C873.273 161.023 868.636 159.932 864.75 157.75C860.886 155.545 857.909 152.432 855.818 148.409C853.727 144.364 852.682 139.58 852.682 134.057C852.682 128.67 853.727 123.943 855.818 119.875C857.909 115.807 860.852 112.636 864.648 110.364C868.466 108.091 872.943 106.955 878.08 106.955C881.534 106.955 884.75 107.511 887.727 108.625C890.727 109.716 893.341 111.364 895.568 113.568C897.818 115.773 899.568 118.545 900.818 121.886C902.068 125.205 902.693 129.091 902.693 133.545V137.534H858.477V128.534H889.023C889.023 126.443 888.568 124.591 887.659 122.977C886.75 121.364 885.489 120.102 883.875 119.193C882.284 118.261 880.432 117.795 878.318 117.795C876.114 117.795 874.159 118.307 872.455 119.33C870.773 120.33 869.455 121.682 868.5 123.386C867.545 125.068 867.057 126.943 867.034 129.011V137.568C867.034 140.159 867.511 142.398 868.466 144.284C869.443 146.17 870.818 147.625 872.591 148.648C874.364 149.67 876.466 150.182 878.898 150.182C880.511 150.182 881.989 149.955 883.33 149.5C884.67 149.045 885.818 148.364 886.773 147.455C887.727 146.545 888.455 145.432 888.955 144.114L902.386 145C901.705 148.227 900.307 151.045 898.193 153.455C896.102 155.841 893.398 157.705 890.08 159.045C886.784 160.364 882.977 161.023 878.659 161.023ZM912.17 160V107.636H926.25V116.773H926.795C927.75 113.523 929.352 111.068 931.602 109.409C933.852 107.727 936.443 106.886 939.375 106.886C940.102 106.886 940.886 106.932 941.727 107.023C942.568 107.114 943.307 107.239 943.943 107.398V120.284C943.261 120.08 942.318 119.898 941.114 119.739C939.909 119.58 938.807 119.5 937.807 119.5C935.67 119.5 933.761 119.966 932.08 120.898C930.42 121.807 929.102 123.08 928.125 124.716C927.17 126.352 926.693 128.239 926.693 130.375V160H912.17Z" fill="black"/>
</svg>
